<svg width="257" height="261" viewBox="0 0 257 261" fill="none" xmlns="http://www.w3.org/2000/svg">
<mask id="mask0_670_182" style="mask-type:luminance" maskUnits="userSpaceOnUse" x="0" y="0" width="257" height="261">
<path d="M224.879 226.321C224.879 223.92 222.932 221.966 220.537 221.966C218.145 221.966 216.197 223.92 216.197 226.321V226.903C216.197 229.303 218.145 231.257 220.537 231.257C222.932 231.257 224.879 229.303 224.879 226.903V226.321ZM227.577 226.321V226.903C227.577 230.796 224.419 233.964 220.537 233.964C216.658 233.964 213.5 230.796 213.5 226.903V226.321C213.5 222.425 216.658 219.257 220.537 219.257C224.419 219.257 227.577 222.425 227.577 226.321ZM129.416 240.61L145.978 225.388L131.189 209.185L114.626 224.408C112.47 226.391 111.211 229.096 111.083 232.029C110.956 234.96 111.973 237.767 113.948 239.929C118.024 244.396 124.963 244.703 129.416 240.61ZM151.811 225.226L157.265 220.097C148.311 215.335 141.195 207.614 137.163 198.294L131.87 203.344C131.156 204 131.109 205.089 131.746 205.786L149.394 225.12C150.032 225.818 151.116 225.865 151.811 225.226ZM178.084 222.568C192.884 222.568 206.05 214.751 213.5 202.891V199.53C213.5 195.872 216.235 192.85 219.861 192.498C220.044 192.482 220.506 192.445 220.892 192.463L221.183 192.465C226.382 192.465 230.629 188.206 230.629 182.969C230.629 177.731 226.382 173.471 221.165 173.471C216.74 173.471 212.85 176.611 211.916 180.94C211.093 184.745 207.339 187.168 203.546 186.349C201.708 185.949 200.134 184.857 199.117 183.269C198.098 181.684 197.758 179.794 198.156 177.95C200.014 169.339 206.565 162.629 214.731 160.269C213.141 157.389 211.206 154.671 208.933 152.181C201.38 143.908 191.067 139.079 179.896 138.587C168.727 138.09 158.032 141.998 149.786 149.578C141.539 157.157 136.728 167.505 136.239 178.715C135.226 201.858 153.164 221.511 176.227 222.527C176.847 222.554 177.468 222.568 178.084 222.568ZM225.921 203.335C235.394 201.11 242.009 192.734 242.009 182.969C242.009 171.434 232.659 162.05 221.165 162.05C211.42 162.05 202.853 168.979 200.792 178.523C200.547 179.661 200.759 180.825 201.386 181.804C202.013 182.781 202.982 183.456 204.117 183.702C206.456 184.211 208.77 182.714 209.277 180.367C210.48 174.801 215.478 170.761 221.165 170.761C227.872 170.761 233.328 176.238 233.328 182.969C233.328 189.698 227.872 195.174 221.165 195.174L220.805 195.169C220.756 195.166 220.705 195.166 220.653 195.166C220.461 195.166 220.267 195.178 220.116 195.193C217.885 195.41 216.197 197.273 216.197 199.53V207.496C216.197 209.897 218.145 211.851 220.537 211.851C222.932 211.851 224.879 209.897 224.879 207.496V204.654C224.879 204.025 225.31 203.479 225.921 203.335ZM244.706 182.969C244.706 193.637 237.717 202.837 227.577 205.704V207.496C227.577 211.389 224.419 214.558 220.537 214.558C216.697 214.558 213.57 211.455 213.506 207.618C205.324 218.377 192.426 225.275 178.084 225.275C177.429 225.275 176.771 225.261 176.109 225.232C170.326 224.978 164.849 223.61 159.864 221.361L153.645 227.213C152.793 227.995 151.72 228.382 150.654 228.382C149.646 228.382 148.655 228.018 147.847 227.341L131.237 242.608C128.624 245.011 125.319 246.197 122.028 246.197C118.33 246.197 114.645 244.703 111.958 241.759C109.495 239.063 108.228 235.564 108.387 231.909C108.515 228.982 109.559 226.246 111.345 224C111.789 223.441 112.267 222.904 112.803 222.413L129.41 207.148C128.164 205.358 128.382 202.879 130.031 201.363L136.098 195.574C134.209 190.281 133.283 184.55 133.543 178.597C134.065 166.663 139.186 155.65 147.962 147.582C156.741 139.514 168.128 135.356 180.016 135.884C191.906 136.405 202.883 141.544 210.923 150.354C213.336 152.998 215.393 155.884 217.085 158.945C217.214 159.181 217.342 159.415 217.468 159.653C218.677 159.456 219.91 159.343 221.165 159.343C234.146 159.343 244.706 169.942 244.706 182.969ZM178.062 178.138C183.664 178.138 188.22 173.566 188.22 167.942C188.22 162.32 183.664 157.748 178.062 157.748C172.46 157.748 167.902 162.32 167.902 167.942C167.902 173.566 172.46 178.138 178.062 178.138ZM195.788 202.203C196.43 201.465 196.72 200.485 196.584 199.517L195.299 190.24C194.506 184.524 190.064 180.049 184.557 179.059C182.647 180.187 180.432 180.845 178.062 180.845C175.69 180.845 173.475 180.187 171.567 179.059C166.058 180.049 161.617 184.524 160.825 190.24L159.538 199.517C159.403 200.485 159.694 201.465 160.334 202.203C160.975 202.942 161.902 203.365 162.878 203.365H193.247C194.223 203.365 195.148 202.942 195.788 202.203ZM199.258 199.142C199.501 200.889 198.977 202.653 197.824 203.981C196.671 205.311 195.003 206.074 193.247 206.074H162.878C161.12 206.074 159.451 205.311 158.298 203.981C157.145 202.653 156.624 200.889 156.865 199.142L158.152 189.866C159 183.761 163.302 178.844 168.89 176.971C166.613 174.642 165.204 171.455 165.204 167.942C165.204 160.829 170.971 155.041 178.062 155.041C185.151 155.041 190.92 160.829 190.92 167.942C190.92 171.455 189.509 174.642 187.232 176.971C192.82 178.844 197.125 183.761 197.97 189.866L199.258 199.142ZM28.0191 80.0926C27.4921 79.5622 26.6373 79.5622 26.1111 80.0926C25.5842 80.6205 25.5842 81.4792 26.1111 82.0071L33.97 89.8925C34.2334 90.1577 34.5783 90.2903 34.9239 90.2903C35.2688 90.2903 35.6144 90.1577 35.8779 89.8925C36.4048 89.3654 36.4048 88.5059 35.8779 87.978L28.0191 80.0926ZM88.2687 80.0926C87.7426 79.5622 86.8894 79.5622 86.3608 80.0926L78.5028 87.978C77.9759 88.5059 77.9759 89.3654 78.5028 89.8925C78.7663 90.1577 79.1119 90.2903 79.4568 90.2903C79.8024 90.2903 80.1472 90.1577 80.4107 89.8925L88.2687 82.0071C88.7973 81.4792 88.7973 80.6205 88.2687 80.0926ZM56.7537 71.8094C56.0092 71.8094 55.4049 72.4158 55.4049 73.1628V81.9263C55.4049 82.6734 56.0092 83.2797 56.7537 83.2797C57.4989 83.2797 58.1032 82.6734 58.1032 81.9263V73.1628C58.1032 72.4158 57.4989 71.8094 56.7537 71.8094ZM12.618 106.46C12.618 107.208 13.2223 107.815 13.9668 107.815H22.699C23.4443 107.815 24.0485 107.208 24.0485 106.46C24.0485 105.712 23.4443 105.105 22.699 105.105H13.9668C13.2223 105.105 12.618 105.712 12.618 106.46ZM90.8083 107.815H99.5413C100.286 107.815 100.89 107.208 100.89 106.46C100.89 105.712 100.286 105.105 99.5413 105.105H90.8083C90.063 105.105 89.4588 105.712 89.4588 106.46C89.4588 107.208 90.063 107.815 90.8083 107.815ZM86.4438 142.865C86.0845 142.865 85.742 142.722 85.4883 142.468L73.2633 130.2C72.564 129.498 71.6447 129.147 70.7245 129.147C69.8052 129.147 68.8859 129.498 68.1866 130.2C67.5082 130.881 67.1343 131.785 67.1343 132.748C67.1343 133.711 67.5082 134.614 68.1866 135.296L85.6494 152.82C85.9032 153.073 86.0458 153.419 86.0458 153.777V175.684C86.0458 178.318 88.1825 180.463 90.8083 180.463H101.876C101.203 179.475 100.812 178.281 100.812 176.997V153.777C100.812 153.03 101.416 152.424 102.161 152.424C102.905 152.424 103.509 153.03 103.509 153.777V176.997C103.509 178.908 105.059 180.463 106.962 180.463C108.866 180.463 110.417 178.908 110.417 176.997V147.644C110.417 145.007 108.28 142.865 105.653 142.865H86.4438ZM40.4261 144.036L43.8495 158.558H55.471C55.4315 158.43 55.4049 158.299 55.4049 158.158V122.709H43.6561C42.9109 122.709 42.3066 122.105 42.3066 121.356C42.3066 120.609 42.9109 120.002 43.6561 120.002H68.9786C69.7239 120.002 70.3281 120.609 70.3281 121.356C70.3281 122.105 69.7239 122.709 68.9786 122.709H58.1032V158.158C58.1032 158.299 58.0758 158.43 58.0371 158.558H68.7828L72.3537 143.306L66.2787 137.211C65.0903 136.018 64.436 134.433 64.436 132.748C64.436 131.063 65.0903 129.477 66.2779 128.285C68.7296 125.824 72.7195 125.824 75.1712 128.285L76.7923 129.912L79.7251 121.221C81.8529 114.917 81.3002 107.927 78.2103 102.04C75.1857 96.2782 70.1315 92.1491 63.9792 90.41C61.6394 89.7478 59.2086 89.4123 56.7537 89.4123C53.103 89.4123 49.5668 90.1416 46.2433 91.5775C35.2398 96.3339 29.6707 108.812 33.2908 120.606L36.2807 130.349L38.3361 128.285C40.7878 125.824 44.7777 125.824 47.2294 128.285C48.417 129.477 49.0713 131.063 49.0713 132.748C49.0713 134.433 48.417 136.018 47.2294 137.211L40.4261 144.036ZM45.3215 135.296C45.9999 134.614 46.373 133.711 46.373 132.748C46.373 131.785 45.9999 130.881 45.3215 130.2C43.9212 128.795 41.6435 128.795 40.244 130.2L28.0191 142.468C27.7661 142.722 27.4228 142.865 27.0651 142.865H7.85472C5.22813 142.865 3.0914 145.007 3.0914 147.644V176.997C3.0914 178.908 4.64077 180.463 6.54465 180.463C8.44933 180.463 9.99789 178.908 9.99789 176.997V153.777C9.99789 153.03 10.6022 152.424 11.3474 152.424C12.0927 152.424 12.6962 153.03 12.6962 153.777V176.997C12.6962 178.281 12.303 179.475 11.6319 180.463H22.699C25.3256 180.463 27.4623 178.318 27.4623 175.684V153.777C27.4623 153.419 27.6041 153.073 27.8571 152.82L45.3215 135.296ZM50.2049 180.463H63.3024C65.929 180.463 68.0657 178.318 68.0657 175.684V161.265H45.4416V175.684C45.4416 178.318 47.5783 180.463 50.2049 180.463ZM50.2049 183.172C49.537 183.172 48.8924 183.075 48.276 182.909C45.0951 182.052 42.7433 179.142 42.7433 175.684V161.259C42.135 161.24 41.6105 160.82 41.4695 160.222L38.1838 146.286L34.5388 149.945L30.1606 154.338V175.684C30.1606 179.813 26.8129 183.172 22.699 183.172H6.54465C3.15264 183.172 0.393102 180.403 0.393102 176.997V147.644C0.393102 143.515 3.7408 140.155 7.85472 140.155H26.5059L32.6253 134.016L34.1214 132.514L32.6059 127.576L30.7117 121.403C27.1763 109.885 31.5432 97.7707 40.9699 91.3972C42.2776 90.5135 43.6811 89.7373 45.1765 89.0921C48.8384 87.5082 52.734 86.7054 56.7537 86.7054C59.456 86.7054 62.1333 87.0757 64.71 87.8042C71.5826 89.7462 77.2242 94.3531 80.5976 100.778C84.0299 107.318 84.6447 115.087 82.2815 122.088L78.9202 132.048L87.0022 140.155H105.653C109.767 140.155 113.115 143.515 113.115 147.644V176.997C113.115 180.403 110.355 183.172 106.962 183.172H90.8083C86.6952 183.172 83.3475 179.813 83.3475 175.684V154.338L74.5984 145.56L71.1653 160.22C71.1024 160.489 70.9534 160.712 70.764 160.889V175.684C70.764 179.813 67.4171 183.172 63.3024 183.172H50.2049ZM17.4603 115.701C12.4263 115.701 8.33089 119.81 8.33089 124.862C8.33089 129.912 12.4263 134.023 17.4603 134.023C22.4935 134.023 26.5889 129.912 26.5889 124.862C26.5889 119.81 22.4935 115.701 17.4603 115.701ZM5.63259 124.862C5.63259 118.317 10.9381 112.992 17.4603 112.992C23.9817 112.992 29.2872 118.317 29.2872 124.862C29.2872 131.406 23.9817 136.73 17.4603 136.73C10.9381 136.73 5.63259 131.406 5.63259 124.862ZM105.176 124.862C105.176 119.81 101.082 115.701 96.047 115.701C91.0146 115.701 86.9176 119.81 86.9176 124.862C86.9176 129.912 91.0146 134.023 96.047 134.023C101.082 134.023 105.176 129.912 105.176 124.862ZM107.876 124.862C107.876 131.406 102.569 136.73 96.047 136.73C89.5248 136.73 84.2201 131.406 84.2201 124.862C84.2201 118.317 89.5248 112.992 96.047 112.992C102.569 112.992 107.876 118.317 107.876 124.862ZM177.048 20.3833C173.722 20.3833 170.68 22.31 169.222 25.3007C168.657 26.4601 168.329 27.7577 168.329 29.1346C168.329 32.7131 170.486 35.7951 173.561 37.1461C173.687 37.2019 173.815 37.2496 173.941 37.2973C174.046 37.3386 174.151 37.3782 174.259 37.4138L174.25 37.4194C175.145 37.7258 176.082 37.8811 177.048 37.8811C181.855 37.8811 185.766 33.9566 185.766 29.1346C185.766 24.3094 181.855 20.3833 177.048 20.3833ZM156.073 42.9335C160.88 42.9335 164.791 39.009 164.791 34.1846C164.791 29.3602 160.88 25.4357 156.073 25.4357C151.267 25.4357 147.357 29.3602 147.357 34.1846C147.357 39.009 151.267 42.9335 156.073 42.9335ZM135.1 31.3281C130.293 31.3281 126.382 35.2526 126.382 40.077C126.382 44.9022 130.293 48.8259 135.1 48.8259C139.906 48.8259 143.819 44.9022 143.819 40.077C143.819 35.2526 139.906 31.3281 135.1 31.3281ZM123.682 40.077C123.682 38.5764 123.981 37.1445 124.504 35.8299C126.192 31.6119 130.301 28.6212 135.1 28.6212C139.11 28.6212 142.637 30.7112 144.673 33.8571C144.848 27.6914 149.889 22.728 156.073 22.728C160.109 22.728 163.657 24.8479 165.686 28.0294C165.806 26.773 166.134 25.5804 166.627 24.4752C166.642 24.4356 166.65 24.3968 166.666 24.3596C166.926 23.792 167.232 23.2584 167.572 22.7531C167.584 22.732 167.601 22.7118 167.613 22.6908C167.796 22.424 167.991 22.1653 168.193 21.9146C168.223 21.8774 168.252 21.8402 168.283 21.8055C168.721 21.2791 169.201 20.7948 169.721 20.3582C169.789 20.3 169.861 20.2467 169.932 20.1885C170.115 20.0413 170.305 19.9006 170.496 19.764C170.591 19.6985 170.687 19.6298 170.786 19.5659C171 19.4228 171.221 19.2886 171.445 19.1616C171.592 19.0792 171.738 19.0024 171.887 18.9264C172.064 18.8374 172.239 18.7501 172.421 18.6693C172.563 18.6054 172.706 18.5472 172.852 18.489C173.019 18.4211 173.188 18.3612 173.359 18.3014C173.495 18.2553 173.631 18.206 173.772 18.1623C174.061 18.075 174.353 17.999 174.651 17.9343C174.762 17.9117 174.878 17.8931 174.991 17.8729C175.222 17.8292 175.455 17.7936 175.692 17.7645C175.801 17.7524 175.911 17.7379 176.02 17.7298C176.36 17.6966 176.703 17.6756 177.048 17.6756C183.342 17.6756 188.464 22.8153 188.464 29.1346C188.464 35.4515 183.342 40.5904 177.048 40.5904C176.645 40.5904 176.247 40.5678 175.855 40.5265C175.679 40.5079 175.506 40.4724 175.331 40.4457C175.121 40.415 174.906 40.3875 174.698 40.3422C174.502 40.3026 174.312 40.2452 174.119 40.1934C173.935 40.1433 173.747 40.0996 173.568 40.0422C173.378 39.98 173.192 39.9056 173.005 39.8353C172.827 39.7665 172.648 39.7002 172.474 39.6242C172.415 39.5967 172.351 39.5781 172.289 39.549C172.235 39.5248 172.186 39.4916 172.136 39.4601C170.208 38.5336 168.58 37.0847 167.436 35.2874C167.134 38.4155 165.579 41.1766 163.281 43.0596C161.314 44.6701 158.806 45.6412 156.073 45.6412C152.063 45.6412 148.536 43.5504 146.5 40.4044C146.325 46.5701 141.284 51.5336 135.1 51.5336C128.805 51.5336 123.682 46.3939 123.682 40.077ZM189.961 74.2657H168.329V110.193H189.961V74.2657ZM146.517 110.193H165.631V84.3688H146.517V110.193ZM144.947 55.1015C147.806 56.0685 149.873 58.7778 149.873 61.9674V81.6595H165.631V72.9106C165.631 72.3454 165.977 71.8611 166.47 71.6582V56.075C166.47 53.5702 164.441 51.5336 161.947 51.5336H149.361C147.199 51.5336 145.392 53.0649 144.947 55.1015ZM128.058 110.193H143.819V83.0129C143.819 82.2659 144.421 81.6595 145.167 81.6595H147.173V61.9674C147.173 59.4651 145.145 57.4284 142.65 57.4284H128.389C125.893 57.4284 123.863 59.4651 123.863 61.9674V87.2228C123.863 88.7978 125.14 90.0793 126.71 90.0793C128.279 90.0793 129.556 88.7978 129.556 87.2228V71.2273C129.556 70.4802 130.16 69.8738 130.905 69.8738C131.649 69.8738 132.254 70.4802 132.254 71.2273V87.2228C132.254 89.8222 130.466 92.006 128.058 92.6124V110.193ZM192.659 62.4784V110.193H211.773V62.4784H192.659ZM167.491 50.1801V51.4366C168.537 52.6946 169.169 54.3108 169.169 56.075V71.5563H184.927V55.2325C184.927 54.8598 185.081 54.5016 185.35 54.2469L202.434 38.063C203.003 37.4922 203.318 36.695 203.294 35.8485C203.269 35.002 202.906 34.2258 202.277 33.6631C201.077 32.595 199.249 32.6484 198.115 33.7852L186.378 45.2579C186.127 45.5021 185.789 45.6412 185.438 45.6412H172.014C169.519 45.6412 167.491 47.6778 167.491 50.1801ZM167.19 44.8027C168.471 43.6458 170.158 42.9335 172.014 42.9335H184.889L196.219 31.8585C198.35 29.7224 201.803 29.6189 204.069 31.6386C205.243 32.688 205.944 34.1927 205.99 35.7701C206.038 37.3475 205.424 38.8893 204.313 40.005L187.626 55.8163V71.5563H189.961V61.1249C189.961 60.7918 190.085 60.4895 190.285 60.2534C190.533 59.9599 190.898 59.7715 191.31 59.7715H211.773V19.1164L208.356 24.0159C207.929 24.628 207.087 24.7792 206.477 24.3491C205.866 23.9205 205.718 23.0756 206.145 22.4636L212.019 14.0454C212.025 14.0349 212.033 14.0292 212.042 14.0203C212.099 13.9419 212.163 13.8716 212.235 13.8077C212.237 13.8077 212.237 13.8077 212.239 13.8053C212.477 13.5983 212.784 13.4657 213.125 13.4657C213.463 13.4657 213.77 13.5983 214.007 13.8053C214.009 13.8077 214.009 13.8077 214.011 13.8077C214.083 13.8716 214.149 13.9419 214.205 14.0203C214.213 14.0292 214.222 14.0349 214.228 14.0454L220.102 22.4636C220.529 23.0756 220.381 23.9205 219.77 24.3491C219.535 24.5148 219.265 24.5932 218.996 24.5932C218.572 24.5932 218.153 24.3927 217.891 24.0159L214.473 19.1164V111.547C214.473 112.296 213.869 112.9 213.125 112.9H121.852C121.108 112.9 120.503 112.296 120.503 111.547C120.503 110.8 121.108 110.193 121.852 110.193H125.361V92.6205C122.953 92.0141 121.166 89.8246 121.166 87.2228V61.9674C121.166 57.9701 124.405 54.7191 128.389 54.7191H142.27C142.905 51.3703 145.84 48.8259 149.361 48.8259H161.947C162.972 48.8259 163.946 49.0458 164.831 49.4323C165.018 47.601 165.895 45.9743 167.19 44.8027ZM45.5004 32.0525C45.8009 32.0525 46.1039 31.9515 46.3544 31.7461C49.968 28.7724 53.783 25.9717 57.6931 23.4193C58.3175 23.0142 58.4948 22.1733 58.0887 21.5468C57.6826 20.9193 56.8471 20.7415 56.2219 21.1514C52.2288 23.7572 48.3341 26.6153 44.6439 29.6521C44.0679 30.1259 43.9833 30.9788 44.4562 31.5577C44.7229 31.8827 45.1096 32.0525 45.5004 32.0525ZM10.1663 76.4761C10.3532 76.5659 10.5498 76.6071 10.744 76.6071C11.2483 76.6071 11.7326 76.3209 11.9638 75.835C13.966 71.6024 16.2284 67.4354 18.6882 63.447C19.0806 62.8115 18.8848 61.9779 18.2507 61.5842C17.6174 61.1888 16.7859 61.3853 16.3944 62.0232C13.8822 66.094 11.5714 70.3517 9.52655 74.6715C9.20669 75.3483 9.49271 76.156 10.1663 76.4761ZM69.2678 16.5461C69.4717 16.5461 69.6787 16.4984 69.8729 16.4006C74.044 14.2936 78.3755 12.4025 82.7472 10.775C83.4466 10.5163 83.8035 9.73604 83.5433 9.03668C83.2855 8.33489 82.5079 7.9751 81.8102 8.23787C77.345 9.89774 72.9201 11.8309 68.6603 13.9815C67.9948 14.3171 67.7265 15.132 68.0617 15.7982C68.2986 16.2728 68.7739 16.5461 69.2678 16.5461ZM1.1988 103.492C1.29791 103.514 1.39701 103.525 1.4953 103.525C2.11247 103.525 2.66921 103.098 2.81021 102.466C3.83345 97.8927 5.12419 93.3247 6.64778 88.8932C6.89029 88.1874 6.51645 87.4153 5.81226 87.1735C5.10808 86.9269 4.33944 87.3037 4.09692 88.0111C2.54111 92.5356 1.22217 97.2015 0.177173 101.875C0.0144212 102.603 0.471255 103.328 1.1988 103.492ZM24.8381 52.1109C25.0847 52.3057 25.378 52.3987 25.6688 52.3987C26.0701 52.3987 26.4665 52.2208 26.7323 51.8812C29.6103 48.1928 32.7252 44.6249 35.9931 41.2712C36.5136 40.7351 36.5039 39.8789 35.9713 39.3566C35.4388 38.8335 34.5847 38.844 34.0634 39.3776C30.7278 42.8009 27.5461 46.4456 24.6077 50.2109C24.1485 50.7986 24.2516 51.6492 24.8381 52.1109ZM95.8472 6.65885C95.9559 6.65885 96.0655 6.64591 96.1751 6.61923C100.7 5.48893 105.345 4.60119 109.978 3.98187C110.716 3.88323 111.234 3.20166 111.137 2.46106C111.038 1.71966 110.359 1.20221 109.621 1.29762C104.89 1.93068 100.147 2.83783 95.5233 3.99077C94.8014 4.17025 94.3598 4.90519 94.5395 5.63204C94.6918 6.24651 95.2429 6.65885 95.8472 6.65885ZM151.956 5.31106C156.537 6.22549 161.116 7.40995 165.565 8.82727C165.701 8.87093 165.839 8.89195 165.976 8.89195C166.547 8.89195 167.077 8.52327 167.261 7.94761C167.485 7.23612 167.093 6.47451 166.384 6.24651C161.837 4.79766 157.162 3.58894 152.482 2.65511C151.752 2.51038 151.04 2.98498 150.895 3.71911C150.749 4.45243 151.224 5.16391 151.956 5.31106ZM123.987 2.88715C128.644 2.77962 133.392 2.92677 138.039 3.32779C138.079 3.33021 138.118 3.33264 138.155 3.33264C138.848 3.33264 139.438 2.80064 139.498 2.09481C139.561 1.34936 139.013 0.695278 138.271 0.62898C133.527 0.221491 128.68 0.0678742 123.925 0.180257C123.181 0.196427 122.591 0.817363 122.607 1.56443C122.626 2.3123 123.263 2.92434 123.987 2.88715ZM253.568 107.641C252.834 107.763 252.338 108.463 252.46 109.2C253.397 114.772 253.966 120.478 254.157 126.16C254.182 126.89 254.78 127.468 255.505 127.468C255.521 127.468 255.535 127.466 255.552 127.466C256.297 127.441 256.881 126.816 256.856 126.066C256.66 120.267 256.076 114.441 255.123 108.751C254.999 108.014 254.304 107.517 253.568 107.641ZM251.101 91.8176C249.391 86.2914 247.29 80.8291 244.853 75.5803C244.54 74.9011 243.737 74.6077 243.061 74.9222C242.386 75.2391 242.094 76.0436 242.407 76.7211C244.791 81.8624 246.85 87.2107 248.525 92.6205C248.704 93.2002 249.239 93.5729 249.814 93.5729C249.946 93.5729 250.08 93.5543 250.214 93.513C250.926 93.2891 251.324 92.5315 251.101 91.8176ZM255.09 141.983C254.349 141.913 253.688 142.455 253.615 143.198C253.062 148.848 252.124 154.505 250.828 160.013C250.657 160.741 251.105 161.47 251.831 161.642C251.936 161.666 252.039 161.679 252.142 161.679C252.753 161.679 253.308 161.259 253.454 160.636C254.779 155.011 255.736 149.234 256.301 143.463C256.373 142.72 255.83 142.058 255.09 141.983ZM234.224 61.7871C234.482 62.1889 234.918 62.4105 235.364 62.4105C235.613 62.4105 235.865 62.3417 236.089 62.197C236.716 61.7936 236.9 60.9552 236.498 60.3261C233.39 55.4557 229.924 50.7453 226.193 46.326C225.712 45.7527 224.86 45.6824 224.292 46.1667C223.724 46.6486 223.652 47.504 224.134 48.0748C227.788 52.4027 231.182 57.0161 234.224 61.7871ZM122.685 258.177C118.036 258.021 113.356 257.61 108.775 256.952C108.035 256.844 107.354 257.359 107.247 258.098C107.142 258.839 107.653 259.526 108.392 259.632C113.071 260.302 117.851 260.725 122.597 260.882C122.611 260.882 122.628 260.882 122.642 260.882C123.366 260.882 123.966 260.306 123.989 259.574C124.014 258.827 123.43 258.199 122.685 258.177ZM201.427 234.123C197.663 236.854 193.709 239.401 189.677 241.697C189.029 242.065 188.802 242.892 189.169 243.541C189.417 243.982 189.874 244.228 190.342 244.228C190.57 244.228 190.798 244.172 191.009 244.053C195.126 241.707 199.162 239.105 203.007 236.318C203.612 235.879 203.748 235.035 203.31 234.428C202.875 233.822 202.032 233.687 201.427 234.123ZM18.4006 197.183C18.0114 196.545 17.1807 196.346 16.545 196.736C15.9101 197.126 15.7103 197.96 16.1003 198.598C18.5746 202.648 21.3019 206.61 24.2065 210.371C24.4723 210.715 24.8712 210.895 25.274 210.895C25.5625 210.895 25.8533 210.801 26.0991 210.611C26.688 210.154 26.796 209.303 26.3392 208.711C23.4942 205.028 20.8241 201.15 18.4006 197.183ZM150.493 256.07C145.943 256.924 141.284 257.533 136.65 257.883C135.907 257.939 135.35 258.589 135.406 259.334C135.459 260.046 136.049 260.586 136.748 260.586C136.783 260.586 136.818 260.586 136.851 260.584C141.585 260.226 146.341 259.603 150.99 258.731C151.723 258.595 152.205 257.887 152.068 257.152C151.931 256.417 151.228 255.937 150.493 256.07ZM35.4839 219.302C34.9666 218.766 34.1126 218.75 33.576 219.271C33.041 219.79 33.0265 220.647 33.5446 221.186C36.8399 224.605 40.3576 227.879 44.001 230.915C44.2532 231.125 44.5585 231.228 44.8631 231.228C45.2498 231.228 45.6341 231.061 45.9016 230.737C46.377 230.164 46.2988 229.31 45.7252 228.831C42.1575 225.857 38.7115 222.653 35.4839 219.302ZM69.0011 244.256C64.8743 242.132 60.8168 239.752 56.9414 237.185C56.3194 236.771 55.4831 236.945 55.0721 237.568C54.6612 238.193 54.8329 239.031 55.4549 239.443C59.4117 242.068 63.5554 244.496 67.77 246.664C67.9674 246.766 68.1777 246.814 68.3848 246.814C68.8746 246.814 69.3476 246.545 69.5861 246.076C69.9261 245.413 69.6642 244.594 69.0011 244.256ZM177.171 247.93C172.904 249.769 168.492 251.388 164.057 252.742C163.343 252.959 162.941 253.714 163.158 254.431C163.335 255.014 163.869 255.391 164.449 255.391C164.579 255.391 164.711 255.372 164.841 255.331C169.372 253.951 173.88 252.296 178.235 250.417C178.92 250.123 179.237 249.327 178.943 248.639C178.648 247.952 177.856 247.635 177.171 247.93ZM96.043 255.851C95.8858 256.461 95.3396 256.867 94.7369 256.867C94.6257 256.867 94.5121 256.852 94.3993 256.823C89.8117 255.633 85.2369 254.174 80.8039 252.483C80.1078 252.215 79.7573 251.435 80.0224 250.736C80.2874 250.037 81.0657 249.686 81.7627 249.952C86.103 251.607 90.5811 253.038 95.0737 254.2C95.7956 254.387 96.2307 255.126 96.043 255.851Z" fill="white"/>
</mask>
<g mask="url(#mask0_670_182)">
<mask id="mask1_670_182" style="mask-type:luminance" maskUnits="userSpaceOnUse" x="0" y="0" width="257" height="261">
<path d="M224.879 226.321C224.879 223.92 222.932 221.966 220.537 221.966C218.145 221.966 216.197 223.92 216.197 226.321V226.903C216.197 229.303 218.145 231.257 220.537 231.257C222.932 231.257 224.879 229.303 224.879 226.903V226.321ZM227.577 226.321V226.903C227.577 230.796 224.419 233.964 220.537 233.964C216.658 233.964 213.5 230.796 213.5 226.903V226.321C213.5 222.425 216.658 219.257 220.537 219.257C224.419 219.257 227.577 222.425 227.577 226.321ZM129.416 240.61L145.978 225.388L131.189 209.185L114.626 224.408C112.47 226.391 111.211 229.096 111.083 232.029C110.956 234.96 111.973 237.767 113.948 239.929C118.024 244.396 124.963 244.703 129.416 240.61ZM151.811 225.226L157.265 220.097C148.311 215.335 141.195 207.614 137.163 198.294L131.87 203.344C131.156 204 131.109 205.089 131.746 205.786L149.394 225.12C150.032 225.818 151.116 225.865 151.811 225.226ZM178.084 222.568C192.884 222.568 206.05 214.751 213.5 202.891V199.53C213.5 195.872 216.235 192.85 219.861 192.498C220.044 192.482 220.506 192.445 220.892 192.463L221.183 192.465C226.382 192.465 230.629 188.206 230.629 182.969C230.629 177.731 226.382 173.471 221.165 173.471C216.74 173.471 212.85 176.611 211.916 180.94C211.093 184.745 207.339 187.168 203.546 186.349C201.708 185.949 200.134 184.857 199.117 183.269C198.098 181.684 197.758 179.794 198.156 177.95C200.014 169.339 206.565 162.629 214.731 160.269C213.141 157.389 211.206 154.671 208.933 152.181C201.38 143.908 191.067 139.079 179.896 138.587C168.727 138.09 158.032 141.998 149.786 149.578C141.539 157.157 136.728 167.505 136.239 178.715C135.226 201.858 153.164 221.511 176.227 222.527C176.847 222.554 177.468 222.568 178.084 222.568ZM225.921 203.335C235.394 201.11 242.009 192.734 242.009 182.969C242.009 171.434 232.659 162.05 221.165 162.05C211.42 162.05 202.853 168.979 200.792 178.523C200.547 179.661 200.759 180.825 201.386 181.804C202.013 182.781 202.982 183.456 204.117 183.702C206.456 184.211 208.77 182.714 209.277 180.367C210.48 174.801 215.478 170.761 221.165 170.761C227.872 170.761 233.328 176.238 233.328 182.969C233.328 189.698 227.872 195.174 221.165 195.174L220.805 195.169C220.756 195.166 220.705 195.166 220.653 195.166C220.461 195.166 220.267 195.178 220.116 195.193C217.885 195.41 216.197 197.273 216.197 199.53V207.496C216.197 209.897 218.145 211.851 220.537 211.851C222.932 211.851 224.879 209.897 224.879 207.496V204.654C224.879 204.025 225.31 203.479 225.921 203.335ZM244.706 182.969C244.706 193.637 237.717 202.837 227.577 205.704V207.496C227.577 211.389 224.419 214.558 220.537 214.558C216.697 214.558 213.57 211.455 213.506 207.618C205.324 218.377 192.426 225.275 178.084 225.275C177.429 225.275 176.771 225.261 176.109 225.232C170.326 224.978 164.849 223.61 159.864 221.361L153.645 227.213C152.793 227.995 151.72 228.382 150.654 228.382C149.646 228.382 148.655 228.018 147.847 227.341L131.237 242.608C128.624 245.011 125.319 246.197 122.028 246.197C118.33 246.197 114.645 244.703 111.958 241.759C109.495 239.063 108.228 235.564 108.387 231.909C108.515 228.982 109.559 226.246 111.345 224C111.789 223.441 112.267 222.904 112.803 222.413L129.41 207.148C128.164 205.358 128.382 202.879 130.031 201.363L136.098 195.574C134.209 190.281 133.283 184.55 133.543 178.597C134.065 166.663 139.186 155.65 147.962 147.582C156.741 139.514 168.128 135.356 180.016 135.884C191.906 136.405 202.883 141.544 210.923 150.354C213.336 152.998 215.393 155.884 217.085 158.945C217.214 159.181 217.342 159.415 217.468 159.653C218.677 159.456 219.91 159.343 221.165 159.343C234.146 159.343 244.706 169.942 244.706 182.969ZM178.062 178.138C183.664 178.138 188.22 173.566 188.22 167.942C188.22 162.32 183.664 157.748 178.062 157.748C172.46 157.748 167.902 162.32 167.902 167.942C167.902 173.566 172.46 178.138 178.062 178.138ZM195.788 202.203C196.43 201.465 196.72 200.485 196.584 199.517L195.299 190.24C194.506 184.524 190.064 180.049 184.557 179.059C182.647 180.187 180.432 180.845 178.062 180.845C175.69 180.845 173.475 180.187 171.567 179.059C166.058 180.049 161.617 184.524 160.825 190.24L159.538 199.517C159.403 200.485 159.694 201.465 160.334 202.203C160.975 202.942 161.902 203.365 162.878 203.365H193.247C194.223 203.365 195.148 202.942 195.788 202.203ZM199.258 199.142C199.501 200.889 198.977 202.653 197.824 203.981C196.671 205.311 195.003 206.074 193.247 206.074H162.878C161.12 206.074 159.451 205.311 158.298 203.981C157.145 202.653 156.624 200.889 156.865 199.142L158.152 189.866C159 183.761 163.302 178.844 168.89 176.971C166.613 174.642 165.204 171.455 165.204 167.942C165.204 160.829 170.971 155.041 178.062 155.041C185.151 155.041 190.92 160.829 190.92 167.942C190.92 171.455 189.509 174.642 187.232 176.971C192.82 178.844 197.125 183.761 197.97 189.866L199.258 199.142ZM28.0191 80.0926C27.4921 79.5622 26.6373 79.5622 26.1111 80.0926C25.5842 80.6205 25.5842 81.4792 26.1111 82.0071L33.97 89.8925C34.2334 90.1577 34.5783 90.2903 34.9239 90.2903C35.2688 90.2903 35.6144 90.1577 35.8779 89.8925C36.4048 89.3654 36.4048 88.5059 35.8779 87.978L28.0191 80.0926ZM88.2687 80.0926C87.7426 79.5622 86.8894 79.5622 86.3608 80.0926L78.5028 87.978C77.9759 88.5059 77.9759 89.3654 78.5028 89.8925C78.7663 90.1577 79.1119 90.2903 79.4568 90.2903C79.8024 90.2903 80.1472 90.1577 80.4107 89.8925L88.2687 82.0071C88.7973 81.4792 88.7973 80.6205 88.2687 80.0926ZM56.7537 71.8094C56.0092 71.8094 55.4049 72.4158 55.4049 73.1628V81.9263C55.4049 82.6734 56.0092 83.2797 56.7537 83.2797C57.4989 83.2797 58.1032 82.6734 58.1032 81.9263V73.1628C58.1032 72.4158 57.4989 71.8094 56.7537 71.8094ZM12.618 106.46C12.618 107.208 13.2223 107.815 13.9668 107.815H22.699C23.4443 107.815 24.0485 107.208 24.0485 106.46C24.0485 105.712 23.4443 105.105 22.699 105.105H13.9668C13.2223 105.105 12.618 105.712 12.618 106.46ZM90.8083 107.815H99.5413C100.286 107.815 100.89 107.208 100.89 106.46C100.89 105.712 100.286 105.105 99.5413 105.105H90.8083C90.063 105.105 89.4588 105.712 89.4588 106.46C89.4588 107.208 90.063 107.815 90.8083 107.815ZM86.4438 142.865C86.0845 142.865 85.742 142.722 85.4883 142.468L73.2633 130.2C72.564 129.498 71.6447 129.147 70.7245 129.147C69.8052 129.147 68.8859 129.498 68.1866 130.2C67.5082 130.881 67.1343 131.785 67.1343 132.748C67.1343 133.711 67.5082 134.614 68.1866 135.296L85.6494 152.82C85.9032 153.073 86.0458 153.419 86.0458 153.777V175.684C86.0458 178.318 88.1825 180.463 90.8083 180.463H101.876C101.203 179.475 100.812 178.281 100.812 176.997V153.777C100.812 153.03 101.416 152.424 102.161 152.424C102.905 152.424 103.509 153.03 103.509 153.777V176.997C103.509 178.908 105.059 180.463 106.962 180.463C108.866 180.463 110.417 178.908 110.417 176.997V147.644C110.417 145.007 108.28 142.865 105.653 142.865H86.4438ZM40.4261 144.036L43.8495 158.558H55.471C55.4315 158.43 55.4049 158.299 55.4049 158.158V122.709H43.6561C42.9109 122.709 42.3066 122.105 42.3066 121.356C42.3066 120.609 42.9109 120.002 43.6561 120.002H68.9786C69.7239 120.002 70.3281 120.609 70.3281 121.356C70.3281 122.105 69.7239 122.709 68.9786 122.709H58.1032V158.158C58.1032 158.299 58.0758 158.43 58.0371 158.558H68.7828L72.3537 143.306L66.2787 137.211C65.0903 136.018 64.436 134.433 64.436 132.748C64.436 131.063 65.0903 129.477 66.2779 128.285C68.7296 125.824 72.7195 125.824 75.1712 128.285L76.7923 129.912L79.7251 121.221C81.8529 114.917 81.3002 107.927 78.2103 102.04C75.1857 96.2782 70.1315 92.1491 63.9792 90.41C61.6394 89.7478 59.2086 89.4123 56.7537 89.4123C53.103 89.4123 49.5668 90.1416 46.2433 91.5775C35.2398 96.3339 29.6707 108.812 33.2908 120.606L36.2807 130.349L38.3361 128.285C40.7878 125.824 44.7777 125.824 47.2294 128.285C48.417 129.477 49.0713 131.063 49.0713 132.748C49.0713 134.433 48.417 136.018 47.2294 137.211L40.4261 144.036ZM45.3215 135.296C45.9999 134.614 46.373 133.711 46.373 132.748C46.373 131.785 45.9999 130.881 45.3215 130.2C43.9212 128.795 41.6435 128.795 40.244 130.2L28.0191 142.468C27.7661 142.722 27.4228 142.865 27.0651 142.865H7.85472C5.22813 142.865 3.0914 145.007 3.0914 147.644V176.997C3.0914 178.908 4.64077 180.463 6.54465 180.463C8.44933 180.463 9.99789 178.908 9.99789 176.997V153.777C9.99789 153.03 10.6022 152.424 11.3474 152.424C12.0927 152.424 12.6962 153.03 12.6962 153.777V176.997C12.6962 178.281 12.303 179.475 11.6319 180.463H22.699C25.3256 180.463 27.4623 178.318 27.4623 175.684V153.777C27.4623 153.419 27.6041 153.073 27.8571 152.82L45.3215 135.296ZM50.2049 180.463H63.3024C65.929 180.463 68.0657 178.318 68.0657 175.684V161.265H45.4416V175.684C45.4416 178.318 47.5783 180.463 50.2049 180.463ZM50.2049 183.172C49.537 183.172 48.8924 183.075 48.276 182.909C45.0951 182.052 42.7433 179.142 42.7433 175.684V161.259C42.135 161.24 41.6105 160.82 41.4695 160.222L38.1838 146.286L34.5388 149.945L30.1606 154.338V175.684C30.1606 179.813 26.8129 183.172 22.699 183.172H6.54465C3.15264 183.172 0.393102 180.403 0.393102 176.997V147.644C0.393102 143.515 3.7408 140.155 7.85472 140.155H26.5059L32.6253 134.016L34.1214 132.514L32.6059 127.576L30.7117 121.403C27.1763 109.885 31.5432 97.7707 40.9699 91.3972C42.2776 90.5135 43.6811 89.7373 45.1765 89.0921C48.8384 87.5082 52.734 86.7054 56.7537 86.7054C59.456 86.7054 62.1333 87.0757 64.71 87.8042C71.5826 89.7462 77.2242 94.3531 80.5976 100.778C84.0299 107.318 84.6447 115.087 82.2815 122.088L78.9202 132.048L87.0022 140.155H105.653C109.767 140.155 113.115 143.515 113.115 147.644V176.997C113.115 180.403 110.355 183.172 106.962 183.172H90.8083C86.6952 183.172 83.3475 179.813 83.3475 175.684V154.338L74.5984 145.56L71.1653 160.22C71.1024 160.489 70.9534 160.712 70.764 160.889V175.684C70.764 179.813 67.4171 183.172 63.3024 183.172H50.2049ZM17.4603 115.701C12.4263 115.701 8.33089 119.81 8.33089 124.862C8.33089 129.912 12.4263 134.023 17.4603 134.023C22.4935 134.023 26.5889 129.912 26.5889 124.862C26.5889 119.81 22.4935 115.701 17.4603 115.701ZM5.63259 124.862C5.63259 118.317 10.9381 112.992 17.4603 112.992C23.9817 112.992 29.2872 118.317 29.2872 124.862C29.2872 131.406 23.9817 136.73 17.4603 136.73C10.9381 136.73 5.63259 131.406 5.63259 124.862ZM105.176 124.862C105.176 119.81 101.082 115.701 96.047 115.701C91.0146 115.701 86.9176 119.81 86.9176 124.862C86.9176 129.912 91.0146 134.023 96.047 134.023C101.082 134.023 105.176 129.912 105.176 124.862ZM107.876 124.862C107.876 131.406 102.569 136.73 96.047 136.73C89.5248 136.73 84.2201 131.406 84.2201 124.862C84.2201 118.317 89.5248 112.992 96.047 112.992C102.569 112.992 107.876 118.317 107.876 124.862ZM177.048 20.3833C173.722 20.3833 170.68 22.31 169.222 25.3007C168.657 26.4601 168.329 27.7577 168.329 29.1346C168.329 32.7131 170.486 35.7951 173.561 37.1461C173.687 37.2019 173.815 37.2496 173.941 37.2973C174.046 37.3386 174.151 37.3782 174.259 37.4138L174.25 37.4194C175.145 37.7258 176.082 37.8811 177.048 37.8811C181.855 37.8811 185.766 33.9566 185.766 29.1346C185.766 24.3094 181.855 20.3833 177.048 20.3833ZM156.073 42.9335C160.88 42.9335 164.791 39.009 164.791 34.1846C164.791 29.3602 160.88 25.4357 156.073 25.4357C151.267 25.4357 147.357 29.3602 147.357 34.1846C147.357 39.009 151.267 42.9335 156.073 42.9335ZM135.1 31.3281C130.293 31.3281 126.382 35.2526 126.382 40.077C126.382 44.9022 130.293 48.8259 135.1 48.8259C139.906 48.8259 143.819 44.9022 143.819 40.077C143.819 35.2526 139.906 31.3281 135.1 31.3281ZM123.682 40.077C123.682 38.5764 123.981 37.1445 124.504 35.8299C126.192 31.6119 130.301 28.6212 135.1 28.6212C139.11 28.6212 142.637 30.7112 144.673 33.8571C144.848 27.6914 149.889 22.728 156.073 22.728C160.109 22.728 163.657 24.8479 165.686 28.0294C165.806 26.773 166.134 25.5804 166.627 24.4752C166.642 24.4356 166.65 24.3968 166.666 24.3596C166.926 23.792 167.232 23.2584 167.572 22.7531C167.584 22.732 167.601 22.7118 167.613 22.6908C167.796 22.424 167.991 22.1653 168.193 21.9146C168.223 21.8774 168.252 21.8402 168.283 21.8055C168.721 21.2791 169.201 20.7948 169.721 20.3582C169.789 20.3 169.861 20.2467 169.932 20.1885C170.115 20.0413 170.305 19.9006 170.496 19.764C170.591 19.6985 170.687 19.6298 170.786 19.5659C171 19.4228 171.221 19.2886 171.445 19.1616C171.592 19.0792 171.738 19.0024 171.887 18.9264C172.064 18.8374 172.239 18.7501 172.421 18.6693C172.563 18.6054 172.706 18.5472 172.852 18.489C173.019 18.4211 173.188 18.3612 173.359 18.3014C173.495 18.2553 173.631 18.206 173.772 18.1623C174.061 18.075 174.353 17.999 174.651 17.9343C174.762 17.9117 174.878 17.8931 174.991 17.8729C175.222 17.8292 175.455 17.7936 175.692 17.7645C175.801 17.7524 175.911 17.7379 176.02 17.7298C176.36 17.6966 176.703 17.6756 177.048 17.6756C183.342 17.6756 188.464 22.8153 188.464 29.1346C188.464 35.4515 183.342 40.5904 177.048 40.5904C176.645 40.5904 176.247 40.5678 175.855 40.5265C175.679 40.5079 175.506 40.4724 175.331 40.4457C175.121 40.415 174.906 40.3875 174.698 40.3422C174.502 40.3026 174.312 40.2452 174.119 40.1934C173.935 40.1433 173.747 40.0996 173.568 40.0422C173.378 39.98 173.192 39.9056 173.005 39.8353C172.827 39.7665 172.648 39.7002 172.474 39.6242C172.415 39.5967 172.351 39.5781 172.289 39.549C172.235 39.5248 172.186 39.4916 172.136 39.4601C170.208 38.5336 168.58 37.0847 167.436 35.2874C167.134 38.4155 165.579 41.1766 163.281 43.0596C161.314 44.6701 158.806 45.6412 156.073 45.6412C152.063 45.6412 148.536 43.5504 146.5 40.4044C146.325 46.5701 141.284 51.5336 135.1 51.5336C128.805 51.5336 123.682 46.3939 123.682 40.077ZM189.961 74.2657H168.329V110.193H189.961V74.2657ZM146.517 110.193H165.631V84.3688H146.517V110.193ZM144.947 55.1015C147.806 56.0685 149.873 58.7778 149.873 61.9674V81.6595H165.631V72.9106C165.631 72.3454 165.977 71.8611 166.47 71.6582V56.075C166.47 53.5702 164.441 51.5336 161.947 51.5336H149.361C147.199 51.5336 145.392 53.0649 144.947 55.1015ZM128.058 110.193H143.819V83.0129C143.819 82.2659 144.421 81.6595 145.167 81.6595H147.173V61.9674C147.173 59.4651 145.145 57.4284 142.65 57.4284H128.389C125.893 57.4284 123.863 59.4651 123.863 61.9674V87.2228C123.863 88.7978 125.14 90.0793 126.71 90.0793C128.279 90.0793 129.556 88.7978 129.556 87.2228V71.2273C129.556 70.4802 130.16 69.8738 130.905 69.8738C131.649 69.8738 132.254 70.4802 132.254 71.2273V87.2228C132.254 89.8222 130.466 92.006 128.058 92.6124V110.193ZM192.659 62.4784V110.193H211.773V62.4784H192.659ZM167.491 50.1801V51.4366C168.537 52.6946 169.169 54.3108 169.169 56.075V71.5563H184.927V55.2325C184.927 54.8598 185.081 54.5016 185.35 54.2469L202.434 38.063C203.003 37.4922 203.318 36.695 203.294 35.8485C203.269 35.002 202.906 34.2258 202.277 33.6631C201.077 32.595 199.249 32.6484 198.115 33.7852L186.378 45.2579C186.127 45.5021 185.789 45.6412 185.438 45.6412H172.014C169.519 45.6412 167.491 47.6778 167.491 50.1801ZM167.19 44.8027C168.471 43.6458 170.158 42.9335 172.014 42.9335H184.889L196.219 31.8585C198.35 29.7224 201.803 29.6189 204.069 31.6386C205.243 32.688 205.944 34.1927 205.99 35.7701C206.038 37.3475 205.424 38.8893 204.313 40.005L187.626 55.8163V71.5563H189.961V61.1249C189.961 60.7918 190.085 60.4895 190.285 60.2534C190.533 59.9599 190.898 59.7715 191.31 59.7715H211.773V19.1164L208.356 24.0159C207.929 24.628 207.087 24.7792 206.477 24.3491C205.866 23.9205 205.718 23.0756 206.145 22.4636L212.019 14.0454C212.025 14.0349 212.033 14.0292 212.042 14.0203C212.099 13.9419 212.163 13.8716 212.235 13.8077C212.237 13.8077 212.237 13.8077 212.239 13.8053C212.477 13.5983 212.784 13.4657 213.125 13.4657C213.463 13.4657 213.77 13.5983 214.007 13.8053C214.009 13.8077 214.009 13.8077 214.011 13.8077C214.083 13.8716 214.149 13.9419 214.205 14.0203C214.213 14.0292 214.222 14.0349 214.228 14.0454L220.102 22.4636C220.529 23.0756 220.381 23.9205 219.77 24.3491C219.535 24.5148 219.265 24.5932 218.996 24.5932C218.572 24.5932 218.153 24.3927 217.891 24.0159L214.473 19.1164V111.547C214.473 112.296 213.869 112.9 213.125 112.9H121.852C121.108 112.9 120.503 112.296 120.503 111.547C120.503 110.8 121.108 110.193 121.852 110.193H125.361V92.6205C122.953 92.0141 121.166 89.8246 121.166 87.2228V61.9674C121.166 57.9701 124.405 54.7191 128.389 54.7191H142.27C142.905 51.3703 145.84 48.8259 149.361 48.8259H161.947C162.972 48.8259 163.946 49.0458 164.831 49.4323C165.018 47.601 165.895 45.9743 167.19 44.8027ZM45.5004 32.0525C45.8009 32.0525 46.1039 31.9515 46.3544 31.7461C49.968 28.7724 53.783 25.9717 57.6931 23.4193C58.3175 23.0142 58.4948 22.1733 58.0887 21.5468C57.6826 20.9193 56.8471 20.7415 56.2219 21.1514C52.2288 23.7572 48.3341 26.6153 44.6439 29.6521C44.0679 30.1259 43.9833 30.9788 44.4562 31.5577C44.7229 31.8827 45.1096 32.0525 45.5004 32.0525ZM10.1663 76.4761C10.3532 76.5659 10.5498 76.6071 10.744 76.6071C11.2483 76.6071 11.7326 76.3209 11.9638 75.835C13.966 71.6024 16.2284 67.4354 18.6882 63.447C19.0806 62.8115 18.8848 61.9779 18.2507 61.5842C17.6174 61.1888 16.7859 61.3853 16.3944 62.0232C13.8822 66.094 11.5714 70.3517 9.52655 74.6715C9.20669 75.3483 9.49271 76.156 10.1663 76.4761ZM69.2678 16.5461C69.4717 16.5461 69.6787 16.4984 69.8729 16.4006C74.044 14.2936 78.3755 12.4025 82.7472 10.775C83.4466 10.5163 83.8035 9.73604 83.5433 9.03668C83.2855 8.33489 82.5079 7.9751 81.8102 8.23787C77.345 9.89774 72.9201 11.8309 68.6603 13.9815C67.9948 14.3171 67.7265 15.132 68.0617 15.7982C68.2986 16.2728 68.7739 16.5461 69.2678 16.5461ZM1.1988 103.492C1.29791 103.514 1.39701 103.525 1.4953 103.525C2.11247 103.525 2.66921 103.098 2.81021 102.466C3.83345 97.8927 5.12419 93.3247 6.64778 88.8932C6.89029 88.1874 6.51645 87.4153 5.81226 87.1735C5.10808 86.9269 4.33944 87.3037 4.09692 88.0111C2.54111 92.5356 1.22217 97.2015 0.177173 101.875C0.0144212 102.603 0.471255 103.328 1.1988 103.492ZM24.8381 52.1109C25.0847 52.3057 25.378 52.3987 25.6688 52.3987C26.0701 52.3987 26.4665 52.2208 26.7323 51.8812C29.6103 48.1928 32.7252 44.6249 35.9931 41.2712C36.5136 40.7351 36.5039 39.8789 35.9713 39.3566C35.4388 38.8335 34.5847 38.844 34.0634 39.3776C30.7278 42.8009 27.5461 46.4456 24.6077 50.2109C24.1485 50.7986 24.2516 51.6492 24.8381 52.1109ZM95.8472 6.65885C95.9559 6.65885 96.0655 6.64591 96.1751 6.61923C100.7 5.48893 105.345 4.60119 109.978 3.98187C110.716 3.88323 111.234 3.20166 111.137 2.46106C111.038 1.71966 110.359 1.20221 109.621 1.29762C104.89 1.93068 100.147 2.83783 95.5233 3.99077C94.8014 4.17025 94.3598 4.90519 94.5395 5.63204C94.6918 6.24651 95.2429 6.65885 95.8472 6.65885ZM151.956 5.31106C156.537 6.22549 161.116 7.40995 165.565 8.82727C165.701 8.87093 165.839 8.89195 165.976 8.89195C166.547 8.89195 167.077 8.52327 167.261 7.94761C167.485 7.23612 167.093 6.47451 166.384 6.24651C161.837 4.79766 157.162 3.58894 152.482 2.65511C151.752 2.51038 151.04 2.98498 150.895 3.71911C150.749 4.45243 151.224 5.16391 151.956 5.31106ZM123.987 2.88715C128.644 2.77962 133.392 2.92677 138.039 3.32779C138.079 3.33021 138.118 3.33264 138.155 3.33264C138.848 3.33264 139.438 2.80064 139.498 2.09481C139.561 1.34936 139.013 0.695278 138.271 0.62898C133.527 0.221491 128.68 0.0678742 123.925 0.180257C123.181 0.196427 122.591 0.817363 122.607 1.56443C122.626 2.3123 123.263 2.92434 123.987 2.88715ZM253.568 107.641C252.834 107.763 252.338 108.463 252.46 109.2C253.397 114.772 253.966 120.478 254.157 126.16C254.182 126.89 254.78 127.468 255.505 127.468C255.521 127.468 255.535 127.466 255.552 127.466C256.297 127.441 256.881 126.816 256.856 126.066C256.66 120.267 256.076 114.441 255.123 108.751C254.999 108.014 254.304 107.517 253.568 107.641ZM251.101 91.8176C249.391 86.2914 247.29 80.8291 244.853 75.5803C244.54 74.9011 243.737 74.6077 243.061 74.9222C242.386 75.2391 242.094 76.0436 242.407 76.7211C244.791 81.8624 246.85 87.2107 248.525 92.6205C248.704 93.2002 249.239 93.5729 249.814 93.5729C249.946 93.5729 250.08 93.5543 250.214 93.513C250.926 93.2891 251.324 92.5315 251.101 91.8176ZM255.09 141.983C254.349 141.913 253.688 142.455 253.615 143.198C253.062 148.848 252.124 154.505 250.828 160.013C250.657 160.741 251.105 161.47 251.831 161.642C251.936 161.666 252.039 161.679 252.142 161.679C252.753 161.679 253.308 161.259 253.454 160.636C254.779 155.011 255.736 149.234 256.301 143.463C256.373 142.72 255.83 142.058 255.09 141.983ZM234.224 61.7871C234.482 62.1889 234.918 62.4105 235.364 62.4105C235.613 62.4105 235.865 62.3417 236.089 62.197C236.716 61.7936 236.9 60.9552 236.498 60.3261C233.39 55.4557 229.924 50.7453 226.193 46.326C225.712 45.7527 224.86 45.6824 224.292 46.1667C223.724 46.6486 223.652 47.504 224.134 48.0748C227.788 52.4027 231.182 57.0161 234.224 61.7871ZM122.685 258.177C118.036 258.021 113.356 257.61 108.775 256.952C108.035 256.844 107.354 257.359 107.247 258.098C107.142 258.839 107.653 259.526 108.392 259.632C113.071 260.302 117.851 260.725 122.597 260.882C122.611 260.882 122.628 260.882 122.642 260.882C123.366 260.882 123.966 260.306 123.989 259.574C124.014 258.827 123.43 258.199 122.685 258.177ZM201.427 234.123C197.663 236.854 193.709 239.401 189.677 241.697C189.029 242.065 188.802 242.892 189.169 243.541C189.417 243.982 189.874 244.228 190.342 244.228C190.57 244.228 190.798 244.172 191.009 244.053C195.126 241.707 199.162 239.105 203.007 236.318C203.612 235.879 203.748 235.035 203.31 234.428C202.875 233.822 202.032 233.687 201.427 234.123ZM18.4006 197.183C18.0114 196.545 17.1807 196.346 16.545 196.736C15.9101 197.126 15.7103 197.96 16.1003 198.598C18.5746 202.648 21.3019 206.61 24.2065 210.371C24.4723 210.715 24.8712 210.895 25.274 210.895C25.5625 210.895 25.8533 210.801 26.0991 210.611C26.688 210.154 26.796 209.303 26.3392 208.711C23.4942 205.028 20.8241 201.15 18.4006 197.183ZM150.493 256.07C145.943 256.924 141.284 257.533 136.65 257.883C135.907 257.939 135.35 258.589 135.406 259.334C135.459 260.046 136.049 260.586 136.748 260.586C136.783 260.586 136.818 260.586 136.851 260.584C141.585 260.226 146.341 259.603 150.99 258.731C151.723 258.595 152.205 257.887 152.068 257.152C151.931 256.417 151.228 255.937 150.493 256.07ZM35.4839 219.302C34.9666 218.766 34.1126 218.75 33.576 219.271C33.041 219.79 33.0265 220.647 33.5446 221.186C36.8399 224.605 40.3576 227.879 44.001 230.915C44.2532 231.125 44.5585 231.228 44.8631 231.228C45.2498 231.228 45.6341 231.061 45.9016 230.737C46.377 230.164 46.2988 229.31 45.7252 228.831C42.1575 225.857 38.7115 222.653 35.4839 219.302ZM69.0011 244.256C64.8743 242.132 60.8168 239.752 56.9414 237.185C56.3194 236.771 55.4831 236.945 55.0721 237.568C54.6612 238.193 54.8329 239.031 55.4549 239.443C59.4117 242.068 63.5554 244.496 67.77 246.664C67.9674 246.766 68.1777 246.814 68.3848 246.814C68.8746 246.814 69.3476 246.545 69.5861 246.076C69.9261 245.413 69.6642 244.594 69.0011 244.256ZM177.171 247.93C172.904 249.769 168.492 251.388 164.057 252.742C163.343 252.959 162.941 253.714 163.158 254.431C163.335 255.014 163.869 255.391 164.449 255.391C164.579 255.391 164.711 255.372 164.841 255.331C169.372 253.951 173.88 252.296 178.235 250.417C178.92 250.123 179.237 249.327 178.943 248.639C178.648 247.952 177.856 247.635 177.171 247.93ZM96.043 255.851C95.8858 256.461 95.3396 256.867 94.7369 256.867C94.6257 256.867 94.5121 256.852 94.3993 256.823C89.8117 255.633 85.2369 254.174 80.8039 252.483C80.1078 252.215 79.7573 251.435 80.0224 250.736C80.2874 250.037 81.0657 249.686 81.7627 249.952C86.103 251.607 90.5811 253.038 95.0737 254.2C95.7956 254.387 96.2307 255.126 96.043 255.851Z" fill="white"/>
</mask>
<g mask="url(#mask1_670_182)">
<path d="M128.448 -128.812L-129.94 130.475L128.448 389.762L386.834 130.475L128.448 -128.812Z" fill="black"/>
</g>
</g>
</svg>
