<svg width="269" height="261" viewBox="0 0 269 261" fill="none" xmlns="http://www.w3.org/2000/svg">
<mask id="mask0_670_192" style="mask-type:luminance" maskUnits="userSpaceOnUse" x="0" y="0" width="269" height="261">
<path d="M191.79 196.05C191.79 200.215 195.179 203.603 199.343 203.603C203.508 203.603 206.896 200.215 206.896 196.05C206.896 191.886 203.508 188.497 199.343 188.497C195.179 188.497 191.79 191.886 191.79 196.05ZM189.118 196.05C189.118 190.412 193.705 185.825 199.343 185.825C204.982 185.825 209.569 190.412 209.569 196.05C209.569 201.689 204.982 206.277 199.343 206.277C193.705 206.277 189.118 201.689 189.118 196.05ZM180.806 202.825C181.205 203.916 181.686 204.956 182.243 205.923C182.802 206.89 183.461 207.827 184.208 208.717L188.278 207.156C188.737 206.979 189.256 207.069 189.627 207.39C191.03 208.591 192.629 209.515 194.382 210.132C194.845 210.295 195.18 210.699 195.258 211.183L195.943 215.492C198.232 215.896 200.455 215.896 202.744 215.492L203.429 211.183C203.506 210.699 203.841 210.295 204.305 210.132C206.059 209.515 207.659 208.591 209.059 207.39C209.433 207.069 209.949 206.979 210.409 207.156L214.48 208.716C215.226 207.827 215.884 206.89 216.443 205.923C217.002 204.957 217.484 203.916 217.88 202.825L214.496 200.083C214.114 199.774 213.933 199.283 214.022 198.798C214.202 197.843 214.287 196.945 214.287 196.05C214.287 195.158 214.202 194.257 214.022 193.302C213.933 192.82 214.114 192.327 214.496 192.018L217.88 189.276C217.484 188.184 217.002 187.143 216.443 186.178C215.884 185.211 215.226 184.274 214.48 183.386L210.409 184.947C209.949 185.121 209.433 185.031 209.059 184.713C207.659 183.512 206.059 182.588 204.305 181.969C203.841 181.806 203.506 181.404 203.429 180.918L202.744 176.611C200.455 176.206 198.232 176.206 195.943 176.611L195.258 180.918C195.18 181.404 194.845 181.806 194.382 181.969C192.628 182.588 191.028 183.512 189.627 184.713C189.256 185.031 188.737 185.121 188.278 184.947L184.208 183.386C183.461 184.274 182.802 185.211 182.243 186.178C181.686 187.143 181.205 188.182 180.806 189.276L184.193 192.018C184.573 192.327 184.753 192.82 184.664 193.302C184.487 194.257 184.4 195.158 184.4 196.05C184.4 196.945 184.487 197.843 184.664 198.798C184.753 199.283 184.573 199.774 184.193 200.083L180.806 202.825ZM178.4 201.333L181.904 198.493C181.786 197.662 181.725 196.843 181.725 196.05C181.725 195.258 181.786 194.438 181.904 193.607L178.4 190.768C177.973 190.42 177.802 189.849 177.967 189.327C178.469 187.733 179.129 186.225 179.928 184.841C180.727 183.456 181.704 182.131 182.831 180.9C183.203 180.495 183.784 180.357 184.296 180.554L188.512 182.172C189.798 181.164 191.215 180.349 192.74 179.733L193.447 175.271C193.535 174.729 193.943 174.294 194.479 174.176C197.739 173.452 200.947 173.452 204.207 174.176C204.744 174.294 205.153 174.729 205.24 175.271L205.948 179.733C207.472 180.349 208.888 181.164 210.175 182.172L214.391 180.554C214.903 180.357 215.484 180.495 215.856 180.9C216.982 182.131 217.96 183.456 218.758 184.841C219.557 186.225 220.218 187.733 220.72 189.327C220.885 189.849 220.714 190.42 220.287 190.768L216.783 193.607C216.9 194.438 216.962 195.258 216.962 196.05C216.962 196.843 216.9 197.662 216.783 198.493L220.287 201.333C220.714 201.68 220.885 202.252 220.72 202.774C220.218 204.368 219.557 205.876 218.758 207.26C217.96 208.644 216.984 209.969 215.856 211.201C215.484 211.606 214.903 211.744 214.391 211.547L210.175 209.931C208.888 210.937 207.472 211.754 205.948 212.368L205.24 216.829C205.153 217.372 204.744 217.807 204.207 217.925C202.577 218.287 200.941 218.47 199.343 218.47C197.746 218.47 196.109 218.287 194.479 217.925C193.943 217.807 193.535 217.372 193.447 216.829L192.74 212.368C191.217 211.754 189.8 210.937 188.512 209.931L184.296 211.547C183.784 211.744 183.203 211.606 182.831 211.201C181.704 209.969 180.727 208.644 179.928 207.26C179.129 205.876 178.469 204.366 177.967 202.774C177.802 202.252 177.973 201.68 178.4 201.333ZM157.243 184.304C157.243 185.452 158.177 186.388 159.326 186.388C160.477 186.388 161.411 185.452 161.411 184.304C161.411 183.156 160.477 182.221 159.326 182.221C158.177 182.221 157.243 183.156 157.243 184.304ZM154.569 184.304C154.569 181.68 156.704 179.546 159.326 179.546C161.483 179.546 163.287 180.997 163.868 182.967H176.499C177.237 182.967 177.834 183.567 177.834 184.304C177.834 185.042 177.237 185.641 176.499 185.641H163.868C163.287 187.611 161.483 189.062 159.326 189.062C156.704 189.062 154.569 186.928 154.569 184.304ZM148.496 196.705C147.159 196.705 146.071 197.792 146.071 199.13C146.071 200.467 147.159 201.556 148.496 201.556C149.834 201.556 150.923 200.467 150.923 199.13C150.923 197.792 149.834 196.705 148.496 196.705ZM143.397 199.13C143.397 196.319 145.683 194.03 148.496 194.03C150.923 194.03 152.956 195.735 153.468 198.01H162.44V194.38C162.44 193.642 163.04 193.044 163.777 193.044H174.643C175.383 193.044 175.981 193.642 175.981 194.38C175.981 195.12 175.383 195.717 174.643 195.717H165.115V199.348C165.115 200.087 164.516 200.685 163.777 200.685H153.352C152.694 202.738 150.767 204.23 148.496 204.23C145.683 204.23 143.397 201.943 143.397 199.13ZM165.054 211.49C166.202 211.49 167.137 210.555 167.137 209.407C167.137 208.258 166.202 207.323 165.054 207.323C163.903 207.323 162.968 208.258 162.968 209.407C162.968 210.555 163.903 211.49 165.054 211.49ZM165.054 214.165C162.43 214.165 160.296 212.031 160.296 209.407C160.296 206.782 162.43 204.648 165.054 204.648C167.209 204.648 169.013 206.1 169.597 208.069H176.499C177.237 208.069 177.834 208.669 177.834 209.407C177.834 210.147 177.237 210.744 176.499 210.744H169.597C169.013 212.713 167.209 214.165 165.054 214.165ZM140.112 218.941C140.112 220.984 141.774 222.647 143.82 222.647H222.801C224.844 222.647 226.507 220.984 226.507 218.941V173.161C226.507 171.117 224.844 169.454 222.801 169.454H143.82C141.774 169.454 140.112 171.117 140.112 173.161V218.941ZM137.439 173.161C137.439 169.643 140.301 166.781 143.82 166.781H222.801C226.319 166.781 229.182 169.643 229.182 173.161V218.941C229.182 222.46 226.319 225.322 222.801 225.322H143.82C140.301 225.322 137.439 222.46 137.439 218.941V173.161ZM242.611 235.704H126.077V236.901C126.077 239.401 128.112 241.436 130.612 241.436H238.147C240.609 241.436 242.611 239.432 242.611 236.97V235.704ZM137.636 160.875C134.039 160.875 131.111 163.804 131.111 167.401V233.029H235.507V167.401C235.507 163.804 232.58 160.875 228.982 160.875H137.636ZM228.982 158.201C229.239 158.201 229.493 158.218 229.745 158.24C234.46 158.629 238.182 162.586 238.182 167.401V233.029H243.81C244.623 233.029 245.286 233.692 245.286 234.505V236.97C245.286 240.908 242.082 244.11 238.147 244.11H130.612C126.638 244.11 123.404 240.877 123.404 236.901V234.436C123.404 233.661 124.035 233.029 124.809 233.029H128.437V167.401C128.437 162.328 132.565 158.201 137.636 158.201H228.982ZM38.228 80.7323V135.163C39.8628 136.169 41.4023 137.367 42.8021 138.768C47.4937 143.46 50.082 149.703 50.0884 156.346C50.0884 159.33 49.5628 162.232 48.5632 164.95L55.1 171.487H103.533V80.7323H38.228ZM103.529 174.162H57.7741L68.6484 185.036H92.3446C98.4098 185.036 103.363 180.186 103.529 174.162ZM38.2327 78.0574H103.529C103.363 72.0327 98.4098 67.1831 92.3446 67.1831H49.4183C43.3531 67.1831 38.4003 72.0327 38.2327 78.0574ZM3.98377 149.873C3.3462 151.956 3.02226 154.127 3.0175 156.35C3.02385 162.277 5.33511 167.852 9.52652 172.044C13.7139 176.231 19.2861 178.54 25.2171 178.546C31.1473 178.546 36.7218 176.239 40.9116 172.05C45.1046 167.856 47.4143 162.279 47.4143 156.348C47.4079 150.419 45.099 144.846 40.9116 140.658C35.0537 134.801 26.5391 132.73 18.7351 135.122L32.7289 149.116C33.6666 150.053 34.1827 151.301 34.1827 152.626C34.1827 153.954 33.6666 155.199 32.7289 156.139L25.0003 163.866C23.0646 165.804 19.9141 165.804 17.9776 163.866L3.98377 149.873ZM68.8159 207.711C70.8882 207.711 72.8358 206.905 74.3007 205.439C77.325 202.415 77.325 197.494 74.3007 194.469L47.4135 167.582C46.2376 169.901 44.6941 172.048 42.8021 173.94C40.91 175.832 38.7631 177.375 36.4431 178.55L63.3311 205.439C64.796 206.905 66.7444 207.711 68.8159 207.711ZM78.7922 202.983C78.3119 204.575 77.4472 206.075 76.192 207.329C74.2213 209.301 71.602 210.384 68.8159 210.384C66.0299 210.384 63.4105 209.301 61.4407 207.329L33.8103 179.701C31.0949 180.696 28.1969 181.22 25.2163 181.22C18.5707 181.215 12.3277 178.625 7.63526 173.934C2.93969 169.238 0.35053 162.992 0.343384 156.35C0.35053 153.075 0.974595 149.907 2.20049 146.927C2.37041 146.512 2.73643 146.212 3.1747 146.124C3.61298 146.037 4.06634 146.175 4.38234 146.49L19.8681 161.976C20.7343 162.842 22.2436 162.842 23.1091 161.976L30.8376 154.248C31.2712 153.813 31.5093 153.238 31.5093 152.626C31.5093 152.015 31.2712 151.439 30.8376 151.006L15.3519 135.52C15.0359 135.203 14.8978 134.75 14.9867 134.311C15.074 133.874 15.3765 133.508 15.7902 133.337C22.2889 130.674 29.4204 130.923 35.5539 133.733V76.6767C35.5539 76.4004 35.6388 76.1423 35.7833 75.9288C36.9425 69.4475 42.6083 64.5082 49.4183 64.5082H92.3446C99.1538 64.5082 104.82 69.4475 105.979 75.9288C106.123 76.1423 106.208 76.4004 106.208 76.6767V175.542C106.208 175.821 106.123 176.076 105.979 176.29C104.82 182.772 99.1538 187.711 92.3446 187.711H71.3225L76.1912 192.579C79.0026 195.39 79.8681 199.421 78.7922 202.983ZM64.3657 121.258C64.3657 119.776 63.1596 118.568 61.6773 118.568H54.9531C53.4707 118.568 52.2647 119.776 52.2647 121.258V127.981C52.2647 129.465 53.4707 130.67 54.9531 130.67H61.6773C63.1596 130.67 64.3657 129.465 64.3657 127.981V121.258ZM67.0398 121.258V127.981C67.0398 130.939 64.634 133.344 61.6773 133.344H54.9531C51.9963 133.344 49.5906 130.939 49.5906 127.981V121.258C49.5906 118.3 51.9963 115.896 54.9531 115.896H61.6773C64.634 115.896 67.0398 118.3 67.0398 121.258ZM52.2647 94.5618V101.285C52.2647 102.769 53.4707 103.974 54.9531 103.974H61.6773C63.1596 103.974 64.3657 102.769 64.3657 101.285V94.5618C64.3657 93.0802 63.1596 91.8726 61.6773 91.8726H54.9531C53.4707 91.8726 52.2647 93.0802 52.2647 94.5618ZM49.5906 101.285V94.5618C49.5906 91.6042 51.9963 89.2001 54.9531 89.2001H61.6773C64.634 89.2001 67.0398 91.6042 67.0398 94.5618V101.285C67.0398 104.243 64.634 106.648 61.6773 106.648H54.9531C51.9963 106.648 49.5906 104.243 49.5906 101.285ZM77.3964 127.981C77.3964 129.465 78.6025 130.67 80.0848 130.67H86.8098C88.2922 130.67 89.499 129.465 89.499 127.981V121.258C89.499 119.776 88.2922 118.568 86.8098 118.568H80.0848C78.6025 118.568 77.3964 119.776 77.3964 121.258V127.981ZM74.7231 127.981V121.258C74.7231 118.3 77.1281 115.896 80.0848 115.896H86.8098C89.7674 115.896 92.1715 118.3 92.1715 121.258V127.981C92.1715 130.939 89.7674 133.344 86.8098 133.344H80.0848C77.1281 133.344 74.7231 130.939 74.7231 127.981ZM77.3964 101.285C77.3964 102.769 78.6025 103.974 80.0848 103.974H86.8098C88.2922 103.974 89.499 102.769 89.499 101.285V94.5618C89.499 93.0802 88.2922 91.8726 86.8098 91.8726H80.0848C78.6025 91.8726 77.3964 93.0802 77.3964 94.5618V101.285ZM74.7231 101.285V94.5618C74.7231 91.6042 77.1281 89.2001 80.0848 89.2001H86.8098C89.7674 89.2001 92.1715 91.6042 92.1715 94.5618V101.285C92.1715 104.243 89.7674 106.648 86.8098 106.648H80.0848C77.1281 106.648 74.7231 104.243 74.7231 101.285ZM219.574 101.523C213.854 101.523 209.2 106.178 209.2 111.897C209.2 117.62 213.854 122.274 219.574 122.274C225.295 122.274 229.948 117.62 229.948 111.897C229.948 106.178 225.295 101.523 219.574 101.523ZM232.623 111.897C232.623 119.093 226.769 124.946 219.574 124.946C212.378 124.946 206.526 119.093 206.526 111.897C206.526 104.704 212.378 98.8501 219.574 98.8501C226.769 98.8501 232.623 104.704 232.623 111.897ZM161.781 43.9934C161.781 47.6759 163.55 50.932 166.182 52.0952L173.221 55.1687C176.539 56.6439 180.207 56.6804 183.552 55.2758L191.386 52.0118C194.03 50.9122 195.876 47.5703 195.876 43.8855V39.9362C195.876 39.5869 196.012 39.2494 196.258 38.9993L198.99 36.2149C199.477 35.7162 199.746 35.0541 199.746 34.3482V28.0313C199.746 26.8626 199.002 25.8384 197.894 25.4866L197.248 25.2794C196.006 25.1937 193.837 24.761 192.04 22.9539C189.881 20.7855 189.715 18.1122 189.715 17.3436V14.8418C189.715 14.4845 189.419 14.1915 189.054 14.1915H168.593C168.229 14.1915 167.932 14.4845 167.932 14.8418V17.3436C167.932 21.5779 164.67 25.0214 160.469 25.2651L159.759 25.4882C158.649 25.84 157.901 26.8586 157.901 28.021V34.3403C157.901 35.0271 158.182 35.7083 158.669 36.2085L161.402 39.0112C161.645 39.2613 161.781 39.5964 161.781 39.9442V43.9934ZM180.109 2.67491H177.432C167.7 2.67491 159.783 10.5916 159.783 20.3234V22.6776L159.832 22.6609C159.946 22.6244 160.066 22.6061 160.186 22.6021C162.135 22.5331 163.795 21.4255 164.647 19.82C165.159 18.7648 165.407 17.2301 165.137 14.7299C165.133 14.6917 165.131 14.6528 165.129 14.6139C165.115 13.8358 165.406 13.0998 165.948 12.5448C166.354 12.1264 166.866 11.8501 167.425 11.7381C167.79 11.6016 168.18 11.5166 168.593 11.5166H189.054C189.337 11.5166 189.608 11.5635 189.87 11.6286C190.668 11.7731 191.351 12.2582 191.776 12.9331C191.815 12.9863 191.847 13.0434 191.881 13.0998C191.896 13.126 191.91 13.1506 191.924 13.1768C192.211 13.6691 192.388 14.232 192.388 14.8418V17.3436C192.388 17.7057 192.463 19.5882 193.935 21.0674C195.188 22.3282 196.744 22.5799 197.558 22.6188C197.652 22.6244 197.743 22.645 197.836 22.6696L197.758 20.3687C197.758 10.5916 189.841 2.67491 180.109 2.67491ZM164.735 69.7747L175.292 77.7501C176.701 78.7275 178.483 78.9903 180.12 78.5513C180.27 78.5044 180.42 78.4512 180.568 78.3909L181.353 78.0654C181.552 77.9574 181.754 77.8518 181.942 77.72L192.888 69.7461C190.38 67.9858 188.882 65.199 188.851 62.1525C188.792 61.6928 188.61 59.8619 188.756 56.0055L186.516 56.9368C186.32 57.0345 186.125 57.1298 185.931 57.2274C185.898 57.2457 185.863 57.26 185.829 57.2743C185.349 57.4648 184.887 57.6355 184.439 57.7943C182.937 58.4081 181.386 58.7805 179.823 58.9146C178.237 59.0893 176.821 58.9932 175.459 58.6661C174.332 58.4406 173.223 58.0953 172.142 57.6157L168.797 56.154V62.0548C168.797 65.1704 167.271 68.012 164.735 69.7747ZM186.93 108.136L182.332 80.5529L181.593 80.8602C179.619 81.6811 177.355 81.6811 175.381 80.8602L174.641 80.5529L170.044 108.133C170.003 108.387 170.068 108.649 170.227 108.855L177.751 118.627C177.993 118.942 178.316 118.989 178.487 118.989C178.658 118.989 178.981 118.942 179.223 118.627L186.749 108.853C186.906 108.649 186.973 108.387 186.93 108.136ZM243.192 103.523C242.674 102.054 242.035 100.657 241.287 99.363C240.538 98.0656 239.65 96.8135 238.637 95.6305L233.314 97.6718C232.856 97.8481 232.339 97.7591 231.965 97.4376C230.177 95.9052 228.137 94.7285 225.901 93.9417C225.437 93.7774 225.102 93.3748 225.025 92.8913L224.13 87.2564C221.067 86.6856 218.082 86.6856 215.019 87.2564L214.124 92.8913C214.047 93.3748 213.709 93.7774 213.248 93.9417C211.011 94.7285 208.969 95.9052 207.183 97.4376C206.811 97.7591 206.293 97.8481 205.833 97.6718L200.512 95.6305C199.5 96.8135 198.61 98.0656 197.862 99.363C197.114 100.657 196.473 102.054 195.955 103.523L200.382 107.111C200.762 107.419 200.943 107.912 200.853 108.394C200.628 109.611 200.516 110.757 200.516 111.897C200.516 113.04 200.628 114.187 200.853 115.404C200.943 115.886 200.762 116.377 200.382 116.686L195.955 120.274C196.473 121.741 197.114 123.138 197.862 124.434C198.61 125.729 199.5 126.981 200.512 128.166L205.833 126.126C206.293 125.948 206.811 126.038 207.183 126.357C208.969 127.892 211.011 129.069 213.248 129.856C213.709 130.018 214.047 130.423 214.124 130.906L215.019 136.541C218.082 137.112 221.067 137.112 224.13 136.541L225.025 130.906C225.102 130.423 225.437 130.018 225.901 129.856C228.137 129.069 230.177 127.892 231.965 126.357C232.339 126.038 232.856 125.948 233.314 126.126L238.637 128.166C239.65 126.981 240.538 125.731 241.287 124.434C242.035 123.138 242.674 121.741 243.192 120.274L238.767 116.686C238.385 116.377 238.204 115.886 238.293 115.404C238.521 114.187 238.631 113.04 238.631 111.897C238.631 110.757 238.521 109.611 238.293 108.394C238.204 107.912 238.385 107.419 238.767 107.111L243.192 103.523ZM245.596 105.018L241.056 108.696C241.222 109.786 241.306 110.861 241.306 111.897C241.306 112.936 241.222 114.012 241.056 115.101L245.596 118.78C246.024 119.125 246.194 119.697 246.03 120.221C245.41 122.191 244.593 124.056 243.603 125.772C242.613 127.486 241.403 129.128 240.009 130.648C239.638 131.055 239.056 131.191 238.546 130.993L233.391 129.018L233.084 128.9C231.407 130.235 229.549 131.307 227.544 132.097L226.627 137.876C226.539 138.416 226.13 138.851 225.595 138.971C223.578 139.419 221.552 139.645 219.574 139.645C217.596 139.645 215.57 139.419 213.553 138.971C213.016 138.851 212.608 138.416 212.522 137.876L211.604 132.097C209.6 131.307 207.742 130.235 206.063 128.9L200.603 130.993C200.091 131.193 199.51 131.055 199.14 130.648C198.15 129.569 197.26 128.429 196.469 127.246C196.146 126.76 195.833 126.27 195.546 125.772C194.556 124.056 193.739 122.191 193.118 120.221C192.953 119.697 193.126 119.125 193.553 118.78L198.091 115.101C197.927 114.012 197.843 112.936 197.843 111.897C197.843 110.861 197.927 109.786 198.091 108.696L193.553 105.018C193.126 104.672 192.953 104.101 193.118 103.576C193.739 101.607 194.556 99.7385 195.546 98.0251C196.537 96.3117 197.743 94.6698 199.14 93.1493C199.51 92.7428 200.091 92.6062 200.603 92.8031L206.063 94.8969C207.742 93.5614 209.6 92.4903 211.604 91.6995L212.522 85.921C212.608 85.3787 213.016 84.946 213.553 84.8253C213.858 84.7586 214.163 84.7054 214.468 84.649V83.3985C214.468 80.6402 212.761 78.1733 210.118 77.1078L195.453 71.2237L184.784 78.9959L189.567 107.694C189.731 108.674 189.477 109.693 188.869 110.483L181.343 120.257C180.655 121.15 179.615 121.662 178.487 121.662C177.361 121.662 176.32 121.15 175.634 120.257L168.107 110.485C167.497 109.693 167.243 108.676 167.407 107.694L172.196 78.9633L161.958 71.23L147.312 77.1062C144.667 78.1733 142.956 80.645 142.956 83.4009V127.243C142.956 127.983 142.358 128.581 141.618 128.581C140.88 128.581 140.283 127.983 140.283 127.243V83.4009C140.283 79.5469 142.649 76.1042 146.314 74.6258L161.416 68.567C161.511 68.4876 161.614 68.4185 161.73 68.3677L162.296 68.1176C164.639 66.9759 166.123 64.644 166.123 62.0548V54.9876L165.106 54.5422C161.515 52.9566 159.106 48.7192 159.106 43.9934V40.4888L156.754 38.0759C155.771 37.066 155.226 35.7409 155.226 34.3403V28.021C155.226 26.4196 155.944 24.9682 157.108 23.9765V20.3234C157.108 9.11644 166.224 0 177.432 0H180.109C191.315 0 200.431 9.11644 200.431 20.3234L200.555 23.9868C201.709 24.9761 202.421 26.4299 202.421 28.0313V34.3482C202.421 35.7575 201.88 37.0827 200.899 38.0863L198.549 40.4809V43.8855C198.549 48.6962 196.083 52.9527 192.414 54.4811L192.244 54.5525L191.481 54.8693C191.227 59.8777 191.506 61.8349 191.51 61.8555C191.518 61.9206 191.524 61.9913 191.524 62.0588C191.524 64.6217 192.988 66.9409 195.346 68.1121L195.92 68.3677C196.098 68.4471 196.244 68.5694 196.367 68.7091L211.114 74.6258C214.777 76.1019 217.143 79.5453 217.143 83.3985V84.275C218.18 84.1814 219.214 84.1488 220.249 84.175C222.025 84.2203 223.803 84.4291 225.595 84.8253C226.13 84.946 226.539 85.3787 226.627 85.921L227.544 91.6995C229.549 92.4903 231.407 93.5614 233.084 94.8969L238.546 92.8031C239.056 92.6062 239.638 92.7428 240.009 93.1493C241.403 94.6698 242.613 96.3117 243.603 98.0251C244.593 99.7385 245.407 101.607 246.03 103.576C246.194 104.101 246.024 104.672 245.596 105.018ZM155.356 95.5964C154.619 95.5964 154.019 96.1958 154.019 96.9334V128.382C154.019 129.12 154.619 129.717 155.356 129.717C156.094 129.717 156.694 129.12 156.694 128.382V96.9334C156.694 96.1958 156.094 95.5964 155.356 95.5964ZM192.121 90.5999H203.582C204.322 90.5999 204.919 90.0028 204.919 89.2628C204.919 88.5252 204.322 87.9273 203.582 87.9273H192.121C191.382 87.9273 190.784 88.5252 190.784 89.2628C190.784 90.0028 191.382 90.5999 192.121 90.5999ZM13.2153 117.879C13.2701 117.886 13.3241 117.887 13.3781 117.887C14.0442 117.887 14.6215 117.392 14.7032 116.713C15.2741 112.025 16.1165 107.328 17.2082 102.749C17.3797 102.029 16.9367 101.308 16.2182 101.137C15.4996 100.966 14.7787 101.41 14.608 102.127C13.4924 106.804 12.6318 111.603 12.049 116.39C11.9601 117.123 12.4817 117.79 13.2153 117.879ZM19.5671 89.9496C19.7172 90.0044 19.8712 90.029 20.0221 90.029C20.5691 90.029 21.0821 89.6916 21.2798 89.1469C22.8852 84.7141 24.7637 80.3234 26.8622 76.0979C27.1909 75.4373 26.921 74.6346 26.2596 74.3051C25.5982 73.9756 24.7955 74.2463 24.4676 74.9085C22.3238 79.2238 20.4056 83.7097 18.7652 88.2362C18.5135 88.9317 18.8724 89.6979 19.5671 89.9496ZM127.451 6.59794C127.494 6.59794 127.538 6.59794 127.581 6.59159C131.636 6.19937 135.768 6.00246 139.864 6.00246C140.478 5.99849 141.131 6.00643 141.76 6.01437C142.521 5.99849 143.106 5.43715 143.116 4.69717C143.127 3.95956 142.537 3.35137 141.799 3.34185C141.154 3.33153 140.549 3.33549 139.864 3.32756C135.683 3.32756 131.463 3.53081 127.323 3.93098C126.589 4.00244 126.051 4.65667 126.122 5.39031C126.189 6.08186 126.77 6.59794 127.451 6.59794ZM50.8959 42.2086C51.2325 42.2086 51.5692 42.0823 51.8296 41.8283C55.2056 38.5356 58.8039 35.3994 62.5244 32.5054C63.1072 32.052 63.212 31.212 62.7587 30.6292C62.3053 30.0457 61.4653 29.9416 60.8825 30.395C57.0833 33.3486 53.4096 36.5515 49.9622 39.9156C49.4334 40.4301 49.423 41.2772 49.9383 41.806C50.2003 42.0744 50.5481 42.2086 50.8959 42.2086ZM99.4459 12.5488C99.5865 12.5488 99.7286 12.5266 99.8691 12.4797C104.338 10.9863 108.944 9.73177 113.558 8.752C114.282 8.59797 114.741 7.88816 114.589 7.16723C114.435 6.44312 113.725 5.98023 113.003 6.13664C108.292 7.13626 103.587 8.41694 99.0212 9.94376C98.3225 10.1772 97.9437 10.9354 98.178 11.6365C98.3645 12.1955 98.887 12.5488 99.4459 12.5488ZM32.0334 64.1581C32.2581 64.3026 32.509 64.3716 32.7575 64.3716C33.1965 64.3716 33.6261 64.1565 33.8825 63.7603C36.4391 59.8023 39.2514 55.9444 42.2415 52.2905C42.7092 51.7188 42.625 50.8772 42.0534 50.4104C41.4817 49.9403 40.6401 50.0261 40.1724 50.5969C37.1188 54.327 34.247 58.2683 31.6364 62.3105C31.2354 62.9306 31.4133 63.7579 32.0334 64.1581ZM73.4964 24.6347C73.7346 24.6347 73.9752 24.572 74.1927 24.4378C78.2166 21.9781 82.4207 19.7224 86.6899 17.7343C87.3592 17.4214 87.649 16.6267 87.337 15.9581C87.0258 15.2872 86.231 14.9982 85.5609 15.3095C81.2012 17.3397 76.9073 19.6446 72.7977 22.1575C72.1681 22.541 71.9696 23.3643 72.3547 23.9948C72.6064 24.4068 73.0462 24.6347 73.4964 24.6347ZM265.536 153.508C264.809 153.374 264.116 153.86 263.986 154.588C263.16 159.173 262.067 163.761 260.735 168.222C260.524 168.928 260.926 169.674 261.634 169.885C261.762 169.921 261.89 169.94 262.016 169.94C262.593 169.94 263.123 169.566 263.299 168.987C264.657 164.429 265.775 159.745 266.615 155.06C266.748 154.334 266.264 153.638 265.536 153.508ZM253.656 71.7318C253.308 71.0792 252.499 70.8314 251.847 71.1792C251.196 71.5246 250.949 72.3352 251.294 72.9879C253.483 77.0999 255.461 81.3802 257.173 85.7082C257.381 86.2322 257.884 86.5514 258.416 86.5514C258.581 86.5514 258.748 86.5212 258.908 86.4577C259.595 86.1854 259.931 85.4088 259.66 84.7221C257.91 80.3028 255.889 75.9327 253.656 71.7318ZM257.736 180.699C257.054 180.41 256.27 180.727 255.982 181.405C254.16 185.688 252.077 189.92 249.786 193.977C249.422 194.622 249.65 195.437 250.294 195.8C250.502 195.916 250.727 195.973 250.949 195.973C251.416 195.973 251.87 195.727 252.115 195.292C254.452 191.148 256.583 186.827 258.443 182.453C258.731 181.774 258.414 180.987 257.736 180.699ZM237.523 48.142C237.041 47.583 236.196 47.5179 235.637 48.0014C235.078 48.481 235.015 49.3266 235.497 49.8855C238.536 53.4179 241.41 57.156 244.038 60.998C244.296 61.3776 244.714 61.5808 245.141 61.5808C245.402 61.5808 245.666 61.5062 245.896 61.3474C246.505 60.9305 246.662 60.0993 246.245 59.4895C243.56 55.5649 240.627 51.7474 237.523 48.142ZM267.146 125.264C266.408 125.294 265.835 125.918 265.867 126.656C265.943 128.459 265.982 130.292 265.982 132.106C265.982 134.957 265.886 137.841 265.697 140.673C265.646 141.41 266.203 142.047 266.941 142.096C266.971 142.1 267.002 142.1 267.031 142.1C267.729 142.1 268.317 141.559 268.364 140.851C268.559 137.959 268.657 135.018 268.657 132.106C268.657 130.256 268.615 128.384 268.538 126.542C268.508 125.805 267.888 125.229 267.146 125.264ZM264.499 112.709C264.601 113.37 265.17 113.84 265.819 113.84C265.888 113.84 265.955 113.836 266.024 113.827C266.756 113.713 267.256 113.03 267.142 112.3C266.417 107.597 265.419 102.887 264.175 98.3038C263.979 97.59 263.246 97.1692 262.534 97.363C261.82 97.5559 261.4 98.2911 261.593 99.0025C262.811 103.493 263.788 108.103 264.499 112.709ZM215.008 30.8158C218.746 33.5908 222.37 36.6087 225.779 39.7838C226.038 40.0236 226.365 40.1411 226.689 40.1411C227.049 40.1411 227.407 39.9989 227.669 39.7163C228.173 39.1756 228.143 38.3284 227.602 37.8266C224.121 34.584 220.419 31.5026 216.604 28.6697C216.01 28.2282 215.173 28.3521 214.732 28.9436C214.293 29.5375 214.415 30.3752 215.008 30.8158ZM147.169 258.003C142.295 258.282 137.321 258.278 132.447 257.996C131.716 257.963 131.08 258.516 131.034 259.252C130.991 259.989 131.555 260.621 132.293 260.664C134.803 260.81 137.356 260.884 139.878 260.884C142.352 260.884 144.858 260.813 147.321 260.672C148.06 260.632 148.622 260 148.58 259.262C148.539 258.523 147.901 257.963 147.169 258.003ZM34.2168 200.965C33.8127 200.347 32.9838 200.173 32.3668 200.577C31.7483 200.982 31.5745 201.809 31.9778 202.429C34.7075 206.608 37.7143 210.673 40.9148 214.513C41.1792 214.829 41.5595 214.994 41.9422 214.994C42.2439 214.994 42.5472 214.892 42.7973 214.683C43.365 214.209 43.4412 213.368 42.9688 212.801C39.8342 209.041 36.8901 205.059 34.2168 200.965ZM89.6816 247.825C85.1988 245.877 80.7796 243.641 76.5469 241.178C75.9085 240.806 75.0907 241.023 74.7191 241.662C74.3476 242.299 74.5635 243.117 75.2019 243.489C79.5243 246.005 84.0372 248.288 88.6161 250.277C88.7892 250.353 88.9702 250.388 89.1489 250.388C89.6657 250.388 90.1572 250.087 90.3748 249.583C90.6693 248.905 90.3581 248.119 89.6816 247.825ZM64.2768 233.046C60.3656 230.11 56.5831 226.913 53.034 223.541C52.4989 223.033 51.6525 223.055 51.1436 223.59C50.6354 224.124 50.6569 224.972 51.192 225.48C54.8165 228.923 58.6784 232.187 62.6721 235.184C62.9127 235.365 63.1946 235.452 63.4733 235.452C63.8798 235.452 64.2815 235.267 64.5443 234.918C64.9874 234.326 64.8675 233.489 64.2768 233.046ZM117.829 256.29C113.005 255.438 108.186 254.294 103.506 252.885C102.796 252.672 102.052 253.074 101.841 253.782C101.627 254.487 102.027 255.233 102.735 255.447C107.518 256.886 112.439 258.054 117.364 258.922C117.442 258.936 117.52 258.943 117.597 258.943C118.235 258.943 118.798 258.487 118.912 257.839C119.042 257.111 118.556 256.418 117.829 256.29ZM177.78 253.825C177.991 254.53 177.591 255.276 176.883 255.487C172.1 256.92 167.178 258.084 162.253 258.947C162.176 258.961 162.099 258.967 162.021 258.967C161.383 258.967 160.82 258.509 160.706 257.861C160.578 257.133 161.064 256.44 161.791 256.312C166.615 255.469 171.434 254.329 176.115 252.926C176.825 252.715 177.568 253.115 177.78 253.825Z" fill="white"/>
</mask>
<g mask="url(#mask0_670_192)">
<mask id="mask1_670_192" style="mask-type:luminance" maskUnits="userSpaceOnUse" x="0" y="0" width="269" height="261">
<path d="M191.79 196.05C191.79 200.215 195.179 203.603 199.343 203.603C203.508 203.603 206.896 200.215 206.896 196.05C206.896 191.886 203.508 188.497 199.343 188.497C195.179 188.497 191.79 191.886 191.79 196.05ZM189.118 196.05C189.118 190.412 193.705 185.825 199.343 185.825C204.982 185.825 209.569 190.412 209.569 196.05C209.569 201.689 204.982 206.277 199.343 206.277C193.705 206.277 189.118 201.689 189.118 196.05ZM180.806 202.825C181.205 203.916 181.686 204.956 182.243 205.923C182.802 206.89 183.461 207.827 184.208 208.717L188.278 207.156C188.737 206.979 189.256 207.069 189.627 207.39C191.03 208.591 192.629 209.515 194.382 210.132C194.845 210.295 195.18 210.699 195.258 211.183L195.943 215.492C198.232 215.896 200.455 215.896 202.744 215.492L203.429 211.183C203.506 210.699 203.841 210.295 204.305 210.132C206.059 209.515 207.659 208.591 209.059 207.39C209.433 207.069 209.949 206.979 210.409 207.156L214.48 208.716C215.226 207.827 215.884 206.89 216.443 205.923C217.002 204.957 217.484 203.916 217.88 202.825L214.496 200.083C214.114 199.774 213.933 199.283 214.022 198.798C214.202 197.843 214.287 196.945 214.287 196.05C214.287 195.158 214.202 194.257 214.022 193.302C213.933 192.82 214.114 192.327 214.496 192.018L217.88 189.276C217.484 188.184 217.002 187.143 216.443 186.178C215.884 185.211 215.226 184.274 214.48 183.386L210.409 184.947C209.949 185.121 209.433 185.031 209.059 184.713C207.659 183.512 206.059 182.588 204.305 181.969C203.841 181.806 203.506 181.404 203.429 180.918L202.744 176.611C200.455 176.206 198.232 176.206 195.943 176.611L195.258 180.918C195.18 181.404 194.845 181.806 194.382 181.969C192.628 182.588 191.028 183.512 189.627 184.713C189.256 185.031 188.737 185.121 188.278 184.947L184.208 183.386C183.461 184.274 182.802 185.211 182.243 186.178C181.686 187.143 181.205 188.182 180.806 189.276L184.193 192.018C184.573 192.327 184.753 192.82 184.664 193.302C184.487 194.257 184.4 195.158 184.4 196.05C184.4 196.945 184.487 197.843 184.664 198.798C184.753 199.283 184.573 199.774 184.193 200.083L180.806 202.825ZM178.4 201.333L181.904 198.493C181.786 197.662 181.725 196.843 181.725 196.05C181.725 195.258 181.786 194.438 181.904 193.607L178.4 190.768C177.973 190.42 177.802 189.849 177.967 189.327C178.469 187.733 179.129 186.225 179.928 184.841C180.727 183.456 181.704 182.131 182.831 180.9C183.203 180.495 183.784 180.357 184.296 180.554L188.512 182.172C189.798 181.164 191.215 180.349 192.74 179.733L193.447 175.271C193.535 174.729 193.943 174.294 194.479 174.176C197.739 173.452 200.947 173.452 204.207 174.176C204.744 174.294 205.153 174.729 205.24 175.271L205.948 179.733C207.472 180.349 208.888 181.164 210.175 182.172L214.391 180.554C214.903 180.357 215.484 180.495 215.856 180.9C216.982 182.131 217.96 183.456 218.758 184.841C219.557 186.225 220.218 187.733 220.72 189.327C220.885 189.849 220.714 190.42 220.287 190.768L216.783 193.607C216.9 194.438 216.962 195.258 216.962 196.05C216.962 196.843 216.9 197.662 216.783 198.493L220.287 201.333C220.714 201.68 220.885 202.252 220.72 202.774C220.218 204.368 219.557 205.876 218.758 207.26C217.96 208.644 216.984 209.969 215.856 211.201C215.484 211.606 214.903 211.744 214.391 211.547L210.175 209.931C208.888 210.937 207.472 211.754 205.948 212.368L205.24 216.829C205.153 217.372 204.744 217.807 204.207 217.925C202.577 218.287 200.941 218.47 199.343 218.47C197.746 218.47 196.109 218.287 194.479 217.925C193.943 217.807 193.535 217.372 193.447 216.829L192.74 212.368C191.217 211.754 189.8 210.937 188.512 209.931L184.296 211.547C183.784 211.744 183.203 211.606 182.831 211.201C181.704 209.969 180.727 208.644 179.928 207.26C179.129 205.876 178.469 204.366 177.967 202.774C177.802 202.252 177.973 201.68 178.4 201.333ZM157.243 184.304C157.243 185.452 158.177 186.388 159.326 186.388C160.477 186.388 161.411 185.452 161.411 184.304C161.411 183.156 160.477 182.221 159.326 182.221C158.177 182.221 157.243 183.156 157.243 184.304ZM154.569 184.304C154.569 181.68 156.704 179.546 159.326 179.546C161.483 179.546 163.287 180.997 163.868 182.967H176.499C177.237 182.967 177.834 183.567 177.834 184.304C177.834 185.042 177.237 185.641 176.499 185.641H163.868C163.287 187.611 161.483 189.062 159.326 189.062C156.704 189.062 154.569 186.928 154.569 184.304ZM148.496 196.705C147.159 196.705 146.071 197.792 146.071 199.13C146.071 200.467 147.159 201.556 148.496 201.556C149.834 201.556 150.923 200.467 150.923 199.13C150.923 197.792 149.834 196.705 148.496 196.705ZM143.397 199.13C143.397 196.319 145.683 194.03 148.496 194.03C150.923 194.03 152.956 195.735 153.468 198.01H162.44V194.38C162.44 193.642 163.04 193.044 163.777 193.044H174.643C175.383 193.044 175.981 193.642 175.981 194.38C175.981 195.12 175.383 195.717 174.643 195.717H165.115V199.348C165.115 200.087 164.516 200.685 163.777 200.685H153.352C152.694 202.738 150.767 204.23 148.496 204.23C145.683 204.23 143.397 201.943 143.397 199.13ZM165.054 211.49C166.202 211.49 167.137 210.555 167.137 209.407C167.137 208.258 166.202 207.323 165.054 207.323C163.903 207.323 162.968 208.258 162.968 209.407C162.968 210.555 163.903 211.49 165.054 211.49ZM165.054 214.165C162.43 214.165 160.296 212.031 160.296 209.407C160.296 206.782 162.43 204.648 165.054 204.648C167.209 204.648 169.013 206.1 169.597 208.069H176.499C177.237 208.069 177.834 208.669 177.834 209.407C177.834 210.147 177.237 210.744 176.499 210.744H169.597C169.013 212.713 167.209 214.165 165.054 214.165ZM140.112 218.941C140.112 220.984 141.774 222.647 143.82 222.647H222.801C224.844 222.647 226.507 220.984 226.507 218.941V173.161C226.507 171.117 224.844 169.454 222.801 169.454H143.82C141.774 169.454 140.112 171.117 140.112 173.161V218.941ZM137.439 173.161C137.439 169.643 140.301 166.781 143.82 166.781H222.801C226.319 166.781 229.182 169.643 229.182 173.161V218.941C229.182 222.46 226.319 225.322 222.801 225.322H143.82C140.301 225.322 137.439 222.46 137.439 218.941V173.161ZM242.611 235.704H126.077V236.901C126.077 239.401 128.112 241.436 130.612 241.436H238.147C240.609 241.436 242.611 239.432 242.611 236.97V235.704ZM137.636 160.875C134.039 160.875 131.111 163.804 131.111 167.401V233.029H235.507V167.401C235.507 163.804 232.58 160.875 228.982 160.875H137.636ZM228.982 158.201C229.239 158.201 229.493 158.218 229.745 158.24C234.46 158.629 238.182 162.586 238.182 167.401V233.029H243.81C244.623 233.029 245.286 233.692 245.286 234.505V236.97C245.286 240.908 242.082 244.11 238.147 244.11H130.612C126.638 244.11 123.404 240.877 123.404 236.901V234.436C123.404 233.661 124.035 233.029 124.809 233.029H128.437V167.401C128.437 162.328 132.565 158.201 137.636 158.201H228.982ZM38.228 80.7323V135.163C39.8628 136.169 41.4023 137.367 42.8021 138.768C47.4937 143.46 50.082 149.703 50.0884 156.346C50.0884 159.33 49.5628 162.232 48.5632 164.95L55.1 171.487H103.533V80.7323H38.228ZM103.529 174.162H57.7741L68.6484 185.036H92.3446C98.4098 185.036 103.363 180.186 103.529 174.162ZM38.2327 78.0574H103.529C103.363 72.0327 98.4098 67.1831 92.3446 67.1831H49.4183C43.3531 67.1831 38.4003 72.0327 38.2327 78.0574ZM3.98377 149.873C3.3462 151.956 3.02226 154.127 3.0175 156.35C3.02385 162.277 5.33511 167.852 9.52652 172.044C13.7139 176.231 19.2861 178.54 25.2171 178.546C31.1473 178.546 36.7218 176.239 40.9116 172.05C45.1046 167.856 47.4143 162.279 47.4143 156.348C47.4079 150.419 45.099 144.846 40.9116 140.658C35.0537 134.801 26.5391 132.73 18.7351 135.122L32.7289 149.116C33.6666 150.053 34.1827 151.301 34.1827 152.626C34.1827 153.954 33.6666 155.199 32.7289 156.139L25.0003 163.866C23.0646 165.804 19.9141 165.804 17.9776 163.866L3.98377 149.873ZM68.8159 207.711C70.8882 207.711 72.8358 206.905 74.3007 205.439C77.325 202.415 77.325 197.494 74.3007 194.469L47.4135 167.582C46.2376 169.901 44.6941 172.048 42.8021 173.94C40.91 175.832 38.7631 177.375 36.4431 178.55L63.3311 205.439C64.796 206.905 66.7444 207.711 68.8159 207.711ZM78.7922 202.983C78.3119 204.575 77.4472 206.075 76.192 207.329C74.2213 209.301 71.602 210.384 68.8159 210.384C66.0299 210.384 63.4105 209.301 61.4407 207.329L33.8103 179.701C31.0949 180.696 28.1969 181.22 25.2163 181.22C18.5707 181.215 12.3277 178.625 7.63526 173.934C2.93969 169.238 0.35053 162.992 0.343384 156.35C0.35053 153.075 0.974595 149.907 2.20049 146.927C2.37041 146.512 2.73643 146.212 3.1747 146.124C3.61298 146.037 4.06634 146.175 4.38234 146.49L19.8681 161.976C20.7343 162.842 22.2436 162.842 23.1091 161.976L30.8376 154.248C31.2712 153.813 31.5093 153.238 31.5093 152.626C31.5093 152.015 31.2712 151.439 30.8376 151.006L15.3519 135.52C15.0359 135.203 14.8978 134.75 14.9867 134.311C15.074 133.874 15.3765 133.508 15.7902 133.337C22.2889 130.674 29.4204 130.923 35.5539 133.733V76.6767C35.5539 76.4004 35.6388 76.1423 35.7833 75.9288C36.9425 69.4475 42.6083 64.5082 49.4183 64.5082H92.3446C99.1538 64.5082 104.82 69.4475 105.979 75.9288C106.123 76.1423 106.208 76.4004 106.208 76.6767V175.542C106.208 175.821 106.123 176.076 105.979 176.29C104.82 182.772 99.1538 187.711 92.3446 187.711H71.3225L76.1912 192.579C79.0026 195.39 79.8681 199.421 78.7922 202.983ZM64.3657 121.258C64.3657 119.776 63.1596 118.568 61.6773 118.568H54.9531C53.4707 118.568 52.2647 119.776 52.2647 121.258V127.981C52.2647 129.465 53.4707 130.67 54.9531 130.67H61.6773C63.1596 130.67 64.3657 129.465 64.3657 127.981V121.258ZM67.0398 121.258V127.981C67.0398 130.939 64.634 133.344 61.6773 133.344H54.9531C51.9963 133.344 49.5906 130.939 49.5906 127.981V121.258C49.5906 118.3 51.9963 115.896 54.9531 115.896H61.6773C64.634 115.896 67.0398 118.3 67.0398 121.258ZM52.2647 94.5618V101.285C52.2647 102.769 53.4707 103.974 54.9531 103.974H61.6773C63.1596 103.974 64.3657 102.769 64.3657 101.285V94.5618C64.3657 93.0802 63.1596 91.8726 61.6773 91.8726H54.9531C53.4707 91.8726 52.2647 93.0802 52.2647 94.5618ZM49.5906 101.285V94.5618C49.5906 91.6042 51.9963 89.2001 54.9531 89.2001H61.6773C64.634 89.2001 67.0398 91.6042 67.0398 94.5618V101.285C67.0398 104.243 64.634 106.648 61.6773 106.648H54.9531C51.9963 106.648 49.5906 104.243 49.5906 101.285ZM77.3964 127.981C77.3964 129.465 78.6025 130.67 80.0848 130.67H86.8098C88.2922 130.67 89.499 129.465 89.499 127.981V121.258C89.499 119.776 88.2922 118.568 86.8098 118.568H80.0848C78.6025 118.568 77.3964 119.776 77.3964 121.258V127.981ZM74.7231 127.981V121.258C74.7231 118.3 77.1281 115.896 80.0848 115.896H86.8098C89.7674 115.896 92.1715 118.3 92.1715 121.258V127.981C92.1715 130.939 89.7674 133.344 86.8098 133.344H80.0848C77.1281 133.344 74.7231 130.939 74.7231 127.981ZM77.3964 101.285C77.3964 102.769 78.6025 103.974 80.0848 103.974H86.8098C88.2922 103.974 89.499 102.769 89.499 101.285V94.5618C89.499 93.0802 88.2922 91.8726 86.8098 91.8726H80.0848C78.6025 91.8726 77.3964 93.0802 77.3964 94.5618V101.285ZM74.7231 101.285V94.5618C74.7231 91.6042 77.1281 89.2001 80.0848 89.2001H86.8098C89.7674 89.2001 92.1715 91.6042 92.1715 94.5618V101.285C92.1715 104.243 89.7674 106.648 86.8098 106.648H80.0848C77.1281 106.648 74.7231 104.243 74.7231 101.285ZM219.574 101.523C213.854 101.523 209.2 106.178 209.2 111.897C209.2 117.62 213.854 122.274 219.574 122.274C225.295 122.274 229.948 117.62 229.948 111.897C229.948 106.178 225.295 101.523 219.574 101.523ZM232.623 111.897C232.623 119.093 226.769 124.946 219.574 124.946C212.378 124.946 206.526 119.093 206.526 111.897C206.526 104.704 212.378 98.8501 219.574 98.8501C226.769 98.8501 232.623 104.704 232.623 111.897ZM161.781 43.9934C161.781 47.6759 163.55 50.932 166.182 52.0952L173.221 55.1687C176.539 56.6439 180.207 56.6804 183.552 55.2758L191.386 52.0118C194.03 50.9122 195.876 47.5703 195.876 43.8855V39.9362C195.876 39.5869 196.012 39.2494 196.258 38.9993L198.99 36.2149C199.477 35.7162 199.746 35.0541 199.746 34.3482V28.0313C199.746 26.8626 199.002 25.8384 197.894 25.4866L197.248 25.2794C196.006 25.1937 193.837 24.761 192.04 22.9539C189.881 20.7855 189.715 18.1122 189.715 17.3436V14.8418C189.715 14.4845 189.419 14.1915 189.054 14.1915H168.593C168.229 14.1915 167.932 14.4845 167.932 14.8418V17.3436C167.932 21.5779 164.67 25.0214 160.469 25.2651L159.759 25.4882C158.649 25.84 157.901 26.8586 157.901 28.021V34.3403C157.901 35.0271 158.182 35.7083 158.669 36.2085L161.402 39.0112C161.645 39.2613 161.781 39.5964 161.781 39.9442V43.9934ZM180.109 2.67491H177.432C167.7 2.67491 159.783 10.5916 159.783 20.3234V22.6776L159.832 22.6609C159.946 22.6244 160.066 22.6061 160.186 22.6021C162.135 22.5331 163.795 21.4255 164.647 19.82C165.159 18.7648 165.407 17.2301 165.137 14.7299C165.133 14.6917 165.131 14.6528 165.129 14.6139C165.115 13.8358 165.406 13.0998 165.948 12.5448C166.354 12.1264 166.866 11.8501 167.425 11.7381C167.79 11.6016 168.18 11.5166 168.593 11.5166H189.054C189.337 11.5166 189.608 11.5635 189.87 11.6286C190.668 11.7731 191.351 12.2582 191.776 12.9331C191.815 12.9863 191.847 13.0434 191.881 13.0998C191.896 13.126 191.91 13.1506 191.924 13.1768C192.211 13.6691 192.388 14.232 192.388 14.8418V17.3436C192.388 17.7057 192.463 19.5882 193.935 21.0674C195.188 22.3282 196.744 22.5799 197.558 22.6188C197.652 22.6244 197.743 22.645 197.836 22.6696L197.758 20.3687C197.758 10.5916 189.841 2.67491 180.109 2.67491ZM164.735 69.7747L175.292 77.7501C176.701 78.7275 178.483 78.9903 180.12 78.5513C180.27 78.5044 180.42 78.4512 180.568 78.3909L181.353 78.0654C181.552 77.9574 181.754 77.8518 181.942 77.72L192.888 69.7461C190.38 67.9858 188.882 65.199 188.851 62.1525C188.792 61.6928 188.61 59.8619 188.756 56.0055L186.516 56.9368C186.32 57.0345 186.125 57.1298 185.931 57.2274C185.898 57.2457 185.863 57.26 185.829 57.2743C185.349 57.4648 184.887 57.6355 184.439 57.7943C182.937 58.4081 181.386 58.7805 179.823 58.9146C178.237 59.0893 176.821 58.9932 175.459 58.6661C174.332 58.4406 173.223 58.0953 172.142 57.6157L168.797 56.154V62.0548C168.797 65.1704 167.271 68.012 164.735 69.7747ZM186.93 108.136L182.332 80.5529L181.593 80.8602C179.619 81.6811 177.355 81.6811 175.381 80.8602L174.641 80.5529L170.044 108.133C170.003 108.387 170.068 108.649 170.227 108.855L177.751 118.627C177.993 118.942 178.316 118.989 178.487 118.989C178.658 118.989 178.981 118.942 179.223 118.627L186.749 108.853C186.906 108.649 186.973 108.387 186.93 108.136ZM243.192 103.523C242.674 102.054 242.035 100.657 241.287 99.363C240.538 98.0656 239.65 96.8135 238.637 95.6305L233.314 97.6718C232.856 97.8481 232.339 97.7591 231.965 97.4376C230.177 95.9052 228.137 94.7285 225.901 93.9417C225.437 93.7774 225.102 93.3748 225.025 92.8913L224.13 87.2564C221.067 86.6856 218.082 86.6856 215.019 87.2564L214.124 92.8913C214.047 93.3748 213.709 93.7774 213.248 93.9417C211.011 94.7285 208.969 95.9052 207.183 97.4376C206.811 97.7591 206.293 97.8481 205.833 97.6718L200.512 95.6305C199.5 96.8135 198.61 98.0656 197.862 99.363C197.114 100.657 196.473 102.054 195.955 103.523L200.382 107.111C200.762 107.419 200.943 107.912 200.853 108.394C200.628 109.611 200.516 110.757 200.516 111.897C200.516 113.04 200.628 114.187 200.853 115.404C200.943 115.886 200.762 116.377 200.382 116.686L195.955 120.274C196.473 121.741 197.114 123.138 197.862 124.434C198.61 125.729 199.5 126.981 200.512 128.166L205.833 126.126C206.293 125.948 206.811 126.038 207.183 126.357C208.969 127.892 211.011 129.069 213.248 129.856C213.709 130.018 214.047 130.423 214.124 130.906L215.019 136.541C218.082 137.112 221.067 137.112 224.13 136.541L225.025 130.906C225.102 130.423 225.437 130.018 225.901 129.856C228.137 129.069 230.177 127.892 231.965 126.357C232.339 126.038 232.856 125.948 233.314 126.126L238.637 128.166C239.65 126.981 240.538 125.731 241.287 124.434C242.035 123.138 242.674 121.741 243.192 120.274L238.767 116.686C238.385 116.377 238.204 115.886 238.293 115.404C238.521 114.187 238.631 113.04 238.631 111.897C238.631 110.757 238.521 109.611 238.293 108.394C238.204 107.912 238.385 107.419 238.767 107.111L243.192 103.523ZM245.596 105.018L241.056 108.696C241.222 109.786 241.306 110.861 241.306 111.897C241.306 112.936 241.222 114.012 241.056 115.101L245.596 118.78C246.024 119.125 246.194 119.697 246.03 120.221C245.41 122.191 244.593 124.056 243.603 125.772C242.613 127.486 241.403 129.128 240.009 130.648C239.638 131.055 239.056 131.191 238.546 130.993L233.391 129.018L233.084 128.9C231.407 130.235 229.549 131.307 227.544 132.097L226.627 137.876C226.539 138.416 226.13 138.851 225.595 138.971C223.578 139.419 221.552 139.645 219.574 139.645C217.596 139.645 215.57 139.419 213.553 138.971C213.016 138.851 212.608 138.416 212.522 137.876L211.604 132.097C209.6 131.307 207.742 130.235 206.063 128.9L200.603 130.993C200.091 131.193 199.51 131.055 199.14 130.648C198.15 129.569 197.26 128.429 196.469 127.246C196.146 126.76 195.833 126.27 195.546 125.772C194.556 124.056 193.739 122.191 193.118 120.221C192.953 119.697 193.126 119.125 193.553 118.78L198.091 115.101C197.927 114.012 197.843 112.936 197.843 111.897C197.843 110.861 197.927 109.786 198.091 108.696L193.553 105.018C193.126 104.672 192.953 104.101 193.118 103.576C193.739 101.607 194.556 99.7385 195.546 98.0251C196.537 96.3117 197.743 94.6698 199.14 93.1493C199.51 92.7428 200.091 92.6062 200.603 92.8031L206.063 94.8969C207.742 93.5614 209.6 92.4903 211.604 91.6995L212.522 85.921C212.608 85.3787 213.016 84.946 213.553 84.8253C213.858 84.7586 214.163 84.7054 214.468 84.649V83.3985C214.468 80.6402 212.761 78.1733 210.118 77.1078L195.453 71.2237L184.784 78.9959L189.567 107.694C189.731 108.674 189.477 109.693 188.869 110.483L181.343 120.257C180.655 121.15 179.615 121.662 178.487 121.662C177.361 121.662 176.32 121.15 175.634 120.257L168.107 110.485C167.497 109.693 167.243 108.676 167.407 107.694L172.196 78.9633L161.958 71.23L147.312 77.1062C144.667 78.1733 142.956 80.645 142.956 83.4009V127.243C142.956 127.983 142.358 128.581 141.618 128.581C140.88 128.581 140.283 127.983 140.283 127.243V83.4009C140.283 79.5469 142.649 76.1042 146.314 74.6258L161.416 68.567C161.511 68.4876 161.614 68.4185 161.73 68.3677L162.296 68.1176C164.639 66.9759 166.123 64.644 166.123 62.0548V54.9876L165.106 54.5422C161.515 52.9566 159.106 48.7192 159.106 43.9934V40.4888L156.754 38.0759C155.771 37.066 155.226 35.7409 155.226 34.3403V28.021C155.226 26.4196 155.944 24.9682 157.108 23.9765V20.3234C157.108 9.11644 166.224 0 177.432 0H180.109C191.315 0 200.431 9.11644 200.431 20.3234L200.555 23.9868C201.709 24.9761 202.421 26.4299 202.421 28.0313V34.3482C202.421 35.7575 201.88 37.0827 200.899 38.0863L198.549 40.4809V43.8855C198.549 48.6962 196.083 52.9527 192.414 54.4811L192.244 54.5525L191.481 54.8693C191.227 59.8777 191.506 61.8349 191.51 61.8555C191.518 61.9206 191.524 61.9913 191.524 62.0588C191.524 64.6217 192.988 66.9409 195.346 68.1121L195.92 68.3677C196.098 68.4471 196.244 68.5694 196.367 68.7091L211.114 74.6258C214.777 76.1019 217.143 79.5453 217.143 83.3985V84.275C218.18 84.1814 219.214 84.1488 220.249 84.175C222.025 84.2203 223.803 84.4291 225.595 84.8253C226.13 84.946 226.539 85.3787 226.627 85.921L227.544 91.6995C229.549 92.4903 231.407 93.5614 233.084 94.8969L238.546 92.8031C239.056 92.6062 239.638 92.7428 240.009 93.1493C241.403 94.6698 242.613 96.3117 243.603 98.0251C244.593 99.7385 245.407 101.607 246.03 103.576C246.194 104.101 246.024 104.672 245.596 105.018ZM155.356 95.5964C154.619 95.5964 154.019 96.1958 154.019 96.9334V128.382C154.019 129.12 154.619 129.717 155.356 129.717C156.094 129.717 156.694 129.12 156.694 128.382V96.9334C156.694 96.1958 156.094 95.5964 155.356 95.5964ZM192.121 90.5999H203.582C204.322 90.5999 204.919 90.0028 204.919 89.2628C204.919 88.5252 204.322 87.9273 203.582 87.9273H192.121C191.382 87.9273 190.784 88.5252 190.784 89.2628C190.784 90.0028 191.382 90.5999 192.121 90.5999ZM13.2153 117.879C13.2701 117.886 13.3241 117.887 13.3781 117.887C14.0442 117.887 14.6215 117.392 14.7032 116.713C15.2741 112.025 16.1165 107.328 17.2082 102.749C17.3797 102.029 16.9367 101.308 16.2182 101.137C15.4996 100.966 14.7787 101.41 14.608 102.127C13.4924 106.804 12.6318 111.603 12.049 116.39C11.9601 117.123 12.4817 117.79 13.2153 117.879ZM19.5671 89.9496C19.7172 90.0044 19.8712 90.029 20.0221 90.029C20.5691 90.029 21.0821 89.6916 21.2798 89.1469C22.8852 84.7141 24.7637 80.3234 26.8622 76.0979C27.1909 75.4373 26.921 74.6346 26.2596 74.3051C25.5982 73.9756 24.7955 74.2463 24.4676 74.9085C22.3238 79.2238 20.4056 83.7097 18.7652 88.2362C18.5135 88.9317 18.8724 89.6979 19.5671 89.9496ZM127.451 6.59794C127.494 6.59794 127.538 6.59794 127.581 6.59159C131.636 6.19937 135.768 6.00246 139.864 6.00246C140.478 5.99849 141.131 6.00643 141.76 6.01437C142.521 5.99849 143.106 5.43715 143.116 4.69717C143.127 3.95956 142.537 3.35137 141.799 3.34185C141.154 3.33153 140.549 3.33549 139.864 3.32756C135.683 3.32756 131.463 3.53081 127.323 3.93098C126.589 4.00244 126.051 4.65667 126.122 5.39031C126.189 6.08186 126.77 6.59794 127.451 6.59794ZM50.8959 42.2086C51.2325 42.2086 51.5692 42.0823 51.8296 41.8283C55.2056 38.5356 58.8039 35.3994 62.5244 32.5054C63.1072 32.052 63.212 31.212 62.7587 30.6292C62.3053 30.0457 61.4653 29.9416 60.8825 30.395C57.0833 33.3486 53.4096 36.5515 49.9622 39.9156C49.4334 40.4301 49.423 41.2772 49.9383 41.806C50.2003 42.0744 50.5481 42.2086 50.8959 42.2086ZM99.4459 12.5488C99.5865 12.5488 99.7286 12.5266 99.8691 12.4797C104.338 10.9863 108.944 9.73177 113.558 8.752C114.282 8.59797 114.741 7.88816 114.589 7.16723C114.435 6.44312 113.725 5.98023 113.003 6.13664C108.292 7.13626 103.587 8.41694 99.0212 9.94376C98.3225 10.1772 97.9437 10.9354 98.178 11.6365C98.3645 12.1955 98.887 12.5488 99.4459 12.5488ZM32.0334 64.1581C32.2581 64.3026 32.509 64.3716 32.7575 64.3716C33.1965 64.3716 33.6261 64.1565 33.8825 63.7603C36.4391 59.8023 39.2514 55.9444 42.2415 52.2905C42.7092 51.7188 42.625 50.8772 42.0534 50.4104C41.4817 49.9403 40.6401 50.0261 40.1724 50.5969C37.1188 54.327 34.247 58.2683 31.6364 62.3105C31.2354 62.9306 31.4133 63.7579 32.0334 64.1581ZM73.4964 24.6347C73.7346 24.6347 73.9752 24.572 74.1927 24.4378C78.2166 21.9781 82.4207 19.7224 86.6899 17.7343C87.3592 17.4214 87.649 16.6267 87.337 15.9581C87.0258 15.2872 86.231 14.9982 85.5609 15.3095C81.2012 17.3397 76.9073 19.6446 72.7977 22.1575C72.1681 22.541 71.9696 23.3643 72.3547 23.9948C72.6064 24.4068 73.0462 24.6347 73.4964 24.6347ZM265.536 153.508C264.809 153.374 264.116 153.86 263.986 154.588C263.16 159.173 262.067 163.761 260.735 168.222C260.524 168.928 260.926 169.674 261.634 169.885C261.762 169.921 261.89 169.94 262.016 169.94C262.593 169.94 263.123 169.566 263.299 168.987C264.657 164.429 265.775 159.745 266.615 155.06C266.748 154.334 266.264 153.638 265.536 153.508ZM253.656 71.7318C253.308 71.0792 252.499 70.8314 251.847 71.1792C251.196 71.5246 250.949 72.3352 251.294 72.9879C253.483 77.0999 255.461 81.3802 257.173 85.7082C257.381 86.2322 257.884 86.5514 258.416 86.5514C258.581 86.5514 258.748 86.5212 258.908 86.4577C259.595 86.1854 259.931 85.4088 259.66 84.7221C257.91 80.3028 255.889 75.9327 253.656 71.7318ZM257.736 180.699C257.054 180.41 256.27 180.727 255.982 181.405C254.16 185.688 252.077 189.92 249.786 193.977C249.422 194.622 249.65 195.437 250.294 195.8C250.502 195.916 250.727 195.973 250.949 195.973C251.416 195.973 251.87 195.727 252.115 195.292C254.452 191.148 256.583 186.827 258.443 182.453C258.731 181.774 258.414 180.987 257.736 180.699ZM237.523 48.142C237.041 47.583 236.196 47.5179 235.637 48.0014C235.078 48.481 235.015 49.3266 235.497 49.8855C238.536 53.4179 241.41 57.156 244.038 60.998C244.296 61.3776 244.714 61.5808 245.141 61.5808C245.402 61.5808 245.666 61.5062 245.896 61.3474C246.505 60.9305 246.662 60.0993 246.245 59.4895C243.56 55.5649 240.627 51.7474 237.523 48.142ZM267.146 125.264C266.408 125.294 265.835 125.918 265.867 126.656C265.943 128.459 265.982 130.292 265.982 132.106C265.982 134.957 265.886 137.841 265.697 140.673C265.646 141.41 266.203 142.047 266.941 142.096C266.971 142.1 267.002 142.1 267.031 142.1C267.729 142.1 268.317 141.559 268.364 140.851C268.559 137.959 268.657 135.018 268.657 132.106C268.657 130.256 268.615 128.384 268.538 126.542C268.508 125.805 267.888 125.229 267.146 125.264ZM264.499 112.709C264.601 113.37 265.17 113.84 265.819 113.84C265.888 113.84 265.955 113.836 266.024 113.827C266.756 113.713 267.256 113.03 267.142 112.3C266.417 107.597 265.419 102.887 264.175 98.3038C263.979 97.59 263.246 97.1692 262.534 97.363C261.82 97.5559 261.4 98.2911 261.593 99.0025C262.811 103.493 263.788 108.103 264.499 112.709ZM215.008 30.8158C218.746 33.5908 222.37 36.6087 225.779 39.7838C226.038 40.0236 226.365 40.1411 226.689 40.1411C227.049 40.1411 227.407 39.9989 227.669 39.7163C228.173 39.1756 228.143 38.3284 227.602 37.8266C224.121 34.584 220.419 31.5026 216.604 28.6697C216.01 28.2282 215.173 28.3521 214.732 28.9436C214.293 29.5375 214.415 30.3752 215.008 30.8158ZM147.169 258.003C142.295 258.282 137.321 258.278 132.447 257.996C131.716 257.963 131.08 258.516 131.034 259.252C130.991 259.989 131.555 260.621 132.293 260.664C134.803 260.81 137.356 260.884 139.878 260.884C142.352 260.884 144.858 260.813 147.321 260.672C148.06 260.632 148.622 260 148.58 259.262C148.539 258.523 147.901 257.963 147.169 258.003ZM34.2168 200.965C33.8127 200.347 32.9838 200.173 32.3668 200.577C31.7483 200.982 31.5745 201.809 31.9778 202.429C34.7075 206.608 37.7143 210.673 40.9148 214.513C41.1792 214.829 41.5595 214.994 41.9422 214.994C42.2439 214.994 42.5472 214.892 42.7973 214.683C43.365 214.209 43.4412 213.368 42.9688 212.801C39.8342 209.041 36.8901 205.059 34.2168 200.965ZM89.6816 247.825C85.1988 245.877 80.7796 243.641 76.5469 241.178C75.9085 240.806 75.0907 241.023 74.7191 241.662C74.3476 242.299 74.5635 243.117 75.2019 243.489C79.5243 246.005 84.0372 248.288 88.6161 250.277C88.7892 250.353 88.9702 250.388 89.1489 250.388C89.6657 250.388 90.1572 250.087 90.3748 249.583C90.6693 248.905 90.3581 248.119 89.6816 247.825ZM64.2768 233.046C60.3656 230.11 56.5831 226.913 53.034 223.541C52.4989 223.033 51.6525 223.055 51.1436 223.59C50.6354 224.124 50.6569 224.972 51.192 225.48C54.8165 228.923 58.6784 232.187 62.6721 235.184C62.9127 235.365 63.1946 235.452 63.4733 235.452C63.8798 235.452 64.2815 235.267 64.5443 234.918C64.9874 234.326 64.8675 233.489 64.2768 233.046ZM117.829 256.29C113.005 255.438 108.186 254.294 103.506 252.885C102.796 252.672 102.052 253.074 101.841 253.782C101.627 254.487 102.027 255.233 102.735 255.447C107.518 256.886 112.439 258.054 117.364 258.922C117.442 258.936 117.52 258.943 117.597 258.943C118.235 258.943 118.798 258.487 118.912 257.839C119.042 257.111 118.556 256.418 117.829 256.29ZM177.78 253.825C177.991 254.53 177.591 255.276 176.883 255.487C172.1 256.92 167.178 258.084 162.253 258.947C162.176 258.961 162.099 258.967 162.021 258.967C161.383 258.967 160.82 258.509 160.706 257.861C160.578 257.133 161.064 256.44 161.791 256.312C166.615 255.469 171.434 254.329 176.115 252.926C176.825 252.715 177.568 253.115 177.78 253.825Z" fill="white"/>
</mask>
<g mask="url(#mask1_670_192)">
<path d="M134.5 -134.157L-130.098 130.442L134.5 395.04L399.098 130.442L134.5 -134.157Z" fill="black"/>
</g>
</g>
<path d="M62.8877 158.744H61.0861L66.2969 144.553H68.0707L73.2815 158.744H71.4799L67.2392 146.798H67.1284L62.8877 158.744ZM63.5529 153.201H70.8147V154.725H63.5529V153.201Z" fill="black"/>
<path d="M75.3846 158.744V148.101H77.0199V158.744H75.3846ZM76.2161 146.327C75.8973 146.327 75.6225 146.219 75.3915 146.002C75.1651 145.784 75.052 145.523 75.052 145.219C75.052 144.914 75.1651 144.653 75.3915 144.436C75.6225 144.218 75.8973 144.11 76.2161 144.11C76.5348 144.11 76.8074 144.218 77.0337 144.436C77.2647 144.653 77.3802 144.914 77.3802 145.219C77.3802 145.523 77.2647 145.784 77.0337 146.002C76.8074 146.219 76.5348 146.327 76.2161 146.327Z" fill="black"/>
</svg>
