<svg width="283" height="261" viewBox="0 0 283 261" fill="none" xmlns="http://www.w3.org/2000/svg">
<mask id="mask0_670_204" style="mask-type:luminance" maskUnits="userSpaceOnUse" x="0" y="0" width="283" height="261">
<path d="M0.770813 0H282.229V261H0.770813V0Z" fill="white"/>
</mask>
<g mask="url(#mask0_670_204)">
<mask id="mask1_670_204" style="mask-type:luminance" maskUnits="userSpaceOnUse" x="0" y="0" width="283" height="261">
<path d="M107.031 204.965C107.031 207.792 109.332 210.093 112.16 210.093C114.987 210.093 117.288 207.792 117.288 204.965V199.847C117.288 198.121 118.532 196.941 119.696 196.414C126.498 193.334 130.711 186.517 130.427 179.05C130.068 169.563 122.354 161.849 112.866 161.489C107.856 161.307 103.094 163.107 99.4828 166.586C95.868 170.065 93.8786 174.742 93.8786 179.757C93.8786 182.584 96.1797 184.885 99.008 184.885C101.836 184.885 104.136 182.584 104.136 179.757C104.136 177.555 105.01 175.503 106.595 173.975C108.104 172.523 110.07 171.73 112.161 171.73C112.267 171.73 112.372 171.735 112.478 171.737C116.568 171.894 120.022 175.348 120.177 179.438C120.303 182.722 118.454 185.718 115.465 187.071C110.343 189.392 107.031 194.407 107.031 199.847V204.965ZM112.16 227.926C114.745 227.926 116.848 225.825 116.848 223.239C116.848 220.655 114.745 218.551 112.16 218.551C109.576 218.551 107.472 220.655 107.472 223.239C107.472 225.825 109.576 227.926 112.16 227.926ZM119.485 223.239C119.485 223.37 119.472 223.497 119.466 223.625C119.264 227.485 116.07 230.564 112.16 230.564C108.121 230.564 104.834 227.28 104.834 223.241C104.834 223.239 104.834 223.239 104.834 223.239C104.834 219.593 107.515 216.569 111.006 216.013V212.636C107.271 212.077 104.394 208.855 104.394 204.965V199.847C104.394 193.374 108.313 187.414 114.378 184.67C116.383 183.76 117.627 181.745 117.542 179.537C117.439 176.794 115.121 174.477 112.377 174.374C110.893 174.321 109.489 174.849 108.425 175.875C107.36 176.9 106.773 178.279 106.773 179.757C106.773 184.039 103.29 187.522 99.008 187.522C94.7248 187.522 91.2408 184.039 91.2408 179.757C91.2408 174.019 93.5177 168.666 97.6516 164.684C101.312 161.162 105.996 159.143 111.006 158.872V112.845C111.006 112.116 111.597 111.527 112.327 111.527H116.05L97.7905 101.016L79.5294 111.527H83.2524C83.9807 111.527 84.5709 112.116 84.5709 112.845V185.358C84.5709 186.088 83.9807 186.677 83.2524 186.677H56.0243C55.8709 186.677 55.7466 186.803 55.7466 186.956V205.097C55.7466 205.827 55.1564 206.416 54.4273 206.416H26.8569C26.7035 206.416 26.5792 206.54 26.5792 206.695V223.241C26.5792 223.969 25.9882 224.56 25.2599 224.56C24.5316 224.56 23.9406 223.969 23.9406 223.241V206.695C23.9406 205.087 25.2486 203.779 26.8569 203.779H53.1088V186.956C53.1088 185.347 54.4168 184.039 56.0243 184.039H81.9331V114.164H79.3631C78.1714 114.164 77.1646 113.391 76.8577 112.239C76.5493 111.088 77.0362 109.917 78.0689 109.321L97.1308 98.3521C97.5377 98.1164 98.04 98.1164 98.4477 98.3521L117.509 109.321C118.542 109.917 119.028 111.088 118.72 112.239C118.414 113.391 117.406 114.164 116.215 114.164H113.645V158.911C124.185 159.66 132.66 168.322 133.063 178.949C133.387 187.495 128.567 195.294 120.785 198.818C120.696 198.858 119.925 199.225 119.925 199.847V204.965C119.925 208.739 117.22 211.889 113.645 212.586V216.065C116.976 216.753 119.485 219.709 119.485 223.239ZM45.076 145.093C45.076 138.356 39.5945 132.874 32.8567 132.874C26.119 132.874 20.6367 138.356 20.6367 145.093C20.6367 151.832 26.119 157.313 32.8567 157.313C39.5945 157.313 45.076 151.832 45.076 145.093ZM47.7146 145.093C47.7146 153.285 41.0495 159.951 32.8567 159.951C24.664 159.951 17.9989 153.285 17.9989 145.093C17.9989 136.901 24.664 130.236 32.8567 130.236C41.0495 130.236 47.7146 136.901 47.7146 145.093ZM49.4521 162.677L56.1245 165.234C57.4268 163.734 58.5669 162.14 59.5212 160.488C60.4747 158.837 61.2838 157.054 61.9337 155.175L56.3844 150.677C56.009 150.373 55.8298 149.887 55.9186 149.411C56.1971 147.911 56.3336 146.498 56.3336 145.093C56.3336 143.686 56.1971 142.275 55.9186 140.776C55.8298 140.301 56.0082 139.815 56.3844 139.509L61.9337 135.013C61.2838 133.134 60.4747 131.351 59.5204 129.7C58.5669 128.048 57.4268 126.454 56.1245 124.951L49.4521 127.511C48.9999 127.684 48.4881 127.595 48.1215 127.281C45.9213 125.394 43.4071 123.943 40.6506 122.971C40.1944 122.81 39.8626 122.414 39.7867 121.934L38.6652 114.873C34.7614 114.118 30.9521 114.118 27.0475 114.873L25.9268 121.934C25.8509 122.414 25.5191 122.81 25.0629 122.971C22.3064 123.943 19.7922 125.394 17.592 127.281C17.2246 127.595 16.7135 127.684 16.2614 127.511L9.58821 124.951C8.28587 126.454 7.14581 128.048 6.19227 129.7C5.23873 131.351 4.4289 133.134 3.77975 135.013L9.32822 139.509C9.70366 139.815 9.88291 140.301 9.79409 140.776C9.51554 142.275 9.3799 143.689 9.3799 145.093C9.3799 146.502 9.51554 147.913 9.7949 149.41C9.88291 149.887 9.70447 150.373 9.32903 150.677L3.77975 155.175C4.4289 157.054 5.23873 158.837 6.19308 160.488C7.14662 162.14 8.28667 163.734 9.58821 165.234L16.2614 162.677C16.7135 162.502 17.2246 162.591 17.592 162.907C19.793 164.794 22.3064 166.245 25.0629 167.216C25.5191 167.378 25.8509 167.774 25.9268 168.252L27.0475 175.315C30.9537 176.069 34.759 176.069 38.6652 175.315L39.7867 168.252C39.8626 167.774 40.1944 167.378 40.6506 167.216C43.4071 166.245 45.9205 164.794 48.1215 162.907C48.4881 162.591 48.9999 162.502 49.4521 162.677ZM56.0308 168.023L55.1152 167.673L49.2292 165.416C47.1324 167.106 44.7982 168.452 42.2711 169.428L41.1278 176.627C41.043 177.163 40.6393 177.592 40.1104 177.708C37.6794 178.248 35.2378 178.521 32.8567 178.521C30.4741 178.521 28.0341 178.248 25.6022 177.708C25.0742 177.592 24.6705 177.163 24.5857 176.627L23.4424 169.428C20.9153 168.452 18.5802 167.106 16.4842 165.416L9.68267 168.024C9.17482 168.219 8.60318 168.083 8.23742 167.684C6.55722 165.85 5.10066 163.872 3.90813 161.807C2.7164 159.742 1.73218 157.494 0.983718 155.118C0.820622 154.601 0.990177 154.039 1.41083 153.699L7.0675 149.114C6.85111 147.746 6.74211 146.396 6.74211 145.093C6.74211 143.792 6.85111 142.442 7.0675 141.073L1.41083 136.489C0.990177 136.148 0.820622 135.584 0.983718 135.067C1.73218 132.694 2.7164 130.446 3.90813 128.38C5.09986 126.316 6.55722 124.338 8.23742 122.504C8.60398 122.105 9.17724 121.969 9.68267 122.163L16.4834 124.772C18.5802 123.08 20.9153 121.733 23.4424 120.758L24.5857 113.559C24.6705 113.023 25.0742 112.596 25.603 112.478C30.4628 111.401 35.2499 111.401 40.1104 112.478C40.6393 112.596 41.043 113.023 41.1278 113.559L42.2711 120.758C44.7764 121.725 47.0921 123.06 49.1743 124.73C49.1921 124.744 49.2115 124.757 49.2292 124.772L56.0308 122.163C56.537 121.969 57.1095 122.105 57.4752 122.504C59.1563 124.338 60.6128 126.316 61.8053 128.38C62.9971 130.446 63.9813 132.694 64.7298 135.067C64.892 135.584 64.7225 136.148 64.3018 136.489L58.646 141.073C58.8616 142.442 58.9714 143.792 58.9714 145.093C58.9714 146.394 58.8616 147.743 58.6452 149.114L64.3018 153.699C64.7225 154.039 64.892 154.601 64.7298 155.118C63.9813 157.494 62.9971 159.742 61.8053 161.807C60.6128 163.872 59.1563 165.848 57.4752 167.684C57.1103 168.083 56.537 168.219 56.0308 168.023ZM186.905 87.4917C186.905 86.8345 186.83 86.1813 186.679 85.5491C186.51 84.8402 185.803 84.4018 185.09 84.5714C184.383 84.7385 183.945 85.4498 184.112 86.1587C184.216 86.5907 184.267 87.0396 184.267 87.4917C184.267 90.6713 181.681 93.2566 178.505 93.2566C175.325 93.2566 172.74 90.6713 172.74 87.4917C172.74 84.3154 175.325 81.7293 178.505 81.7293C178.916 81.7293 179.325 81.7729 179.722 81.8577C180.433 82.0103 181.136 81.5581 181.289 80.8444C181.441 80.1339 180.987 79.4331 180.276 79.2797C179.697 79.1537 179.1 79.0923 178.505 79.0923C173.87 79.0923 170.102 82.8597 170.102 87.4917C170.102 92.1262 173.87 95.8944 178.505 95.8944C183.137 95.8944 186.905 92.1262 186.905 87.4917ZM134.803 11.9802C134.803 6.82901 130.777 2.6394 125.827 2.6394C120.876 2.6394 116.849 6.82901 116.849 11.9802C116.849 17.1307 120.876 21.3211 125.827 21.3211C130.777 21.3211 134.803 17.1307 134.803 11.9802ZM145.692 20.4709C139.278 20.4709 134.061 25.895 134.061 32.5585C134.061 39.2244 139.278 44.6461 145.692 44.6461C152.104 44.6461 157.323 39.2244 157.323 32.5585C157.323 25.895 152.104 20.4709 145.692 20.4709ZM128.199 49.1975C129.993 47.0029 132.612 44.3692 135.679 43.0362C133.056 40.3637 131.424 36.6553 131.424 32.5585C131.424 29.0035 132.652 25.74 134.691 23.191C133.85 22.6476 132.951 22.2464 132.028 22.0913C130.229 23.2677 128.108 23.9581 125.827 23.9581C123.6 23.9581 121.525 23.2968 119.756 22.1721C119.723 22.1802 119.691 22.189 119.658 22.1995C119.785 22.9746 119.865 23.7635 119.865 24.5765C119.865 28.4617 118.357 31.9861 115.917 34.5762C119.964 36.1078 123.253 40.031 125.052 42.5897C126.376 44.4725 127.4 46.7236 128.199 49.1975ZM155.877 42.8497C159.563 44.2263 162.635 47.5399 164.58 50.1155C165.487 47.0522 166.701 44.2723 168.358 42.0253C170.034 39.7557 172.998 36.3436 176.599 34.7603C174.059 32.1556 172.483 28.553 172.483 24.5765C172.483 23.7433 172.566 22.9327 172.699 22.139C170.919 23.2847 168.823 23.9581 166.574 23.9581C164.346 23.9581 162.27 23.2968 160.501 22.1721C159.466 22.4434 158.36 23.0425 157.238 23.9435C158.943 26.3706 159.96 29.3402 159.96 32.5585C159.96 36.5624 158.4 40.1941 155.877 42.8497ZM130.485 84.4147L150.33 84.4164C151.429 74.2762 157.902 65.729 166.831 61.6759C165.993 58.1871 164.821 55.0059 163.139 52.6103C161.605 50.432 157.736 45.5577 153.429 44.9126C151.199 46.4071 148.544 47.2855 145.692 47.2855C142.898 47.2855 140.297 46.4402 138.094 45.0014C134.226 45.9275 130.733 50.1405 129.301 52.0791C125.031 57.8625 123.832 68.2546 123.266 76.6613C123.127 78.6975 123.817 80.6361 125.207 82.1217C126.587 83.6001 128.464 84.4147 130.485 84.4147ZM205.84 49.1442C205.17 47.2508 204.354 45.5327 203.351 44.1068C201.865 41.9922 198.112 37.2649 193.938 36.6351C191.764 38.0876 189.18 38.9394 186.402 38.9394C183.682 38.9394 181.148 38.1191 179.003 36.7199C175.258 37.625 171.87 41.7088 170.481 43.5925C168.647 46.0744 167.399 49.4332 166.526 53.1142C167.728 55.345 168.631 57.9182 169.319 60.686C172.202 59.6937 175.288 59.1479 178.505 59.1479C184.389 59.1479 190.032 60.9355 194.825 64.3177C194.883 64.3589 194.939 64.4041 194.99 64.4557L195.026 64.4913L195.4 59.4313C195.425 59.1027 195.572 58.7942 195.812 58.5674L205.84 49.1442ZM202.08 71.7934C202.715 72.7445 203.306 73.7158 203.816 74.7243C205.014 74.3811 206.1 73.7263 206.981 72.7881C208.035 71.6634 208.665 70.2699 208.831 68.7762L205.768 71.6384C205.524 71.8677 205.202 71.9937 204.867 71.9937C204.836 71.9937 204.803 71.9937 204.77 71.992L202.08 71.7934ZM210.149 48.7138L197.992 60.1378L197.355 68.8004L204.389 69.3171L217.498 57.0688L210.882 56.4899C210.162 56.4277 209.627 55.7996 209.68 55.0802L210.149 48.7138ZM197.684 24.5765C197.684 18.1084 192.624 12.8482 186.402 12.8482C180.181 12.8482 175.121 18.1084 175.121 24.5765C175.121 31.0414 180.181 36.3016 186.402 36.3016C192.624 36.3016 197.684 31.0414 197.684 24.5765ZM166.574 2.6394C161.624 2.6394 157.596 6.82901 157.596 11.9802C157.596 17.1307 161.624 21.3211 166.574 21.3211C171.522 21.3211 175.551 17.1307 175.551 11.9802C175.551 6.82901 171.522 2.6394 166.574 2.6394ZM105.946 36.3016C112.165 36.3016 117.228 31.0414 117.228 24.5765C117.228 18.1084 112.165 12.8482 105.946 12.8482C99.725 12.8482 94.6634 18.1084 94.6634 24.5765C94.6634 31.0414 99.725 36.3016 105.946 36.3016ZM86.0371 72.7817C87.375 74.2116 89.19 74.9996 91.148 74.9996L120.739 75.0012C121.355 66.7625 122.577 57.9287 126.238 51.9281C125.444 48.927 124.371 46.2068 122.893 44.1068C121.407 41.9922 117.656 37.2649 113.482 36.6351C111.308 38.0876 108.723 38.9394 105.946 38.9394C103.224 38.9394 100.692 38.1191 98.5446 36.7199C94.7998 37.625 91.4136 41.7088 90.0233 43.5925C85.8756 49.2104 84.7097 59.3174 84.1567 67.494C84.0243 69.4641 84.6912 71.3413 86.0371 72.7817ZM81.5253 67.3164C81.6206 65.8986 81.7353 64.4557 81.8717 63.0089C82.6073 55.1916 84.0816 47.1991 87.9014 42.0253C89.5768 39.7557 92.5407 36.3436 96.1409 34.7603C93.6017 32.1556 92.0256 28.553 92.0256 24.5765C92.0256 16.6559 98.2701 10.2112 105.946 10.2112C109.065 10.2112 111.939 11.2875 114.264 13.084C114.231 12.7182 114.212 12.35 114.212 11.9802C114.212 5.37407 119.421 0 125.827 0C132.232 0 137.44 5.37407 137.44 11.9802C137.44 12.371 137.422 12.7594 137.385 13.1461C137.369 13.3278 137.335 13.5038 137.31 13.683C137.284 13.8801 137.259 14.0779 137.222 14.2741C137.18 14.4937 137.126 14.7068 137.072 14.9192C137.035 15.0702 137.002 15.2212 136.961 15.3697C136.897 15.595 136.819 15.8146 136.742 16.0334C136.694 16.1674 136.651 16.3023 136.599 16.4347C136.517 16.6494 136.421 16.8578 136.326 17.0669C136.266 17.2009 136.207 17.3357 136.14 17.4657C136.041 17.6619 135.935 17.8525 135.828 18.0406C135.748 18.1787 135.669 18.3175 135.584 18.454C135.477 18.6276 135.361 18.7947 135.245 18.9627C135.147 19.1048 135.045 19.2452 134.94 19.3841C134.822 19.5367 134.702 19.6837 134.578 19.8306C134.516 19.9049 134.458 19.9856 134.394 20.0599C135.148 20.378 135.87 20.7938 136.55 21.2694C139.028 19.1274 142.215 17.8339 145.692 17.8339C149.509 17.8339 152.974 19.3987 155.537 21.9282C155.71 21.7861 155.89 21.6473 156.072 21.5108C156.087 21.5003 156.101 21.4882 156.117 21.4777C156.758 21.0022 157.441 20.5742 158.158 20.2295C158.048 20.1092 157.948 19.9792 157.843 19.8548C157.742 19.7353 157.638 19.6199 157.541 19.4955C157.411 19.3284 157.291 19.1564 157.169 18.9828C157.072 18.8424 156.971 18.7059 156.878 18.5614C156.774 18.3999 156.682 18.2328 156.586 18.0656C156.492 17.9001 156.394 17.7346 156.305 17.5626C156.227 17.4124 156.161 17.255 156.088 17.1C155.999 16.9054 155.909 16.7132 155.828 16.5154C155.772 16.3701 155.725 16.2215 155.673 16.0746C155.596 15.8622 155.518 15.6491 155.454 15.4278C155.411 15.2769 155.378 15.1218 155.341 14.9692C155.285 14.7496 155.227 14.5324 155.183 14.3096C155.146 14.1174 155.123 13.9228 155.097 13.7266C155.069 13.5385 155.035 13.3528 155.016 13.1623C154.979 12.7715 154.958 12.3767 154.958 11.9802C154.958 5.37407 160.169 0 166.574 0C172.977 0 178.188 5.37407 178.188 11.9802C178.188 12.3355 178.17 12.6916 178.141 13.0428C180.454 11.2713 183.307 10.2112 186.402 10.2112C194.079 10.2112 200.323 16.6559 200.323 24.5765C200.323 28.4617 198.813 31.9861 196.375 34.5762C200.42 36.1078 203.709 40.031 205.509 42.5897C206.462 43.9453 207.254 45.4996 207.923 47.1846L210.809 44.4725C211.205 44.1003 211.791 44.0099 212.281 44.2432C212.77 44.4766 213.068 44.9877 213.029 45.531L212.407 53.9765L220.672 54.6975C221.193 54.7435 221.636 55.0907 221.805 55.5824C221.975 56.0741 221.841 56.6199 221.46 56.976L211.431 66.3475C211.454 66.6818 211.478 67.0193 211.499 67.3519C211.624 69.2549 211.164 71.1443 210.23 72.7817C209.86 73.4284 209.422 74.0404 208.905 74.5919C207.779 75.7949 206.405 76.6613 204.892 77.157C206.173 80.4213 206.849 83.9061 206.849 87.4917C206.849 92.7132 205.416 97.8144 202.708 102.246C200.993 104.71 199.176 106.812 197.262 108.563C196.727 109.057 195.891 109.02 195.4 108.482C195.295 108.368 195.229 108.236 195.17 108.102C194.957 107.602 195.057 107.006 195.483 106.617C197.252 104.997 198.94 103.042 200.503 100.805C202.913 96.8536 204.209 92.2272 204.209 87.4917C204.209 82.0684 202.543 76.8865 199.387 72.5007L198.395 71.5205L196.529 71.3841L191.973 75.9257C192.576 76.6403 193.134 77.4154 193.643 78.2591C195.338 81.0269 196.235 84.2218 196.235 87.4917C196.235 90.5179 195.458 93.5069 193.99 96.1342C193.635 96.7688 192.831 96.9981 192.196 96.642C191.56 96.2868 191.332 95.4826 191.687 94.8464C192.936 92.6115 193.598 90.0698 193.598 87.4917C193.598 84.7102 192.833 81.9901 191.388 79.6276C190.991 78.968 190.549 78.3729 190.088 77.8061L179.435 88.4259C179.178 88.6827 178.842 88.811 178.505 88.811C178.166 88.811 177.829 88.6827 177.571 88.4243C177.056 87.9076 177.058 87.0727 177.572 86.56L188.238 75.9273C187.733 75.5075 187.21 75.1191 186.655 74.7865C184.199 73.2177 181.392 72.399 178.505 72.399C170.181 72.399 163.412 79.1707 163.412 87.4917C163.412 95.5698 169.726 102.192 177.785 102.568C178.513 102.604 179.075 103.222 179.042 103.949C179.009 104.654 178.426 105.206 177.726 105.206C177.705 105.206 177.684 105.206 177.664 105.204C168.193 104.761 160.774 96.9811 160.774 87.4917C160.774 77.7157 168.728 69.762 178.505 69.762C181.897 69.762 185.195 70.7228 188.042 72.5435C188.773 72.9803 189.464 73.4865 190.119 74.0509L194.656 69.5262L194.772 67.947L193.215 66.4113C188.889 63.3851 183.806 61.7873 178.505 61.7873C164.329 61.7873 152.798 73.3186 152.798 87.4917C152.798 98.0606 159.416 107.699 169.274 111.493C173.24 112.688 177.002 113.205 180.452 113.032C181.009 113.002 181.514 113.339 181.727 113.833C181.787 113.974 181.828 114.122 181.836 114.282C181.872 115.01 181.314 115.63 180.586 115.667C180.104 115.691 179.621 115.702 179.131 115.702C175.774 115.702 172.194 115.133 168.466 114.003C168.434 113.995 168.403 113.984 168.374 113.974C157.479 109.803 150.16 99.1619 150.16 87.4917C150.16 87.3456 150.169 87.2003 150.171 87.0541L130.485 87.0517C127.724 87.0517 125.165 85.9415 123.28 83.9222C121.676 82.2089 120.746 79.9684 120.628 77.6406L91.148 77.639C88.452 77.639 85.9523 76.5539 84.1106 74.5822C82.2875 72.6331 81.3453 69.9832 81.5253 67.3164ZM226.13 183.473C225.902 183.473 225.716 183.659 225.716 183.887V188.857L231.358 200.511L232.556 203.113C234.05 206.344 237.245 208.433 240.693 208.433H264.461C267.931 208.433 271.135 206.325 272.623 203.062L273.758 200.589L279.44 188.857V183.887C279.44 183.659 279.254 183.473 279.026 183.473H263.481C263.477 183.473 263.473 183.473 263.469 183.473H241.083C241.079 183.473 241.075 183.473 241.071 183.473H226.13ZM242.404 180.836H262.15V172.355C262.15 172.165 261.993 172.007 261.803 172.007H242.75C242.559 172.007 242.404 172.165 242.404 172.355V180.836ZM279.44 223.772V194.909L276.143 201.716L275.023 204.159C273.109 208.357 268.963 211.071 264.461 211.071H240.693C236.222 211.071 232.087 208.382 230.162 204.219L228.973 201.635L225.716 194.909V223.772C225.716 223.999 225.902 224.183 226.13 224.183H279.026C279.254 224.183 279.44 223.999 279.44 223.772ZM282.078 183.887V223.772C282.078 225.453 280.709 226.821 279.026 226.821H226.13C224.447 226.821 223.078 225.453 223.078 223.772V183.887C223.078 182.204 224.447 180.836 226.13 180.836H239.765V172.355C239.765 170.71 241.104 169.37 242.75 169.37H261.803C263.448 169.37 264.787 170.71 264.787 172.355V180.836H279.026C280.709 180.836 282.078 182.204 282.078 183.887ZM163.558 161.677C163.8 161.867 164.09 161.96 164.375 161.96C164.765 161.96 165.15 161.789 165.41 161.46C165.863 160.887 165.766 160.059 165.193 159.608C164.081 158.727 163.443 157.421 163.443 156.022C163.443 154.796 163.929 153.641 164.811 152.773C165.33 152.262 165.336 151.427 164.826 150.908C164.315 150.389 163.48 150.383 162.961 150.894C161.57 152.262 160.805 154.083 160.805 156.022C160.805 158.232 161.808 160.294 163.558 161.677ZM169.885 208.211C170.441 210.835 172.781 212.801 175.586 212.737C177.11 212.71 178.536 212.088 179.602 210.984C180.361 210.201 180.863 209.244 181.085 208.211H169.885ZM176.833 128.596C176.894 128.97 176.934 129.35 176.934 129.738C176.934 129.742 176.936 129.745 176.936 129.749L177.213 191.819H187.165C187.531 191.819 187.835 191.532 187.841 191.177L187.859 190.226C187.859 182.39 190.77 174.484 196.057 167.985C200.119 162.994 202.198 156.687 201.915 150.226C201.32 136.692 190.615 125.257 178.54 125.257C177.894 125.257 177.618 125.486 177.446 125.689C176.882 126.354 176.797 127.645 176.833 128.596ZM156.128 167.9C157.722 170.465 159.437 173.996 159.528 174.186C162.04 179.043 163.374 184.944 163.374 191.218C163.383 191.54 163.68 191.819 164.051 191.819H173.449C173.916 191.819 174.298 191.45 174.298 190.994V178.473C173 179.558 171.322 180.213 169.493 180.213C168.484 180.213 167.508 179.98 166.773 179.775C163.637 178.912 161.482 176.605 161.115 173.744C161.113 173.735 161.107 173.73 161.105 173.719C161.103 173.705 161.103 173.69 161.101 173.676C161.101 173.667 161.096 173.659 161.096 173.649C161.095 173.641 161.096 173.63 161.096 173.62C161.037 173.21 161.026 172.777 161.026 172.361C161.026 170.346 161.8 168.427 163.203 166.964C163.708 166.44 164.542 166.423 165.07 166.927C165.595 167.431 165.611 168.264 165.107 168.792C164.177 169.76 163.664 171.028 163.664 172.361C163.664 172.609 163.664 173.025 163.708 173.283C163.709 173.295 163.708 173.307 163.709 173.32C163.712 173.331 163.716 173.34 163.717 173.353C163.926 175.191 165.33 176.642 167.473 177.233C168.05 177.392 168.8 177.574 169.493 177.574C172.143 177.574 174.298 175.461 174.298 172.866V148.669C174.265 148.56 174.243 148.447 174.24 148.329C174.189 145.79 172.072 143.792 169.451 143.815C168.606 143.831 167.783 144.069 167.072 144.501C166.731 144.708 166.419 144.957 166.142 145.243C165.634 145.765 164.798 145.778 164.276 145.269C163.753 144.761 163.742 143.926 164.249 143.403C164.683 142.959 165.171 142.568 165.702 142.246C166.812 141.572 168.091 141.202 169.4 141.177C171.271 141.125 172.981 141.786 174.298 142.899V129.755C174.298 129.73 174.294 129.708 174.294 129.683C174.255 129.571 174.224 129.457 174.216 129.333C174.127 128.083 173.535 126.987 172.651 126.214C172.63 126.198 172.612 126.177 172.591 126.161C172.405 126.003 172.201 125.867 171.99 125.739C171.929 125.704 171.87 125.664 171.807 125.631C171.614 125.524 171.409 125.437 171.2 125.359C171.12 125.327 171.041 125.297 170.958 125.272C170.741 125.204 170.518 125.152 170.289 125.114C170.216 125.102 170.142 125.09 170.068 125.082C169.828 125.055 169.581 125.049 169.334 125.059C169.23 125.061 169.127 125.073 169.026 125.084C168.8 125.109 168.577 125.139 168.362 125.193C168.315 125.206 168.267 125.218 168.218 125.231C167.345 125.476 166.562 125.962 165.956 126.656C165.154 127.578 164.757 128.751 164.842 129.96C164.927 131.185 165.493 132.303 166.433 133.112C166.987 133.585 167.052 134.418 166.576 134.97C166.316 135.274 165.946 135.43 165.576 135.43C165.272 135.43 164.966 135.327 164.716 135.112C163.236 133.841 162.346 132.078 162.211 130.144C162.178 129.67 162.192 129.201 162.25 128.738C161.415 127.595 160.1 126.915 158.656 126.915C156.213 126.915 154.224 128.864 154.224 131.259C154.224 131.992 154.414 132.717 154.776 133.355C155.022 133.79 155.001 134.325 154.724 134.739C154.448 135.152 153.96 135.371 153.467 135.315C153.282 135.292 153.096 135.275 152.905 135.275C150.461 135.275 148.47 137.223 148.47 139.618C148.47 140.937 149.096 142.181 150.148 143.004C152.318 143.052 154.338 144.023 155.704 145.7C156.165 146.263 156.08 147.095 155.516 147.555C154.95 148.015 154.121 147.93 153.659 147.365C152.762 146.266 151.424 145.634 149.989 145.634C148.738 145.634 147.61 146.121 146.767 146.904C146.726 146.944 146.678 146.977 146.638 147.018C146.56 147.099 146.496 147.192 146.421 147.277C145.74 148.093 145.316 149.12 145.316 150.237C145.316 150.707 145.39 151.164 145.522 151.596C145.531 151.619 145.537 151.64 145.545 151.662C145.615 151.881 145.707 152.09 145.808 152.293C145.87 152.413 145.932 152.533 146.002 152.647C146.045 152.717 146.087 152.789 146.135 152.857C146.984 154.054 148.391 154.841 149.989 154.841C150.377 154.841 150.723 155.013 150.964 155.28C151.157 155.452 151.31 155.673 151.376 155.935C151.527 156.518 151.262 157.128 150.735 157.417C149.338 158.188 148.47 159.639 148.47 161.206C148.47 163.599 150.461 165.548 152.905 165.548C152.955 165.548 153.005 165.551 153.054 165.556C153.054 165.556 153.36 165.585 153.81 165.58C153.821 165.58 153.829 165.58 153.838 165.58C153.875 165.58 153.91 165.589 153.947 165.592C153.995 165.584 154.041 165.571 154.087 165.569C154.783 165.53 155.762 165.383 156.498 164.901C157.108 164.503 157.924 164.674 158.323 165.284C158.722 165.894 158.55 166.712 157.94 167.109C157.366 167.485 156.737 167.733 156.128 167.9ZM166.111 205.573H184.866C186.357 205.573 187.616 204.509 187.616 203.247V194.414C187.467 194.434 187.318 194.459 187.165 194.459H175.9C175.545 194.459 175.224 194.316 174.987 194.087C174.52 194.316 174.003 194.459 173.449 194.459H164.051C163.813 194.459 163.583 194.432 163.36 194.385V203.247C163.36 204.509 164.621 205.573 166.111 205.573ZM167.215 208.211H166.111C163.139 208.211 160.723 205.984 160.723 203.247V192.274C160.723 192.115 160.756 191.962 160.807 191.821C160.772 191.638 160.741 191.45 160.737 191.255C160.737 185.364 159.503 179.883 157.169 175.366C156.459 173.899 154.507 170.073 153.178 168.209C153.026 168.202 152.909 168.192 152.838 168.186C148.968 168.149 145.833 165.031 145.833 161.206C145.833 159.67 146.347 158.205 147.252 157.014C146.409 156.663 145.657 156.15 145.003 155.536C144.919 155.457 144.832 155.381 144.751 155.298C144.668 155.216 144.59 155.129 144.513 155.042C143.36 153.761 142.653 152.082 142.653 150.238C142.653 148.384 143.368 146.695 144.533 145.414C144.541 145.406 144.546 145.399 144.553 145.391C144.739 145.189 144.933 144.999 145.14 144.817C145.711 144.305 146.353 143.868 147.065 143.548C146.273 142.402 145.833 141.036 145.833 139.618C145.833 136.159 148.395 133.279 151.746 132.731C151.64 132.248 151.584 131.756 151.584 131.259C151.584 127.409 154.758 124.278 158.656 124.278C160.342 124.278 161.923 124.856 163.172 125.885C164.245 124.174 165.996 122.973 168.011 122.569C168.133 122.544 168.252 122.517 168.374 122.498C168.496 122.479 168.618 122.467 168.743 122.456C168.838 122.447 168.931 122.43 169.028 122.423C169.137 122.415 169.242 122.419 169.352 122.418C169.4 122.415 169.445 122.407 169.493 122.407C169.526 122.407 169.556 122.411 169.588 122.414C169.787 122.414 169.983 122.426 170.179 122.442C170.214 122.444 170.252 122.447 170.286 122.451C170.525 122.475 170.755 122.51 170.987 122.556C170.99 122.556 170.991 122.558 170.994 122.558C171.703 122.7 172.378 122.944 173 123.277C173.017 123.287 173.036 123.296 173.052 123.304C173.221 123.397 173.385 123.496 173.546 123.6C173.593 123.633 173.644 123.662 173.69 123.692C173.808 123.773 173.92 123.858 174.032 123.945C174.121 124.013 174.21 124.079 174.294 124.149C174.352 124.199 174.406 124.25 174.461 124.3C174.62 124.443 174.775 124.589 174.922 124.744C175.063 124.478 175.231 124.224 175.429 123.99C176.185 123.093 177.262 122.62 178.54 122.62C191.983 122.62 203.895 135.21 204.55 150.111C204.863 157.217 202.572 164.155 198.101 169.651C193.199 175.679 190.497 182.995 190.497 190.251L190.479 191.226C190.472 191.61 190.386 191.974 190.253 192.318V203.247C190.253 205.984 187.837 208.211 184.866 208.211H183.761C183.513 209.932 182.738 211.536 181.5 212.818C179.941 214.428 177.857 215.335 175.631 215.375C175.584 215.375 175.534 215.375 175.487 215.375C171.295 215.375 167.8 212.268 167.215 208.211ZM215.021 152.591C215.021 142.711 223.151 134.672 233.14 134.672C233.202 134.672 233.262 134.68 233.324 134.68C243.229 134.78 251.259 142.771 251.259 152.591V155.648L245.091 152.093C244.461 151.729 243.655 151.946 243.291 152.576C242.928 153.209 243.145 154.014 243.774 154.379L251.927 159.078C252.131 159.195 252.359 159.254 252.586 159.254C252.813 159.254 253.041 159.195 253.245 159.078L261.398 154.379C262.03 154.014 262.245 153.209 261.884 152.576C261.517 151.946 260.711 151.729 260.081 152.093L253.897 155.658V152.591C253.897 141.312 244.678 132.13 233.312 132.039C233.254 132.037 233.198 132.035 233.14 132.035C221.695 132.035 212.384 141.256 212.384 152.591V235.879C212.384 245.759 204.257 253.796 194.265 253.796C184.275 253.796 176.146 245.759 176.146 235.879V220.337C176.146 219.971 175.997 219.64 175.757 219.4C175.52 219.165 175.191 219.018 174.827 219.018C174.118 219.018 173.546 219.579 173.515 220.279C173.515 220.297 173.509 220.317 173.509 220.337V235.879C173.509 247.214 182.82 256.434 194.265 256.434C205.712 256.434 215.021 247.214 215.021 235.879V152.591ZM18.3582 106.194C18.4599 106.219 18.5617 106.229 18.6618 106.229C19.2593 106.229 19.801 105.82 19.9439 105.214C21.038 100.572 22.417 95.9461 24.0415 91.4626C24.2894 90.7787 23.9357 90.0221 23.2511 89.7743C22.5664 89.5256 21.8099 89.8792 21.562 90.5639C19.902 95.1419 18.4947 99.8668 17.3772 104.609C17.2101 105.318 17.6493 106.026 18.3582 106.194ZM27.9356 78.8711C28.1254 78.9656 28.3264 79.0092 28.525 79.0092C29.0087 79.0092 29.4745 78.7427 29.7054 78.2793C31.837 74.0194 34.2422 69.8339 36.8558 65.8404C37.2539 65.2309 37.0835 64.4146 36.4739 64.0157C35.8643 63.6169 35.0472 63.788 34.6476 64.396C31.9799 68.4742 29.523 72.7486 27.3462 77.1013C27.0208 77.7529 27.284 78.5441 27.9356 78.8711ZM65.3264 34.8015C65.6026 34.8015 65.8819 34.7143 66.1201 34.535C69.9278 31.6574 73.9406 28.9744 78.0462 26.5603C78.6736 26.1905 78.8835 25.3823 78.5137 24.7542C78.1439 24.1252 77.3373 23.9145 76.7084 24.2867C72.5163 26.7525 68.4188 29.4912 64.5303 32.4285C63.949 32.8685 63.8335 33.6953 64.2728 34.2767C64.5319 34.6198 64.9268 34.8015 65.3264 34.8015ZM44.3743 54.7806C44.7522 54.7806 45.1276 54.6192 45.3884 54.3051C48.4396 50.6403 51.737 47.1144 55.1871 43.8234C55.7143 43.3212 55.7337 42.4863 55.2315 41.9591C54.7277 41.4319 53.8936 41.4133 53.3664 41.9155C49.8437 45.2743 46.4776 48.8753 43.361 52.6184C42.8952 53.1763 42.9711 54.0096 43.5306 54.4746C43.7777 54.6813 44.0764 54.7806 44.3743 54.7806ZM265.195 126.153C265.352 128.701 265.43 131.293 265.43 133.86C265.43 135.757 265.387 137.669 265.302 139.546C265.269 140.274 265.834 140.889 266.561 140.922C266.581 140.922 266.602 140.922 266.621 140.922C267.322 140.922 267.906 140.371 267.938 139.664C268.024 137.748 268.068 135.797 268.068 133.86C268.068 131.241 267.987 128.593 267.828 125.991C267.784 125.264 267.167 124.718 266.431 124.755C265.703 124.8 265.151 125.424 265.195 126.153ZM216.063 34.6255C219.608 37.3109 223.049 40.2208 226.29 43.2719C226.545 43.5117 226.872 43.6312 227.194 43.6312C227.545 43.6312 227.896 43.4932 228.154 43.2162C228.655 42.6866 228.63 41.8517 228.099 41.3511C224.79 38.2345 221.276 35.2641 217.655 32.5238C217.076 32.0854 216.247 32.1992 215.807 32.7797C215.368 33.3586 215.482 34.1878 216.063 34.6255ZM263.663 112.849C263.772 113.493 264.331 113.947 264.961 113.947C265.036 113.947 265.11 113.941 265.184 113.929C265.904 113.807 266.385 113.126 266.263 112.407C265.503 107.926 264.486 103.44 263.246 99.0731C263.047 98.3723 262.316 97.9654 261.616 98.1656C260.916 98.3642 260.509 99.0941 260.709 99.7941C261.922 104.069 262.917 108.462 263.663 112.849ZM243.692 63.5838C243.948 63.956 244.361 64.1562 244.781 64.1562C245.038 64.1562 245.298 64.0819 245.526 63.9269C246.127 63.5135 246.28 62.6924 245.869 62.0917C243.301 58.3477 240.499 54.6999 237.541 51.2458C237.066 50.692 236.233 50.6282 235.68 51.1013C235.126 51.5769 235.063 52.4077 235.536 52.9616C238.436 56.3454 241.179 59.919 243.692 63.5838ZM256.356 87.1341C256.565 87.6468 257.059 87.9568 257.58 87.9568C257.745 87.9568 257.913 87.9261 258.076 87.8599C258.75 87.587 259.074 86.8184 258.802 86.1426C257.094 81.9344 255.137 77.769 252.985 73.7675C252.64 73.1264 251.84 72.8866 251.199 73.2298C250.557 73.5754 250.317 74.3755 250.662 75.0182C252.77 78.9373 254.687 83.0131 256.356 87.1341ZM109.592 254.253C104.642 252.964 99.7226 251.349 94.9718 249.454C94.296 249.183 93.5274 249.514 93.2585 250.19C92.988 250.868 93.3175 251.635 93.9941 251.903C98.8482 253.84 103.871 255.49 108.929 256.806C109.041 256.836 109.152 256.85 109.262 256.85C109.847 256.85 110.382 256.455 110.537 255.862C110.721 255.157 110.297 254.438 109.592 254.253ZM170.576 254.729C165.616 255.939 160.518 256.85 155.427 257.435C154.703 257.519 154.185 258.173 154.267 258.898C154.346 259.569 154.914 260.066 155.576 260.066C155.628 260.066 155.677 260.062 155.729 260.055C160.927 259.456 166.134 258.528 171.2 257.292C171.909 257.121 172.343 256.408 172.169 255.699C171.998 254.991 171.285 254.557 170.576 254.729ZM81.0595 242.875C76.5824 240.407 72.2111 237.631 68.0676 234.626C67.4765 234.198 66.653 234.33 66.2251 234.919C65.7971 235.509 65.9287 236.333 66.5182 236.761C70.7497 239.83 75.2139 242.666 79.7854 245.186C79.9872 245.298 80.206 245.351 80.4208 245.351C80.8859 245.351 81.3372 245.103 81.577 244.667C81.929 244.03 81.6973 243.228 81.0595 242.875ZM141.361 259.584C141.357 260.31 140.766 260.893 140.043 260.893C140.041 260.893 140.037 260.893 140.032 260.893C134.793 260.853 129.518 260.49 124.356 259.814C123.633 259.719 123.125 259.055 123.22 258.334C123.315 257.612 123.98 257.1 124.698 257.197C129.756 257.86 134.921 258.216 140.053 258.255C140.783 258.261 141.368 258.856 141.361 259.584Z" fill="white"/>
</mask>
<g mask="url(#mask1_670_204)">
<mask id="mask2_670_204" style="mask-type:luminance" maskUnits="userSpaceOnUse" x="0" y="0" width="283" height="261">
<path d="M107.031 204.965C107.031 207.792 109.332 210.093 112.16 210.093C114.987 210.093 117.288 207.792 117.288 204.965V199.847C117.288 198.121 118.532 196.941 119.696 196.414C126.498 193.334 130.711 186.517 130.427 179.05C130.068 169.563 122.354 161.849 112.866 161.489C107.856 161.307 103.094 163.107 99.4828 166.586C95.868 170.065 93.8786 174.742 93.8786 179.757C93.8786 182.584 96.1797 184.885 99.008 184.885C101.836 184.885 104.136 182.584 104.136 179.757C104.136 177.555 105.01 175.503 106.595 173.975C108.104 172.523 110.07 171.73 112.161 171.73C112.267 171.73 112.372 171.735 112.478 171.737C116.568 171.894 120.022 175.348 120.177 179.438C120.303 182.722 118.454 185.718 115.465 187.071C110.343 189.392 107.031 194.407 107.031 199.847V204.965ZM112.16 227.926C114.745 227.926 116.848 225.825 116.848 223.239C116.848 220.655 114.745 218.551 112.16 218.551C109.576 218.551 107.472 220.655 107.472 223.239C107.472 225.825 109.576 227.926 112.16 227.926ZM119.485 223.239C119.485 223.37 119.472 223.497 119.466 223.625C119.264 227.485 116.07 230.564 112.16 230.564C108.121 230.564 104.834 227.28 104.834 223.241C104.834 223.239 104.834 223.239 104.834 223.239C104.834 219.593 107.515 216.569 111.006 216.013V212.636C107.271 212.077 104.394 208.855 104.394 204.965V199.847C104.394 193.374 108.313 187.414 114.378 184.67C116.383 183.76 117.627 181.745 117.542 179.537C117.439 176.794 115.121 174.477 112.377 174.374C110.893 174.321 109.489 174.849 108.425 175.875C107.36 176.9 106.773 178.279 106.773 179.757C106.773 184.039 103.29 187.522 99.008 187.522C94.7248 187.522 91.2408 184.039 91.2408 179.757C91.2408 174.019 93.5177 168.666 97.6516 164.684C101.312 161.162 105.996 159.143 111.006 158.872V112.845C111.006 112.116 111.597 111.527 112.327 111.527H116.05L97.7905 101.016L79.5294 111.527H83.2524C83.9807 111.527 84.5709 112.116 84.5709 112.845V185.358C84.5709 186.088 83.9807 186.677 83.2524 186.677H56.0243C55.8709 186.677 55.7466 186.803 55.7466 186.956V205.097C55.7466 205.827 55.1564 206.416 54.4273 206.416H26.8569C26.7035 206.416 26.5792 206.54 26.5792 206.695V223.241C26.5792 223.969 25.9882 224.56 25.2599 224.56C24.5316 224.56 23.9406 223.969 23.9406 223.241V206.695C23.9406 205.087 25.2486 203.779 26.8569 203.779H53.1088V186.956C53.1088 185.347 54.4168 184.039 56.0243 184.039H81.9331V114.164H79.3631C78.1714 114.164 77.1646 113.391 76.8577 112.239C76.5493 111.088 77.0362 109.917 78.0689 109.321L97.1308 98.3521C97.5377 98.1164 98.04 98.1164 98.4477 98.3521L117.509 109.321C118.542 109.917 119.028 111.088 118.72 112.239C118.414 113.391 117.406 114.164 116.215 114.164H113.645V158.911C124.185 159.66 132.66 168.322 133.063 178.949C133.387 187.495 128.567 195.294 120.785 198.818C120.696 198.858 119.925 199.225 119.925 199.847V204.965C119.925 208.739 117.22 211.889 113.645 212.586V216.065C116.976 216.753 119.485 219.709 119.485 223.239ZM45.076 145.093C45.076 138.356 39.5945 132.874 32.8567 132.874C26.119 132.874 20.6367 138.356 20.6367 145.093C20.6367 151.832 26.119 157.313 32.8567 157.313C39.5945 157.313 45.076 151.832 45.076 145.093ZM47.7146 145.093C47.7146 153.285 41.0495 159.951 32.8567 159.951C24.664 159.951 17.9989 153.285 17.9989 145.093C17.9989 136.901 24.664 130.236 32.8567 130.236C41.0495 130.236 47.7146 136.901 47.7146 145.093ZM49.4521 162.677L56.1245 165.234C57.4268 163.734 58.5669 162.14 59.5212 160.488C60.4747 158.837 61.2838 157.054 61.9337 155.175L56.3844 150.677C56.009 150.373 55.8298 149.887 55.9186 149.411C56.1971 147.911 56.3336 146.498 56.3336 145.093C56.3336 143.686 56.1971 142.275 55.9186 140.776C55.8298 140.301 56.0082 139.815 56.3844 139.509L61.9337 135.013C61.2838 133.134 60.4747 131.351 59.5204 129.7C58.5669 128.048 57.4268 126.454 56.1245 124.951L49.4521 127.511C48.9999 127.684 48.4881 127.595 48.1215 127.281C45.9213 125.394 43.4071 123.943 40.6506 122.971C40.1944 122.81 39.8626 122.414 39.7867 121.934L38.6652 114.873C34.7614 114.118 30.9521 114.118 27.0475 114.873L25.9268 121.934C25.8509 122.414 25.5191 122.81 25.0629 122.971C22.3064 123.943 19.7922 125.394 17.592 127.281C17.2246 127.595 16.7135 127.684 16.2614 127.511L9.58821 124.951C8.28587 126.454 7.14581 128.048 6.19227 129.7C5.23873 131.351 4.4289 133.134 3.77975 135.013L9.32822 139.509C9.70366 139.815 9.88291 140.301 9.79409 140.776C9.51554 142.275 9.3799 143.689 9.3799 145.093C9.3799 146.502 9.51554 147.913 9.7949 149.41C9.88291 149.887 9.70447 150.373 9.32903 150.677L3.77975 155.175C4.4289 157.054 5.23873 158.837 6.19308 160.488C7.14662 162.14 8.28667 163.734 9.58821 165.234L16.2614 162.677C16.7135 162.502 17.2246 162.591 17.592 162.907C19.793 164.794 22.3064 166.245 25.0629 167.216C25.5191 167.378 25.8509 167.774 25.9268 168.252L27.0475 175.315C30.9537 176.069 34.759 176.069 38.6652 175.315L39.7867 168.252C39.8626 167.774 40.1944 167.378 40.6506 167.216C43.4071 166.245 45.9205 164.794 48.1215 162.907C48.4881 162.591 48.9999 162.502 49.4521 162.677ZM56.0308 168.023L55.1152 167.673L49.2292 165.416C47.1324 167.106 44.7982 168.452 42.2711 169.428L41.1278 176.627C41.043 177.163 40.6393 177.592 40.1104 177.708C37.6794 178.248 35.2378 178.521 32.8567 178.521C30.4741 178.521 28.0341 178.248 25.6022 177.708C25.0742 177.592 24.6705 177.163 24.5857 176.627L23.4424 169.428C20.9153 168.452 18.5802 167.106 16.4842 165.416L9.68267 168.024C9.17482 168.219 8.60318 168.083 8.23742 167.684C6.55722 165.85 5.10066 163.872 3.90813 161.807C2.7164 159.742 1.73218 157.494 0.983718 155.118C0.820622 154.601 0.990177 154.039 1.41083 153.699L7.0675 149.114C6.85111 147.746 6.74211 146.396 6.74211 145.093C6.74211 143.792 6.85111 142.442 7.0675 141.073L1.41083 136.489C0.990177 136.148 0.820622 135.584 0.983718 135.067C1.73218 132.694 2.7164 130.446 3.90813 128.38C5.09986 126.316 6.55722 124.338 8.23742 122.504C8.60398 122.105 9.17724 121.969 9.68267 122.163L16.4834 124.772C18.5802 123.08 20.9153 121.733 23.4424 120.758L24.5857 113.559C24.6705 113.023 25.0742 112.596 25.603 112.478C30.4628 111.401 35.2499 111.401 40.1104 112.478C40.6393 112.596 41.043 113.023 41.1278 113.559L42.2711 120.758C44.7764 121.725 47.0921 123.06 49.1743 124.73C49.1921 124.744 49.2115 124.757 49.2292 124.772L56.0308 122.163C56.537 121.969 57.1095 122.105 57.4752 122.504C59.1563 124.338 60.6128 126.316 61.8053 128.38C62.9971 130.446 63.9813 132.694 64.7298 135.067C64.892 135.584 64.7225 136.148 64.3018 136.489L58.646 141.073C58.8616 142.442 58.9714 143.792 58.9714 145.093C58.9714 146.394 58.8616 147.743 58.6452 149.114L64.3018 153.699C64.7225 154.039 64.892 154.601 64.7298 155.118C63.9813 157.494 62.9971 159.742 61.8053 161.807C60.6128 163.872 59.1563 165.848 57.4752 167.684C57.1103 168.083 56.537 168.219 56.0308 168.023ZM186.905 87.4917C186.905 86.8345 186.83 86.1813 186.679 85.5491C186.51 84.8402 185.803 84.4018 185.09 84.5714C184.383 84.7385 183.945 85.4498 184.112 86.1587C184.216 86.5907 184.267 87.0396 184.267 87.4917C184.267 90.6713 181.681 93.2566 178.505 93.2566C175.325 93.2566 172.74 90.6713 172.74 87.4917C172.74 84.3154 175.325 81.7293 178.505 81.7293C178.916 81.7293 179.325 81.7729 179.722 81.8577C180.433 82.0103 181.136 81.5581 181.289 80.8444C181.441 80.1339 180.987 79.4331 180.276 79.2797C179.697 79.1537 179.1 79.0923 178.505 79.0923C173.87 79.0923 170.102 82.8597 170.102 87.4917C170.102 92.1262 173.87 95.8944 178.505 95.8944C183.137 95.8944 186.905 92.1262 186.905 87.4917ZM134.803 11.9802C134.803 6.82901 130.777 2.6394 125.827 2.6394C120.876 2.6394 116.849 6.82901 116.849 11.9802C116.849 17.1307 120.876 21.3211 125.827 21.3211C130.777 21.3211 134.803 17.1307 134.803 11.9802ZM145.692 20.4709C139.278 20.4709 134.061 25.895 134.061 32.5585C134.061 39.2244 139.278 44.6461 145.692 44.6461C152.104 44.6461 157.323 39.2244 157.323 32.5585C157.323 25.895 152.104 20.4709 145.692 20.4709ZM128.199 49.1975C129.993 47.0029 132.612 44.3692 135.679 43.0362C133.056 40.3637 131.424 36.6553 131.424 32.5585C131.424 29.0035 132.652 25.74 134.691 23.191C133.85 22.6476 132.951 22.2464 132.028 22.0913C130.229 23.2677 128.108 23.9581 125.827 23.9581C123.6 23.9581 121.525 23.2968 119.756 22.1721C119.723 22.1802 119.691 22.189 119.658 22.1995C119.785 22.9746 119.865 23.7635 119.865 24.5765C119.865 28.4617 118.357 31.9861 115.917 34.5762C119.964 36.1078 123.253 40.031 125.052 42.5897C126.376 44.4725 127.4 46.7236 128.199 49.1975ZM155.877 42.8497C159.563 44.2263 162.635 47.5399 164.58 50.1155C165.487 47.0522 166.701 44.2723 168.358 42.0253C170.034 39.7557 172.998 36.3436 176.599 34.7603C174.059 32.1556 172.483 28.553 172.483 24.5765C172.483 23.7433 172.566 22.9327 172.699 22.139C170.919 23.2847 168.823 23.9581 166.574 23.9581C164.346 23.9581 162.27 23.2968 160.501 22.1721C159.466 22.4434 158.36 23.0425 157.238 23.9435C158.943 26.3706 159.96 29.3402 159.96 32.5585C159.96 36.5624 158.4 40.1941 155.877 42.8497ZM130.485 84.4147L150.33 84.4164C151.429 74.2762 157.902 65.729 166.831 61.6759C165.993 58.1871 164.821 55.0059 163.139 52.6103C161.605 50.432 157.736 45.5577 153.429 44.9126C151.199 46.4071 148.544 47.2855 145.692 47.2855C142.898 47.2855 140.297 46.4402 138.094 45.0014C134.226 45.9275 130.733 50.1405 129.301 52.0791C125.031 57.8625 123.832 68.2546 123.266 76.6613C123.127 78.6975 123.817 80.6361 125.207 82.1217C126.587 83.6001 128.464 84.4147 130.485 84.4147ZM205.84 49.1442C205.17 47.2508 204.354 45.5327 203.351 44.1068C201.865 41.9922 198.112 37.2649 193.938 36.6351C191.764 38.0876 189.18 38.9394 186.402 38.9394C183.682 38.9394 181.148 38.1191 179.003 36.7199C175.258 37.625 171.87 41.7088 170.481 43.5925C168.647 46.0744 167.399 49.4332 166.526 53.1142C167.728 55.345 168.631 57.9182 169.319 60.686C172.202 59.6937 175.288 59.1479 178.505 59.1479C184.389 59.1479 190.032 60.9355 194.825 64.3177C194.883 64.3589 194.939 64.4041 194.99 64.4557L195.026 64.4913L195.4 59.4313C195.425 59.1027 195.572 58.7942 195.812 58.5674L205.84 49.1442ZM202.08 71.7934C202.715 72.7445 203.306 73.7158 203.816 74.7243C205.014 74.3811 206.1 73.7263 206.981 72.7881C208.035 71.6634 208.665 70.2699 208.831 68.7762L205.768 71.6384C205.524 71.8677 205.202 71.9937 204.867 71.9937C204.836 71.9937 204.803 71.9937 204.77 71.992L202.08 71.7934ZM210.149 48.7138L197.992 60.1378L197.355 68.8004L204.389 69.3171L217.498 57.0688L210.882 56.4899C210.162 56.4277 209.627 55.7996 209.68 55.0802L210.149 48.7138ZM197.684 24.5765C197.684 18.1084 192.624 12.8482 186.402 12.8482C180.181 12.8482 175.121 18.1084 175.121 24.5765C175.121 31.0414 180.181 36.3016 186.402 36.3016C192.624 36.3016 197.684 31.0414 197.684 24.5765ZM166.574 2.6394C161.624 2.6394 157.596 6.82901 157.596 11.9802C157.596 17.1307 161.624 21.3211 166.574 21.3211C171.522 21.3211 175.551 17.1307 175.551 11.9802C175.551 6.82901 171.522 2.6394 166.574 2.6394ZM105.946 36.3016C112.165 36.3016 117.228 31.0414 117.228 24.5765C117.228 18.1084 112.165 12.8482 105.946 12.8482C99.725 12.8482 94.6634 18.1084 94.6634 24.5765C94.6634 31.0414 99.725 36.3016 105.946 36.3016ZM86.0371 72.7817C87.375 74.2116 89.19 74.9996 91.148 74.9996L120.739 75.0012C121.355 66.7625 122.577 57.9287 126.238 51.9281C125.444 48.927 124.371 46.2068 122.893 44.1068C121.407 41.9922 117.656 37.2649 113.482 36.6351C111.308 38.0876 108.723 38.9394 105.946 38.9394C103.224 38.9394 100.692 38.1191 98.5446 36.7199C94.7998 37.625 91.4136 41.7088 90.0233 43.5925C85.8756 49.2104 84.7097 59.3174 84.1567 67.494C84.0243 69.4641 84.6912 71.3413 86.0371 72.7817ZM81.5253 67.3164C81.6206 65.8986 81.7353 64.4557 81.8717 63.0089C82.6073 55.1916 84.0816 47.1991 87.9014 42.0253C89.5768 39.7557 92.5407 36.3436 96.1409 34.7603C93.6017 32.1556 92.0256 28.553 92.0256 24.5765C92.0256 16.6559 98.2701 10.2112 105.946 10.2112C109.065 10.2112 111.939 11.2875 114.264 13.084C114.231 12.7182 114.212 12.35 114.212 11.9802C114.212 5.37407 119.421 0 125.827 0C132.232 0 137.44 5.37407 137.44 11.9802C137.44 12.371 137.422 12.7594 137.385 13.1461C137.369 13.3278 137.335 13.5038 137.31 13.683C137.284 13.8801 137.259 14.0779 137.222 14.2741C137.18 14.4937 137.126 14.7068 137.072 14.9192C137.035 15.0702 137.002 15.2212 136.961 15.3697C136.897 15.595 136.819 15.8146 136.742 16.0334C136.694 16.1674 136.651 16.3023 136.599 16.4347C136.517 16.6494 136.421 16.8578 136.326 17.0669C136.266 17.2009 136.207 17.3357 136.14 17.4657C136.041 17.6619 135.935 17.8525 135.828 18.0406C135.748 18.1787 135.669 18.3175 135.584 18.454C135.477 18.6276 135.361 18.7947 135.245 18.9627C135.147 19.1048 135.045 19.2452 134.94 19.3841C134.822 19.5367 134.702 19.6837 134.578 19.8306C134.516 19.9049 134.458 19.9856 134.394 20.0599C135.148 20.378 135.87 20.7938 136.55 21.2694C139.028 19.1274 142.215 17.8339 145.692 17.8339C149.509 17.8339 152.974 19.3987 155.537 21.9282C155.71 21.7861 155.89 21.6473 156.072 21.5108C156.087 21.5003 156.101 21.4882 156.117 21.4777C156.758 21.0022 157.441 20.5742 158.158 20.2295C158.048 20.1092 157.948 19.9792 157.843 19.8548C157.742 19.7353 157.638 19.6199 157.541 19.4955C157.411 19.3284 157.291 19.1564 157.169 18.9828C157.072 18.8424 156.971 18.7059 156.878 18.5614C156.774 18.3999 156.682 18.2328 156.586 18.0656C156.492 17.9001 156.394 17.7346 156.305 17.5626C156.227 17.4124 156.161 17.255 156.088 17.1C155.999 16.9054 155.909 16.7132 155.828 16.5154C155.772 16.3701 155.725 16.2215 155.673 16.0746C155.596 15.8622 155.518 15.6491 155.454 15.4278C155.411 15.2769 155.378 15.1218 155.341 14.9692C155.285 14.7496 155.227 14.5324 155.183 14.3096C155.146 14.1174 155.123 13.9228 155.097 13.7266C155.069 13.5385 155.035 13.3528 155.016 13.1623C154.979 12.7715 154.958 12.3767 154.958 11.9802C154.958 5.37407 160.169 0 166.574 0C172.977 0 178.188 5.37407 178.188 11.9802C178.188 12.3355 178.17 12.6916 178.141 13.0428C180.454 11.2713 183.307 10.2112 186.402 10.2112C194.079 10.2112 200.323 16.6559 200.323 24.5765C200.323 28.4617 198.813 31.9861 196.375 34.5762C200.42 36.1078 203.709 40.031 205.509 42.5897C206.462 43.9453 207.254 45.4996 207.923 47.1846L210.809 44.4725C211.205 44.1003 211.791 44.0099 212.281 44.2432C212.77 44.4766 213.068 44.9877 213.029 45.531L212.407 53.9765L220.672 54.6975C221.193 54.7435 221.636 55.0907 221.805 55.5824C221.975 56.0741 221.841 56.6199 221.46 56.976L211.431 66.3475C211.454 66.6818 211.478 67.0193 211.499 67.3519C211.624 69.2549 211.164 71.1443 210.23 72.7817C209.86 73.4284 209.422 74.0404 208.905 74.5919C207.779 75.7949 206.405 76.6613 204.892 77.157C206.173 80.4213 206.849 83.9061 206.849 87.4917C206.849 92.7132 205.416 97.8144 202.708 102.246C200.993 104.71 199.176 106.812 197.262 108.563C196.727 109.057 195.891 109.02 195.4 108.482C195.295 108.368 195.229 108.236 195.17 108.102C194.957 107.602 195.057 107.006 195.483 106.617C197.252 104.997 198.94 103.042 200.503 100.805C202.913 96.8536 204.209 92.2272 204.209 87.4917C204.209 82.0684 202.543 76.8865 199.387 72.5007L198.395 71.5205L196.529 71.3841L191.973 75.9257C192.576 76.6403 193.134 77.4154 193.643 78.2591C195.338 81.0269 196.235 84.2218 196.235 87.4917C196.235 90.5179 195.458 93.5069 193.99 96.1342C193.635 96.7688 192.831 96.9981 192.196 96.642C191.56 96.2868 191.332 95.4826 191.687 94.8464C192.936 92.6115 193.598 90.0698 193.598 87.4917C193.598 84.7102 192.833 81.9901 191.388 79.6276C190.991 78.968 190.549 78.3729 190.088 77.8061L179.435 88.4259C179.178 88.6827 178.842 88.811 178.505 88.811C178.166 88.811 177.829 88.6827 177.571 88.4243C177.056 87.9076 177.058 87.0727 177.572 86.56L188.238 75.9273C187.733 75.5075 187.21 75.1191 186.655 74.7865C184.199 73.2177 181.392 72.399 178.505 72.399C170.181 72.399 163.412 79.1707 163.412 87.4917C163.412 95.5698 169.726 102.192 177.785 102.568C178.513 102.604 179.075 103.222 179.042 103.949C179.009 104.654 178.426 105.206 177.726 105.206C177.705 105.206 177.684 105.206 177.664 105.204C168.193 104.761 160.774 96.9811 160.774 87.4917C160.774 77.7157 168.728 69.762 178.505 69.762C181.897 69.762 185.195 70.7228 188.042 72.5435C188.773 72.9803 189.464 73.4865 190.119 74.0509L194.656 69.5262L194.772 67.947L193.215 66.4113C188.889 63.3851 183.806 61.7873 178.505 61.7873C164.329 61.7873 152.798 73.3186 152.798 87.4917C152.798 98.0606 159.416 107.699 169.274 111.493C173.24 112.688 177.002 113.205 180.452 113.032C181.009 113.002 181.514 113.339 181.727 113.833C181.787 113.974 181.828 114.122 181.836 114.282C181.872 115.01 181.314 115.63 180.586 115.667C180.104 115.691 179.621 115.702 179.131 115.702C175.774 115.702 172.194 115.133 168.466 114.003C168.434 113.995 168.403 113.984 168.374 113.974C157.479 109.803 150.16 99.1619 150.16 87.4917C150.16 87.3456 150.169 87.2003 150.171 87.0541L130.485 87.0517C127.724 87.0517 125.165 85.9415 123.28 83.9222C121.676 82.2089 120.746 79.9684 120.628 77.6406L91.148 77.639C88.452 77.639 85.9523 76.5539 84.1106 74.5822C82.2875 72.6331 81.3453 69.9832 81.5253 67.3164ZM226.13 183.473C225.902 183.473 225.716 183.659 225.716 183.887V188.857L231.358 200.511L232.556 203.113C234.05 206.344 237.245 208.433 240.693 208.433H264.461C267.931 208.433 271.135 206.325 272.623 203.062L273.758 200.589L279.44 188.857V183.887C279.44 183.659 279.254 183.473 279.026 183.473H263.481C263.477 183.473 263.473 183.473 263.469 183.473H241.083C241.079 183.473 241.075 183.473 241.071 183.473H226.13ZM242.404 180.836H262.15V172.355C262.15 172.165 261.993 172.007 261.803 172.007H242.75C242.559 172.007 242.404 172.165 242.404 172.355V180.836ZM279.44 223.772V194.909L276.143 201.716L275.023 204.159C273.109 208.357 268.963 211.071 264.461 211.071H240.693C236.222 211.071 232.087 208.382 230.162 204.219L228.973 201.635L225.716 194.909V223.772C225.716 223.999 225.902 224.183 226.13 224.183H279.026C279.254 224.183 279.44 223.999 279.44 223.772ZM282.078 183.887V223.772C282.078 225.453 280.709 226.821 279.026 226.821H226.13C224.447 226.821 223.078 225.453 223.078 223.772V183.887C223.078 182.204 224.447 180.836 226.13 180.836H239.765V172.355C239.765 170.71 241.104 169.37 242.75 169.37H261.803C263.448 169.37 264.787 170.71 264.787 172.355V180.836H279.026C280.709 180.836 282.078 182.204 282.078 183.887ZM163.558 161.677C163.8 161.867 164.09 161.96 164.375 161.96C164.765 161.96 165.15 161.789 165.41 161.46C165.863 160.887 165.766 160.059 165.193 159.608C164.081 158.727 163.443 157.421 163.443 156.022C163.443 154.796 163.929 153.641 164.811 152.773C165.33 152.262 165.336 151.427 164.826 150.908C164.315 150.389 163.48 150.383 162.961 150.894C161.57 152.262 160.805 154.083 160.805 156.022C160.805 158.232 161.808 160.294 163.558 161.677ZM169.885 208.211C170.441 210.835 172.781 212.801 175.586 212.737C177.11 212.71 178.536 212.088 179.602 210.984C180.361 210.201 180.863 209.244 181.085 208.211H169.885ZM176.833 128.596C176.894 128.97 176.934 129.35 176.934 129.738C176.934 129.742 176.936 129.745 176.936 129.749L177.213 191.819H187.165C187.531 191.819 187.835 191.532 187.841 191.177L187.859 190.226C187.859 182.39 190.77 174.484 196.057 167.985C200.119 162.994 202.198 156.687 201.915 150.226C201.32 136.692 190.615 125.257 178.54 125.257C177.894 125.257 177.618 125.486 177.446 125.689C176.882 126.354 176.797 127.645 176.833 128.596ZM156.128 167.9C157.722 170.465 159.437 173.996 159.528 174.186C162.04 179.043 163.374 184.944 163.374 191.218C163.383 191.54 163.68 191.819 164.051 191.819H173.449C173.916 191.819 174.298 191.45 174.298 190.994V178.473C173 179.558 171.322 180.213 169.493 180.213C168.484 180.213 167.508 179.98 166.773 179.775C163.637 178.912 161.482 176.605 161.115 173.744C161.113 173.735 161.107 173.73 161.105 173.719C161.103 173.705 161.103 173.69 161.101 173.676C161.101 173.667 161.096 173.659 161.096 173.649C161.095 173.641 161.096 173.63 161.096 173.62C161.037 173.21 161.026 172.777 161.026 172.361C161.026 170.346 161.8 168.427 163.203 166.964C163.708 166.44 164.542 166.423 165.07 166.927C165.595 167.431 165.611 168.264 165.107 168.792C164.177 169.76 163.664 171.028 163.664 172.361C163.664 172.609 163.664 173.025 163.708 173.283C163.709 173.295 163.708 173.307 163.709 173.32C163.712 173.331 163.716 173.34 163.717 173.353C163.926 175.191 165.33 176.642 167.473 177.233C168.05 177.392 168.8 177.574 169.493 177.574C172.143 177.574 174.298 175.461 174.298 172.866V148.669C174.265 148.56 174.243 148.447 174.24 148.329C174.189 145.79 172.072 143.792 169.451 143.815C168.606 143.831 167.783 144.069 167.072 144.501C166.731 144.708 166.419 144.957 166.142 145.243C165.634 145.765 164.798 145.778 164.276 145.269C163.753 144.761 163.742 143.926 164.249 143.403C164.683 142.959 165.171 142.568 165.702 142.246C166.812 141.572 168.091 141.202 169.4 141.177C171.271 141.125 172.981 141.786 174.298 142.899V129.755C174.298 129.73 174.294 129.708 174.294 129.683C174.255 129.571 174.224 129.457 174.216 129.333C174.127 128.083 173.535 126.987 172.651 126.214C172.63 126.198 172.612 126.177 172.591 126.161C172.405 126.003 172.201 125.867 171.99 125.739C171.929 125.704 171.87 125.664 171.807 125.631C171.614 125.524 171.409 125.437 171.2 125.359C171.12 125.327 171.041 125.297 170.958 125.272C170.741 125.204 170.518 125.152 170.289 125.114C170.216 125.102 170.142 125.09 170.068 125.082C169.828 125.055 169.581 125.049 169.334 125.059C169.23 125.061 169.127 125.073 169.026 125.084C168.8 125.109 168.577 125.139 168.362 125.193C168.315 125.206 168.267 125.218 168.218 125.231C167.345 125.476 166.562 125.962 165.956 126.656C165.154 127.578 164.757 128.751 164.842 129.96C164.927 131.185 165.493 132.303 166.433 133.112C166.987 133.585 167.052 134.418 166.576 134.97C166.316 135.274 165.946 135.43 165.576 135.43C165.272 135.43 164.966 135.327 164.716 135.112C163.236 133.841 162.346 132.078 162.211 130.144C162.178 129.67 162.192 129.201 162.25 128.738C161.415 127.595 160.1 126.915 158.656 126.915C156.213 126.915 154.224 128.864 154.224 131.259C154.224 131.992 154.414 132.717 154.776 133.355C155.022 133.79 155.001 134.325 154.724 134.739C154.448 135.152 153.96 135.371 153.467 135.315C153.282 135.292 153.096 135.275 152.905 135.275C150.461 135.275 148.47 137.223 148.47 139.618C148.47 140.937 149.096 142.181 150.148 143.004C152.318 143.052 154.338 144.023 155.704 145.7C156.165 146.263 156.08 147.095 155.516 147.555C154.95 148.015 154.121 147.93 153.659 147.365C152.762 146.266 151.424 145.634 149.989 145.634C148.738 145.634 147.61 146.121 146.767 146.904C146.726 146.944 146.678 146.977 146.638 147.018C146.56 147.099 146.496 147.192 146.421 147.277C145.74 148.093 145.316 149.12 145.316 150.237C145.316 150.707 145.39 151.164 145.522 151.596C145.531 151.619 145.537 151.64 145.545 151.662C145.615 151.881 145.707 152.09 145.808 152.293C145.87 152.413 145.932 152.533 146.002 152.647C146.045 152.717 146.087 152.789 146.135 152.857C146.984 154.054 148.391 154.841 149.989 154.841C150.377 154.841 150.723 155.013 150.964 155.28C151.157 155.452 151.31 155.673 151.376 155.935C151.527 156.518 151.262 157.128 150.735 157.417C149.338 158.188 148.47 159.639 148.47 161.206C148.47 163.599 150.461 165.548 152.905 165.548C152.955 165.548 153.005 165.551 153.054 165.556C153.054 165.556 153.36 165.585 153.81 165.58C153.821 165.58 153.829 165.58 153.838 165.58C153.875 165.58 153.91 165.589 153.947 165.592C153.995 165.584 154.041 165.571 154.087 165.569C154.783 165.53 155.762 165.383 156.498 164.901C157.108 164.503 157.924 164.674 158.323 165.284C158.722 165.894 158.55 166.712 157.94 167.109C157.366 167.485 156.737 167.733 156.128 167.9ZM166.111 205.573H184.866C186.357 205.573 187.616 204.509 187.616 203.247V194.414C187.467 194.434 187.318 194.459 187.165 194.459H175.9C175.545 194.459 175.224 194.316 174.987 194.087C174.52 194.316 174.003 194.459 173.449 194.459H164.051C163.813 194.459 163.583 194.432 163.36 194.385V203.247C163.36 204.509 164.621 205.573 166.111 205.573ZM167.215 208.211H166.111C163.139 208.211 160.723 205.984 160.723 203.247V192.274C160.723 192.115 160.756 191.962 160.807 191.821C160.772 191.638 160.741 191.45 160.737 191.255C160.737 185.364 159.503 179.883 157.169 175.366C156.459 173.899 154.507 170.073 153.178 168.209C153.026 168.202 152.909 168.192 152.838 168.186C148.968 168.149 145.833 165.031 145.833 161.206C145.833 159.67 146.347 158.205 147.252 157.014C146.409 156.663 145.657 156.15 145.003 155.536C144.919 155.457 144.832 155.381 144.751 155.298C144.668 155.216 144.59 155.129 144.513 155.042C143.36 153.761 142.653 152.082 142.653 150.238C142.653 148.384 143.368 146.695 144.533 145.414C144.541 145.406 144.546 145.399 144.553 145.391C144.739 145.189 144.933 144.999 145.14 144.817C145.711 144.305 146.353 143.868 147.065 143.548C146.273 142.402 145.833 141.036 145.833 139.618C145.833 136.159 148.395 133.279 151.746 132.731C151.64 132.248 151.584 131.756 151.584 131.259C151.584 127.409 154.758 124.278 158.656 124.278C160.342 124.278 161.923 124.856 163.172 125.885C164.245 124.174 165.996 122.973 168.011 122.569C168.133 122.544 168.252 122.517 168.374 122.498C168.496 122.479 168.618 122.467 168.743 122.456C168.838 122.447 168.931 122.43 169.028 122.423C169.137 122.415 169.242 122.419 169.352 122.418C169.4 122.415 169.445 122.407 169.493 122.407C169.526 122.407 169.556 122.411 169.588 122.414C169.787 122.414 169.983 122.426 170.179 122.442C170.214 122.444 170.252 122.447 170.286 122.451C170.525 122.475 170.755 122.51 170.987 122.556C170.99 122.556 170.991 122.558 170.994 122.558C171.703 122.7 172.378 122.944 173 123.277C173.017 123.287 173.036 123.296 173.052 123.304C173.221 123.397 173.385 123.496 173.546 123.6C173.593 123.633 173.644 123.662 173.69 123.692C173.808 123.773 173.92 123.858 174.032 123.945C174.121 124.013 174.21 124.079 174.294 124.149C174.352 124.199 174.406 124.25 174.461 124.3C174.62 124.443 174.775 124.589 174.922 124.744C175.063 124.478 175.231 124.224 175.429 123.99C176.185 123.093 177.262 122.62 178.54 122.62C191.983 122.62 203.895 135.21 204.55 150.111C204.863 157.217 202.572 164.155 198.101 169.651C193.199 175.679 190.497 182.995 190.497 190.251L190.479 191.226C190.472 191.61 190.386 191.974 190.253 192.318V203.247C190.253 205.984 187.837 208.211 184.866 208.211H183.761C183.513 209.932 182.738 211.536 181.5 212.818C179.941 214.428 177.857 215.335 175.631 215.375C175.584 215.375 175.534 215.375 175.487 215.375C171.295 215.375 167.8 212.268 167.215 208.211ZM215.021 152.591C215.021 142.711 223.151 134.672 233.14 134.672C233.202 134.672 233.262 134.68 233.324 134.68C243.229 134.78 251.259 142.771 251.259 152.591V155.648L245.091 152.093C244.461 151.729 243.655 151.946 243.291 152.576C242.928 153.209 243.145 154.014 243.774 154.379L251.927 159.078C252.131 159.195 252.359 159.254 252.586 159.254C252.813 159.254 253.041 159.195 253.245 159.078L261.398 154.379C262.03 154.014 262.245 153.209 261.884 152.576C261.517 151.946 260.711 151.729 260.081 152.093L253.897 155.658V152.591C253.897 141.312 244.678 132.13 233.312 132.039C233.254 132.037 233.198 132.035 233.14 132.035C221.695 132.035 212.384 141.256 212.384 152.591V235.879C212.384 245.759 204.257 253.796 194.265 253.796C184.275 253.796 176.146 245.759 176.146 235.879V220.337C176.146 219.971 175.997 219.64 175.757 219.4C175.52 219.165 175.191 219.018 174.827 219.018C174.118 219.018 173.546 219.579 173.515 220.279C173.515 220.297 173.509 220.317 173.509 220.337V235.879C173.509 247.214 182.82 256.434 194.265 256.434C205.712 256.434 215.021 247.214 215.021 235.879V152.591ZM18.3582 106.194C18.4599 106.219 18.5617 106.229 18.6618 106.229C19.2593 106.229 19.801 105.82 19.9439 105.214C21.038 100.572 22.417 95.9461 24.0415 91.4626C24.2894 90.7787 23.9357 90.0221 23.2511 89.7743C22.5664 89.5256 21.8099 89.8792 21.562 90.5639C19.902 95.1419 18.4947 99.8668 17.3772 104.609C17.2101 105.318 17.6493 106.026 18.3582 106.194ZM27.9356 78.8711C28.1254 78.9656 28.3264 79.0092 28.525 79.0092C29.0087 79.0092 29.4745 78.7427 29.7054 78.2793C31.837 74.0194 34.2422 69.8339 36.8558 65.8404C37.2539 65.2309 37.0835 64.4146 36.4739 64.0157C35.8643 63.6169 35.0472 63.788 34.6476 64.396C31.9799 68.4742 29.523 72.7486 27.3462 77.1013C27.0208 77.7529 27.284 78.5441 27.9356 78.8711ZM65.3264 34.8015C65.6026 34.8015 65.8819 34.7143 66.1201 34.535C69.9278 31.6574 73.9406 28.9744 78.0462 26.5603C78.6736 26.1905 78.8835 25.3823 78.5137 24.7542C78.1439 24.1252 77.3373 23.9145 76.7084 24.2867C72.5163 26.7525 68.4188 29.4912 64.5303 32.4285C63.949 32.8685 63.8335 33.6953 64.2728 34.2767C64.5319 34.6198 64.9268 34.8015 65.3264 34.8015ZM44.3743 54.7806C44.7522 54.7806 45.1276 54.6192 45.3884 54.3051C48.4396 50.6403 51.737 47.1144 55.1871 43.8234C55.7143 43.3212 55.7337 42.4863 55.2315 41.9591C54.7277 41.4319 53.8936 41.4133 53.3664 41.9155C49.8437 45.2743 46.4776 48.8753 43.361 52.6184C42.8952 53.1763 42.9711 54.0096 43.5306 54.4746C43.7777 54.6813 44.0764 54.7806 44.3743 54.7806ZM265.195 126.153C265.352 128.701 265.43 131.293 265.43 133.86C265.43 135.757 265.387 137.669 265.302 139.546C265.269 140.274 265.834 140.889 266.561 140.922C266.581 140.922 266.602 140.922 266.621 140.922C267.322 140.922 267.906 140.371 267.938 139.664C268.024 137.748 268.068 135.797 268.068 133.86C268.068 131.241 267.987 128.593 267.828 125.991C267.784 125.264 267.167 124.718 266.431 124.755C265.703 124.8 265.151 125.424 265.195 126.153ZM216.063 34.6255C219.608 37.3109 223.049 40.2208 226.29 43.2719C226.545 43.5117 226.872 43.6312 227.194 43.6312C227.545 43.6312 227.896 43.4932 228.154 43.2162C228.655 42.6866 228.63 41.8517 228.099 41.3511C224.79 38.2345 221.276 35.2641 217.655 32.5238C217.076 32.0854 216.247 32.1992 215.807 32.7797C215.368 33.3586 215.482 34.1878 216.063 34.6255ZM263.663 112.849C263.772 113.493 264.331 113.947 264.961 113.947C265.036 113.947 265.11 113.941 265.184 113.929C265.904 113.807 266.385 113.126 266.263 112.407C265.503 107.926 264.486 103.44 263.246 99.0731C263.047 98.3723 262.316 97.9654 261.616 98.1656C260.916 98.3642 260.509 99.0941 260.709 99.7941C261.922 104.069 262.917 108.462 263.663 112.849ZM243.692 63.5838C243.948 63.956 244.361 64.1562 244.781 64.1562C245.038 64.1562 245.298 64.0819 245.526 63.9269C246.127 63.5135 246.28 62.6924 245.869 62.0917C243.301 58.3477 240.499 54.6999 237.541 51.2458C237.066 50.692 236.233 50.6282 235.68 51.1013C235.126 51.5769 235.063 52.4077 235.536 52.9616C238.436 56.3454 241.179 59.919 243.692 63.5838ZM256.356 87.1341C256.565 87.6468 257.059 87.9568 257.58 87.9568C257.745 87.9568 257.913 87.9261 258.076 87.8599C258.75 87.587 259.074 86.8184 258.802 86.1426C257.094 81.9344 255.137 77.769 252.985 73.7675C252.64 73.1264 251.84 72.8866 251.199 73.2298C250.557 73.5754 250.317 74.3755 250.662 75.0182C252.77 78.9373 254.687 83.0131 256.356 87.1341ZM109.592 254.253C104.642 252.964 99.7226 251.349 94.9718 249.454C94.296 249.183 93.5274 249.514 93.2585 250.19C92.988 250.868 93.3175 251.635 93.9941 251.903C98.8482 253.84 103.871 255.49 108.929 256.806C109.041 256.836 109.152 256.85 109.262 256.85C109.847 256.85 110.382 256.455 110.537 255.862C110.721 255.157 110.297 254.438 109.592 254.253ZM170.576 254.729C165.616 255.939 160.518 256.85 155.427 257.435C154.703 257.519 154.185 258.173 154.267 258.898C154.346 259.569 154.914 260.066 155.576 260.066C155.628 260.066 155.677 260.062 155.729 260.055C160.927 259.456 166.134 258.528 171.2 257.292C171.909 257.121 172.343 256.408 172.169 255.699C171.998 254.991 171.285 254.557 170.576 254.729ZM81.0595 242.875C76.5824 240.407 72.2111 237.631 68.0676 234.626C67.4765 234.198 66.653 234.33 66.2251 234.919C65.7971 235.509 65.9287 236.333 66.5182 236.761C70.7497 239.83 75.2139 242.666 79.7854 245.186C79.9872 245.298 80.206 245.351 80.4208 245.351C80.8859 245.351 81.3372 245.103 81.577 244.667C81.929 244.03 81.6973 243.228 81.0595 242.875ZM141.361 259.584C141.357 260.31 140.766 260.893 140.043 260.893C140.041 260.893 140.037 260.893 140.032 260.893C134.793 260.853 129.518 260.49 124.356 259.814C123.633 259.719 123.125 259.055 123.22 258.334C123.315 257.612 123.98 257.1 124.698 257.197C129.756 257.86 134.921 258.216 140.053 258.255C140.783 258.261 141.368 258.856 141.361 259.584Z" fill="white"/>
</mask>
<g mask="url(#mask2_670_204)">
<path d="M141.449 -140.629L-129.626 130.446L141.449 401.521L412.524 130.446L141.449 -140.629Z" fill="black"/>
</g>
</g>
</g>
</svg>
