<svg width="160" height="160" viewBox="0 0 160 160" fill="none" xmlns="http://www.w3.org/2000/svg">
<mask id="mask0_670_161" style="mask-type:luminance" maskUnits="userSpaceOnUse" x="0" y="0" width="161" height="160">
<path d="M6.10352e-05 0H160.004V159.264H6.10352e-05V0Z" fill="white"/>
</mask>
<g mask="url(#mask0_670_161)">
<mask id="mask1_670_161" style="mask-type:luminance" maskUnits="userSpaceOnUse" x="0" y="0" width="160" height="160">
<path d="M104.645 130.82C104.822 130.399 104.627 129.914 104.206 129.736C103.786 129.559 103.3 129.755 103.122 130.175L101.373 134.304L100.203 131.647C100.02 131.229 99.5315 131.04 99.1136 131.224C98.6956 131.408 98.5059 131.895 98.6908 132.312L100.63 136.722C100.763 137.023 101.059 137.216 101.387 137.216C101.389 137.216 101.391 137.216 101.393 137.216C101.722 137.214 102.019 137.015 102.149 136.712L104.645 130.82ZM106.954 123.461C106.954 123.005 106.584 122.635 106.128 122.635H82.5314C82.0754 122.635 81.7056 123.005 81.7056 123.461C81.7056 123.918 82.0754 124.288 82.5314 124.288H106.128C106.584 124.288 106.954 123.918 106.954 123.461ZM82.5314 117.567C82.0754 117.567 81.7056 117.937 81.7056 118.393C81.7056 118.85 82.0754 119.22 82.5314 119.22H106.128C106.584 119.22 106.954 118.85 106.954 118.393C106.954 117.937 106.584 117.567 106.128 117.567H82.5314ZM81.7056 113.325C81.7056 113.782 82.0754 114.152 82.5314 114.152H106.128C106.584 114.152 106.954 113.782 106.954 113.325C106.954 112.868 106.584 112.498 106.128 112.498H82.5314C82.0754 112.498 81.7056 112.868 81.7056 113.325ZM111.22 140.364V105.425C111.22 104.566 110.52 103.866 109.661 103.866H79.557C78.6966 103.866 77.9974 104.566 77.9974 105.425V123.499C78.2526 123.792 78.503 124.092 78.7423 124.403C81.7547 128.326 83.0601 133.186 82.4168 138.091C82.243 139.414 81.9285 140.695 81.4923 141.923H109.661C110.52 141.923 111.22 141.223 111.22 140.364ZM112.873 105.425V140.364C112.873 142.135 111.432 143.576 109.661 143.576H80.8119C79.6866 145.972 78.0533 148.11 75.9808 149.85L77.6892 152.075C77.8867 152.332 77.9151 152.679 77.7648 152.965C77.6204 153.237 77.3382 153.405 77.0339 153.405C77.0175 153.405 77.0016 153.404 76.9857 153.404L65.8062 152.76C65.5635 152.747 65.3392 152.626 65.1937 152.431C65.0469 152.236 64.9939 151.989 65.0483 151.751L65.3541 150.416L67.4997 141.029C67.57 140.717 67.8156 140.474 68.1286 140.406C68.4416 140.336 68.7661 140.456 68.9607 140.71L70.6137 142.863C75.2007 138.815 75.9933 131.909 72.2904 127.088C70.6903 125.005 68.5244 123.582 66.0244 122.972C65.5818 122.864 65.3093 122.418 65.4181 121.974C65.5106 121.596 65.8481 121.345 66.2203 121.345C66.2858 121.345 66.3513 121.35 66.4163 121.366C69.2862 122.066 71.7699 123.696 73.6016 126.081C78.0248 131.842 76.8499 140.193 70.9821 144.7C70.8088 144.833 70.5892 144.892 70.372 144.864C70.1539 144.835 69.9569 144.722 69.8236 144.548L68.719 143.111L66.8786 151.166L75.2773 151.65L74.176 150.215C73.8987 149.854 73.9666 149.335 74.3292 149.056C77.9016 146.312 80.1907 142.342 80.7772 137.875C81.3628 133.41 80.1744 128.983 77.4316 125.411C74.6595 121.803 70.6816 119.512 66.2203 118.951C66.1886 118.948 66.1553 118.942 66.1231 118.938C65.6695 118.884 65.3454 118.472 65.3993 118.018C65.4538 117.566 65.8655 117.243 66.3191 117.296C70.0923 117.748 73.5539 119.327 76.3443 121.821V109.839H63.4097C62.9537 109.839 62.5829 109.468 62.5829 109.012C62.5829 108.555 62.9537 108.185 63.4097 108.185H76.3443V105.425C76.3443 105.201 76.3679 104.982 76.4113 104.77H63.4097C62.9537 104.77 62.5829 104.401 62.5829 103.945C62.5829 103.487 62.9537 103.117 63.4097 103.117H77.3271C77.9049 102.559 78.6903 102.213 79.557 102.213H92.0983V90.9767C92.0983 90.1162 91.3981 89.4171 90.5391 89.4171H60.4353C59.5749 89.4171 58.8762 90.1162 58.8762 90.9767V118.405L62.3065 118.604C62.5497 118.618 62.7736 118.737 62.9205 118.931C63.0659 119.126 63.1189 119.375 63.0649 119.613L60.614 130.334C60.5427 130.647 60.2971 130.89 59.9856 130.958C59.6721 131.027 59.3481 130.907 59.1535 130.653L57.499 128.501C52.9135 132.549 52.1209 139.455 55.8238 144.276C57.4225 146.358 59.5898 147.782 62.0884 148.39C62.5324 148.499 62.8044 148.947 62.6961 149.39C62.6036 149.768 62.2661 150.018 61.8924 150.018C61.8284 150.018 61.7629 150.013 61.6979 149.997C58.828 149.298 56.3439 147.667 54.5121 145.283C50.0889 139.523 51.2633 131.171 57.1307 126.664C57.3045 126.53 57.525 126.472 57.7422 126.501C57.9603 126.529 58.1563 126.642 58.2906 126.816L59.3938 128.253L61.2356 120.197L52.836 119.714L53.9377 121.148C54.215 121.51 54.1476 122.03 53.785 122.308C50.2126 125.051 47.9225 129.023 47.3365 133.488C46.7505 137.954 47.9389 142.381 50.6826 145.953C53.4533 149.562 57.4326 151.852 61.8924 152.412C61.9257 152.416 61.9579 152.423 61.9911 152.427C62.4447 152.481 62.7678 152.891 62.7134 153.345C62.6643 153.765 62.3065 154.073 61.8939 154.073C61.8616 154.073 61.8284 154.072 61.7952 154.067C56.8485 153.475 52.4363 150.952 49.3714 146.961C46.3585 143.038 45.0536 138.176 45.6974 133.273C45.9781 131.134 46.619 129.1 47.5734 127.235C48.6843 125.063 50.2218 123.119 52.1334 121.514L50.4245 119.289C50.2276 119.033 50.1982 118.684 50.3494 118.399C50.5006 118.113 50.802 117.943 51.128 117.96L57.2217 118.31V90.9767C57.2217 89.2052 58.6638 87.7631 60.4353 87.7631H90.5391C92.3106 87.7631 93.7513 89.2052 93.7513 90.9767V102.213H109.661C111.432 102.213 112.873 103.654 112.873 105.425ZM63.4097 99.7029H87.0062C87.4622 99.7029 87.832 99.3331 87.832 98.8756C87.832 98.4196 87.4622 98.0498 87.0062 98.0498H63.4097C62.9537 98.0498 62.5829 98.4196 62.5829 98.8756C62.5829 99.3331 62.9537 99.7029 63.4097 99.7029ZM136.049 83.8603C139.78 83.8603 142.815 80.8253 142.815 77.0954C142.815 73.3636 139.78 70.3291 136.049 70.3291C132.317 70.3291 129.283 73.3636 129.283 77.0954C129.283 80.8253 132.317 83.8603 136.049 83.8603ZM144.468 77.0954C144.468 81.7373 140.691 85.5143 136.049 85.5143C131.407 85.5143 127.63 81.7373 127.63 77.0954C127.63 72.4516 131.407 68.6746 136.049 68.6746C140.691 68.6746 144.468 72.4516 144.468 77.0954ZM111.971 26.0926C106.367 26.0926 101.807 30.6522 101.807 36.2561C101.807 41.8596 106.367 46.4196 111.971 46.4196C117.575 46.4196 122.134 41.8596 122.134 36.2561C122.134 30.6522 117.575 26.0926 111.971 26.0926ZM111.971 24.4396C118.487 24.4396 123.787 29.7402 123.787 36.2561C123.787 42.7721 118.487 48.0727 111.971 48.0727C105.455 48.0727 100.154 42.7721 100.154 36.2561C100.154 29.7402 105.455 24.4396 111.971 24.4396ZM149.609 81.0559L153.7 80.3938C153.911 79.2671 154.017 78.1418 154.013 77.041C154.01 75.9412 153.898 74.8173 153.679 73.6906L149.588 73.053C149.288 73.0078 149.038 72.8002 148.936 72.5147C148.637 71.6764 148.292 70.9257 147.88 70.2169C147.468 69.509 146.986 68.8373 146.406 68.1632C146.209 67.9325 146.152 67.6133 146.261 67.3297L147.731 63.4578C146.861 62.7109 145.939 62.0575 144.985 61.51C144.031 60.963 143.001 60.4983 141.917 60.1247L139.317 63.3518C139.127 63.5873 138.823 63.7009 138.523 63.6451C136.861 63.3393 135.17 63.3446 133.496 63.6624C133.198 63.7178 132.893 63.6085 132.701 63.373L130.082 60.1593C128.999 60.5388 127.972 61.0112 127.021 61.5635C126.069 62.1167 125.152 62.7764 124.287 63.5281L125.782 67.3952C125.891 67.6788 125.837 67.998 125.64 68.2296C124.535 69.5264 123.694 70.9936 123.138 72.5884C123.038 72.8758 122.789 73.0853 122.49 73.1335L118.399 73.7951C118.187 74.9218 118.081 76.0476 118.085 77.1484C118.087 78.2477 118.2 79.373 118.419 80.4974L122.51 81.1359C122.81 81.1826 123.06 81.3901 123.162 81.6747C123.461 82.513 123.806 83.2637 124.218 83.9725C124.629 84.6799 125.112 85.353 125.692 86.0262C125.889 86.2564 125.946 86.5756 125.837 86.8592L124.366 90.7302C125.237 91.477 126.158 92.1314 127.113 92.6789C128.067 93.2264 129.098 93.6911 130.181 94.0642L132.781 90.8371C132.971 90.6007 133.276 90.487 133.575 90.5429C135.236 90.8496 136.928 90.8448 138.602 90.5265C138.9 90.4702 139.205 90.5809 139.397 90.8164L142.016 94.0301C143.1 93.6492 144.127 93.1782 145.077 92.6259C146.029 92.0727 146.946 91.413 147.811 90.6609L146.316 86.7942C146.206 86.5116 146.261 86.1914 146.458 85.9593C147.562 84.6625 148.404 83.1958 148.96 81.5996C149.06 81.3136 149.309 81.1041 149.609 81.0559ZM155.178 72.781C155.498 74.2058 155.663 75.6383 155.667 77.0362C155.671 78.4365 155.514 79.869 155.203 81.2948C155.131 81.6265 154.862 81.8803 154.527 81.9347L150.349 82.6103C149.79 84.0674 149.012 85.4219 148.032 86.6488L149.561 90.5983C149.682 90.9151 149.599 91.2738 149.348 91.504C148.275 92.494 147.117 93.3521 145.908 94.0561C144.7 94.7572 143.381 95.3393 141.988 95.7828C141.664 95.8863 141.311 95.7804 141.097 95.518L138.421 92.2364C137.961 92.3077 137.501 92.3524 137.04 92.3832C135.947 92.4545 134.851 92.415 133.765 92.2513L131.111 95.5473C130.95 95.7457 130.712 95.8555 130.466 95.8555C130.385 95.8555 130.301 95.8435 130.221 95.8175C128.826 95.3822 127.504 94.8092 126.291 94.1138C125.077 93.4171 123.914 92.5658 122.834 91.582C122.583 91.3538 122.497 90.995 122.618 90.6772L124.12 86.7239C123.615 86.0999 123.167 85.4551 122.789 84.8031C122.409 84.1512 122.07 83.4438 121.778 82.6955L117.599 82.0431C117.264 81.9915 116.994 81.7402 116.92 81.4084C116.6 79.9836 116.435 78.5511 116.431 77.1518C116.427 75.7539 116.584 74.3204 116.894 72.8941C116.967 72.5624 117.236 72.3086 117.571 72.2542L121.748 71.5791C122.308 70.122 123.086 68.767 124.066 67.5406L122.537 63.5911C122.415 63.2743 122.499 62.9156 122.748 62.6849C123.823 61.6949 124.98 60.8373 126.19 60.1333C127.399 59.4308 128.718 58.8501 130.11 58.4061C130.433 58.3026 130.787 58.4085 131.001 58.6714L133.677 61.954C134.316 61.8529 134.957 61.8023 135.598 61.784C136.512 61.7556 137.426 61.7999 138.333 61.9381L140.987 58.6416C141.2 58.3767 141.553 58.2684 141.878 58.3719C143.272 58.8067 144.594 59.3802 145.808 60.0765C147.021 60.7718 148.184 61.6236 149.264 62.606C149.515 62.8352 149.601 63.1939 149.48 63.5107L147.978 67.4655C148.483 68.089 148.931 68.7338 149.309 69.3858C149.689 70.0392 150.028 70.7456 150.32 71.4939L154.499 72.1459C154.834 72.1979 155.104 72.4502 155.178 72.781ZM91.2243 24.2792C90.4616 25.6005 89.8168 27.0316 89.304 28.5407L93.6911 32.0958C93.9266 32.2869 94.0388 32.5913 93.9834 32.8893C93.7648 34.058 93.6603 35.1587 93.6603 36.2561C93.6603 37.353 93.7648 38.4552 93.9834 39.6239C94.0388 39.9219 93.9266 40.2263 93.6911 40.4174L89.304 43.9715C89.8168 45.4802 90.4616 46.9112 91.2243 48.234C91.9885 49.5567 92.9058 50.8303 93.955 52.0284L99.2306 50.0055C99.5142 49.8972 99.8349 49.9525 100.064 50.1495C101.781 51.6229 103.742 52.7531 105.891 53.5115C106.177 53.6111 106.386 53.8615 106.434 54.161L107.32 59.7438C110.445 60.364 113.496 60.364 116.622 59.7438L117.508 54.161C117.556 53.8615 117.763 53.6126 118.05 53.5115C120.199 52.7531 122.16 51.6229 123.876 50.1495C124.106 49.9525 124.427 49.8972 124.711 50.0055L129.985 52.0284C131.036 50.8303 131.953 49.5567 132.716 48.234C133.479 46.9112 134.125 45.4802 134.636 43.9715L130.25 40.4174C130.015 40.2263 129.903 39.9219 129.958 39.6239C130.175 38.4538 130.281 37.353 130.281 36.2561C130.281 35.1602 130.175 34.058 129.958 32.8893C129.903 32.5913 130.015 32.2869 130.25 32.0958L134.636 28.5407C134.125 27.0316 133.479 25.6005 132.716 24.2792C131.953 22.9565 131.036 21.6819 129.985 20.4848L124.711 22.5063C124.427 22.6161 124.106 22.5607 123.876 22.3623C122.16 20.8903 120.199 19.7587 118.05 19.0008C117.763 18.9006 117.556 18.6507 117.508 18.3512L116.622 12.768C113.497 12.1483 110.443 12.1483 107.32 12.768L106.434 18.3512C106.386 18.6507 106.177 18.9006 105.891 19.0008C103.741 19.7587 101.781 20.8903 100.064 22.3623C99.8349 22.5607 99.5142 22.6161 99.2306 22.5063L93.955 20.4848C92.9058 21.6819 91.9885 22.9565 91.2243 24.2792ZM89.7932 23.452C89.9449 23.1896 90.1101 22.9305 90.2738 22.6719C91.09 21.3737 92.0357 20.1223 93.1104 18.9502C93.3396 18.6998 93.6984 18.6151 94.0152 18.7369L99.3688 20.7892C101.022 19.4409 102.87 18.3743 104.876 17.6126L105.775 11.9475C105.829 11.6118 106.082 11.3432 106.414 11.2695C110.137 10.4446 113.804 10.4446 117.528 11.2695C117.859 11.3432 118.112 11.6118 118.165 11.9475L119.065 17.6126C121.07 18.3743 122.92 19.4409 124.573 20.7892L129.925 18.7369C130.242 18.6151 130.602 18.6998 130.831 18.9502C132.119 20.3553 133.235 21.8707 134.148 23.452C135.06 25.0323 135.815 26.7567 136.388 28.5749C136.49 28.8994 136.384 29.2529 136.12 29.4662L131.669 33.0742C131.845 34.1591 131.934 35.2281 131.934 36.2561C131.934 37.2851 131.845 38.3527 131.669 39.439L136.12 43.0456C136.384 43.2603 136.49 43.6128 136.388 43.9369C135.815 45.7551 135.06 47.4799 134.148 49.0598C133.444 50.2804 132.616 51.4578 131.685 52.5792C131.409 52.911 131.126 53.2399 130.831 53.562C130.602 53.8119 130.242 53.8972 129.925 53.7748L124.573 51.724C122.92 53.0713 121.07 54.1374 119.065 54.8992L118.165 60.5648C118.112 60.8999 117.859 61.1686 117.528 61.2428C115.665 61.6559 113.795 61.8639 111.971 61.8639C110.145 61.8639 108.276 61.6559 106.414 61.2428C106.082 61.1686 105.829 60.8999 105.775 60.5648L104.876 54.8992C102.87 54.1374 101.022 53.0713 99.3688 51.724L94.0152 53.7748C93.6984 53.8972 93.3396 53.8119 93.1104 53.562C91.8224 52.1565 90.7067 50.6416 89.7932 49.0598C88.8798 47.4799 88.1267 45.7551 87.5537 43.9369C87.4511 43.6128 87.557 43.2603 87.8209 43.0456L92.2721 39.439C92.0959 38.3541 92.0058 37.2851 92.0058 36.2561C92.0058 35.2266 92.0959 34.1591 92.2721 33.0742L87.8209 29.4662C87.557 29.2529 87.4511 28.8994 87.5537 28.5749C88.1267 26.7567 88.8798 25.0333 89.7932 23.452ZM140.792 40.0168C140.798 40.4694 141.167 40.8315 141.618 40.8315C141.622 40.8315 141.627 40.8315 141.63 40.8315C142.086 40.8258 142.451 40.4497 142.445 39.9937L142.359 33.9174C148.601 39.4525 152.243 47.5415 152.176 55.8988C152.172 56.3563 152.539 56.7285 152.996 56.7323C152.999 56.7323 153 56.7323 153.002 56.7323C153.456 56.7323 153.826 56.3674 153.829 55.9123C153.9 47.1395 150.102 38.6498 143.588 32.8046L149.424 32.3731C149.88 32.3385 150.221 31.9427 150.188 31.4867C150.153 31.0316 149.757 30.6955 149.302 30.7234L141.447 31.3042C141.439 31.3056 141.432 31.3066 141.425 31.308C141.401 31.3104 141.377 31.3152 141.353 31.32C141.325 31.3253 141.296 31.3302 141.268 31.3388C141.246 31.346 141.226 31.3547 141.204 31.3634C141.177 31.3745 141.15 31.3855 141.124 31.3981C141.103 31.4091 141.083 31.4226 141.064 31.4351C141.039 31.451 141.016 31.4669 140.992 31.4857C140.974 31.4992 140.957 31.5151 140.94 31.531C140.918 31.5531 140.897 31.5743 140.876 31.5988C140.87 31.6061 140.862 31.6114 140.857 31.62C140.848 31.6297 140.843 31.6422 140.835 31.6533C140.818 31.6778 140.801 31.7038 140.786 31.7308C140.775 31.7515 140.764 31.7727 140.754 31.7948C140.743 31.8208 140.733 31.8468 140.725 31.8738C140.716 31.8984 140.71 31.9219 140.704 31.9465C140.697 31.9725 140.694 31.998 140.69 32.0255C140.688 32.0524 140.685 32.0794 140.684 32.1069C140.684 32.1179 140.681 32.129 140.681 32.1401L140.792 40.0168ZM110.791 81.2187C110.796 81.1927 110.8 81.1657 110.802 81.1373C110.803 81.1113 110.804 81.0853 110.804 81.0593C110.804 81.0338 110.802 81.0078 110.798 80.9818C110.796 80.9534 110.792 80.9264 110.786 80.8994C110.784 80.8884 110.784 80.8783 110.781 80.8672L108.816 73.2481C108.703 72.8065 108.252 72.5402 107.809 72.6539C107.368 72.7685 107.102 73.2182 107.215 73.6607L108.731 79.5396C101.354 75.6417 95.8965 68.6462 93.9796 60.5104C93.8746 60.0654 93.4297 59.7905 92.9857 59.8955C92.5408 60 92.2658 60.4454 92.3708 60.8888C94.3812 69.4267 100.081 76.7699 107.791 80.9067L102.235 82.6854C101.799 82.8246 101.561 83.2897 101.7 83.7245C101.812 84.076 102.138 84.3004 102.488 84.3004C102.57 84.3004 102.655 84.2869 102.739 84.2595L110.232 81.8606C110.295 81.8413 110.352 81.8114 110.406 81.7797C110.42 81.771 110.432 81.7609 110.446 81.7522C110.495 81.718 110.542 81.6795 110.582 81.6352C110.59 81.6265 110.6 81.6193 110.607 81.6106C110.654 81.5562 110.691 81.496 110.722 81.432C110.725 81.4257 110.731 81.4209 110.734 81.4132C110.739 81.4012 110.742 81.3887 110.747 81.3761C110.758 81.3482 110.766 81.3198 110.775 81.2914C110.781 81.2668 110.787 81.2432 110.791 81.2187ZM51.0096 45.3805C51.1415 45.6809 51.4386 45.8745 51.766 45.8745C51.768 45.8745 51.7699 45.8745 51.7718 45.8745C52.1016 45.8721 52.3983 45.6737 52.5278 45.3704L55.1001 39.2969C55.2792 38.8766 55.0832 38.3912 54.6629 38.2135C54.2425 38.0358 53.7566 38.2318 53.578 38.6522L51.7521 42.9632L50.5232 40.1699C50.3393 39.752 49.851 39.5623 49.4335 39.7457C49.0156 39.9297 48.8259 40.4174 49.0098 40.8354L51.0096 45.3805ZM54.686 53.6935C54.2656 53.5148 53.7812 53.7122 53.6026 54.1312L51.7761 58.4432L50.5473 55.6499C50.3634 55.2319 49.8751 55.0422 49.4576 55.2262C49.0396 55.4111 48.8499 55.8979 49.0339 56.3158L51.0336 60.8604C51.1656 61.1614 51.4627 61.355 51.7906 61.355C51.7925 61.355 51.7944 61.355 51.7959 61.355C52.1262 61.3526 52.4228 61.1542 52.5509 60.8508L55.1251 54.7774C55.3038 54.357 55.1063 53.8712 54.686 53.6935ZM58.9893 58.6589H71.0799C71.5368 58.6589 71.9066 58.2891 71.9066 57.8317C71.9066 57.3757 71.5368 57.0049 71.0799 57.0049H58.9893C58.5333 57.0049 58.1621 57.3757 58.1621 57.8317C58.1621 58.2891 58.5333 58.6589 58.9893 58.6589ZM58.9893 43.2873H71.0799C71.5368 43.2873 71.9066 42.9175 71.9066 42.46C71.9066 42.004 71.5368 41.6342 71.0799 41.6342H58.9893C58.5333 41.6342 58.1621 42.004 58.1621 42.46C58.1621 42.9175 58.5333 43.2873 58.9893 43.2873ZM42.0571 34.317V70.3325C42.0571 71.2324 42.7895 71.9648 43.6899 71.9648H74.7226C75.6221 71.9648 76.3559 71.2324 76.3559 70.3325V34.317C76.3559 33.4171 75.6221 32.6837 74.7226 32.6837H43.6899C42.7895 32.6837 42.0571 33.4171 42.0571 34.317ZM40.4036 70.3325V34.317C40.4036 32.5051 41.878 31.0307 43.6899 31.0307H74.7226C76.5345 31.0307 78.0085 32.5051 78.0085 34.317V70.3325C78.0085 72.1449 76.5345 73.6188 74.7226 73.6188H43.6899C41.878 73.6188 40.4036 72.1449 40.4036 70.3325ZM32.456 80.0784C31.9996 80.0784 31.6293 80.4483 31.6293 80.9043V97.3126C31.6293 97.7686 31.9996 98.1384 32.456 98.1384C32.9125 98.1384 33.2828 97.7686 33.2828 97.3126V80.9043C33.2828 80.4483 32.9125 80.0784 32.456 80.0784ZM8.08383 80.0784C7.62783 80.0784 7.25754 80.4483 7.25754 80.9043V97.3126C7.25754 97.7686 7.62783 98.1384 8.08383 98.1384C8.54079 98.1384 8.9106 97.7686 8.9106 97.3126V80.9043C8.9106 80.4483 8.54079 80.0784 8.08383 80.0784ZM33.2453 77.7286C33.7022 77.7286 34.072 77.3588 34.072 76.9028C34.072 76.4454 33.7022 76.0756 33.2453 76.0756H27.2657C26.8092 76.0756 26.439 76.4454 26.439 76.9028C26.439 77.3588 26.8092 77.7286 27.2657 77.7286H33.2453ZM24.43 86.7692L22.0585 72.5393L21.8226 72.638C20.7618 73.079 19.544 73.079 18.4823 72.638L18.2468 72.5393L15.8748 86.7692C15.859 86.8669 15.8845 86.9666 15.9452 87.0456L19.871 92.1439C19.9639 92.2648 20.0872 92.2821 20.1527 92.2821C20.2182 92.2821 20.3414 92.2648 20.4339 92.1439L24.3607 87.0441C24.4209 86.9666 24.4464 86.8669 24.43 86.7692ZM20.9987 31.8541H19.6018C14.5954 31.8541 10.5223 35.9268 10.5223 40.9327V42.0065C10.5483 42.0026 10.5728 41.9944 10.5988 41.993C11.6225 41.9573 12.4787 41.342 12.8779 40.4704C13.0917 39.9441 13.1846 39.1934 13.0589 38.03C13.056 38.005 13.0546 37.9819 13.0541 37.9573C13.0454 37.5158 13.2101 37.1002 13.5178 36.7848C13.7484 36.5494 14.0378 36.3929 14.3542 36.3288C14.5536 36.2561 14.7659 36.2104 14.9898 36.2104H25.6661C25.8236 36.2104 25.9748 36.2349 26.1211 36.272C26.5767 36.3558 26.9609 36.6307 27.1988 37.0131C27.2142 37.0352 27.2272 37.0583 27.2416 37.0819C27.2566 37.1079 27.272 37.1335 27.2855 37.1609C27.4396 37.432 27.5344 37.7416 27.5344 38.0743V39.3798C27.5344 39.5598 27.572 40.4954 28.3039 41.2312C28.9265 41.8572 29.7022 41.9829 30.1091 42.0026C30.1106 42.0026 30.1115 42.0026 30.113 42.0026L30.0778 40.9611C30.0773 35.9268 26.0046 31.8541 20.9987 31.8541ZM11.5652 51.1717V53.2832C11.5652 55.1544 12.457 56.8051 13.7841 57.3916L17.4562 58.9955C19.181 59.7621 21.0079 59.7809 22.7447 59.0509L26.8333 57.3473C28.1652 56.794 29.0955 55.099 29.0955 53.2278V51.1664C29.0955 50.9498 29.1803 50.7413 29.3319 50.5872L30.7568 49.1354C30.9879 48.8985 31.115 48.5855 31.115 48.2513V44.9553C31.115 44.4015 30.763 43.9171 30.2386 43.751L29.9165 43.647C29.2462 43.5979 28.0911 43.3624 27.1319 42.3974C25.9714 41.2312 25.8813 39.7924 25.8813 39.3798V38.0743C25.8813 37.9583 25.7846 37.8634 25.6661 37.8634H14.9898C14.8714 37.8634 14.7751 37.9583 14.7751 38.0743V39.3798C14.7751 41.6516 13.0271 43.5006 10.7741 43.6398L10.4192 43.751C9.89531 43.9186 9.54091 44.4006 9.54091 44.95V48.2475C9.54091 48.572 9.67381 48.8946 9.90494 49.1315L11.3302 50.5949C11.481 50.749 11.5652 50.956 11.5652 51.1717ZM13.1947 66.7369L18.5637 70.7923C19.2147 71.2449 20.0304 71.3865 20.7994 71.2286C20.9308 71.1968 21.0623 71.1636 21.1884 71.1106L21.5915 70.943C21.6902 70.891 21.7889 70.838 21.8818 70.774L27.4463 66.7196C26.1924 65.7729 25.448 64.3341 25.4306 62.7653C25.3998 62.5149 25.3122 61.6054 25.3733 59.7462L24.3925 60.1555C24.2933 60.2046 24.1946 60.2528 24.0959 60.3033C24.0752 60.3134 24.0525 60.3231 24.0313 60.3317C23.7752 60.4343 23.5296 60.5253 23.2898 60.6091C22.5102 60.9274 21.7051 61.1219 20.8933 61.1946C20.0313 61.2943 19.2638 61.2413 18.5261 61.0627C17.9367 60.9418 17.3546 60.7593 16.7893 60.508L15.2258 59.8252V62.7071C15.2258 64.3158 14.4669 65.7888 13.1947 66.7369ZM1.74363 96.7184C1.74363 97.1758 1.37334 97.5456 0.916861 97.5456C0.460378 97.5456 0.0900879 97.1758 0.0900879 96.7184V73.8432C0.0900879 71.7809 1.35697 69.9371 3.31773 69.1455L11.1747 65.9935C11.2301 65.9492 11.2912 65.9111 11.3577 65.8827L11.6524 65.7517C12.8263 65.1802 13.5727 64.0077 13.5727 62.7071V59.1029L13.1196 58.9055C11.1998 58.0575 9.91168 55.7992 9.91168 53.2832V51.5069L8.72136 50.2867C8.18398 49.7354 7.88737 49.0107 7.88737 48.2475V44.95C7.88737 44.0972 8.26055 43.3205 8.86919 42.7807V40.9327C8.86919 35.0157 13.6839 30.201 19.6018 30.201H20.9987C26.9161 30.201 31.7309 35.0157 31.7309 40.9327L31.793 42.7841C32.3983 43.3244 32.7686 44.1011 32.7686 44.9553V48.2513C32.7686 49.0193 32.4734 49.744 31.9379 50.2915L30.7486 51.5045V53.2278C30.7486 55.7881 29.4306 58.0575 27.4684 58.8746L27.0572 59.0461C26.9325 61.5803 27.0726 62.5727 27.0741 62.5838C27.0803 62.6233 27.0837 62.6676 27.0837 62.7085C27.0837 63.9966 27.82 65.1628 29.0055 65.7508L29.3011 65.8827C29.3993 65.927 29.4812 65.9935 29.5534 66.0686L37.2236 69.1469C39.1839 69.9357 40.4498 71.7785 40.4498 73.8423V96.7198C40.4498 97.1768 40.0795 97.5466 39.623 97.5466C39.1665 97.5466 38.7962 97.1768 38.7962 96.7208V73.8423C38.7962 72.4564 37.9367 71.2165 36.6068 70.6801L29.0228 67.6369L23.5782 71.6022L26.061 86.4971C26.1524 87.0441 26.0104 87.6114 25.6719 88.0524L21.7441 93.1522C21.3613 93.6501 20.7811 93.9362 20.1527 93.9362C19.5243 93.9362 18.9441 93.6501 18.5608 93.1522L14.6344 88.0539C14.2945 87.6114 14.1529 87.0441 14.2444 86.4971L16.73 71.5849L11.5089 67.6403L3.93456 70.6801C2.60411 71.2165 1.74363 72.4588 1.74363 73.8432V96.7184ZM76.8182 1.8307C79.9379 1.68239 83.1304 1.72091 86.2483 1.9453C86.2675 1.94626 86.2873 1.94626 86.307 1.94626C86.7375 1.94626 87.0996 1.61497 87.1319 1.17968C87.1641 0.723678 86.8213 0.327867 86.3662 0.295605C83.1834 0.0664002 79.9244 0.0283601 76.7392 0.178595C76.2827 0.200745 75.9302 0.587888 75.9524 1.04389C75.9745 1.50037 76.3631 1.84755 76.8182 1.8307ZM40.6015 12.6216C40.7445 12.6216 40.8889 12.5845 41.0209 12.507C43.7212 10.9132 46.5454 9.47052 49.4148 8.21856C49.8332 8.03607 50.0244 7.54877 49.8419 7.12984C49.6594 6.71188 49.1716 6.51975 48.7536 6.70321C45.8231 7.9831 42.9388 9.45607 40.1806 11.0831C39.7877 11.3147 39.6567 11.8213 39.8888 12.2147C40.0429 12.4762 40.3183 12.6216 40.6015 12.6216ZM25.5005 24.1868C25.709 24.1868 25.9175 24.1088 26.0783 23.9513C28.3203 21.7609 30.7178 19.6826 33.2048 17.7777C33.5669 17.5004 33.6358 16.9818 33.3579 16.6192C33.0806 16.2566 32.5615 16.1877 32.1994 16.4651C29.6598 18.4104 27.2118 20.5316 24.9226 22.7692C24.5962 23.0884 24.5899 23.6123 24.9092 23.9378C25.0714 24.104 25.2857 24.1868 25.5005 24.1868ZM58.0292 5.01596C58.1081 5.01596 58.1871 5.00489 58.2661 4.98129C61.265 4.08614 64.353 3.36771 67.4434 2.84382C67.8932 2.76726 68.1965 2.33966 68.1199 1.88944C68.0434 1.4397 67.6182 1.13875 67.167 1.2129C64.0116 1.74932 60.8572 2.48268 57.7937 3.39612C57.356 3.52661 57.1071 3.98791 57.2376 4.42513C57.344 4.78387 57.6729 5.01596 58.0292 5.01596ZM95.5941 3.18666C98.671 3.78567 101.742 4.58211 104.721 5.55093C104.806 5.57934 104.893 5.59138 104.977 5.59138C105.325 5.59138 105.649 5.3694 105.763 5.02078C105.904 4.58693 105.667 4.11985 105.233 3.97925C102.189 2.98924 99.0534 2.17547 95.911 1.56297C95.4627 1.47533 95.0283 1.76762 94.9412 2.21639C94.8535 2.66373 95.1468 3.09902 95.5941 3.18666ZM94.8155 156.392C91.5103 157.002 88.1243 157.402 84.7503 157.579C84.2952 157.602 83.9452 157.992 83.9688 158.448C83.9923 158.89 84.3569 159.231 84.7936 159.231C84.808 159.231 84.823 159.231 84.8379 159.23C88.2822 159.048 91.7395 158.641 95.115 158.018C95.5633 157.935 95.8604 157.504 95.7781 157.055C95.6952 156.607 95.2652 156.308 94.8155 156.392ZM114.053 150.158C111.008 151.607 107.841 152.868 104.639 153.906C104.203 154.047 103.965 154.514 104.106 154.947C104.22 155.297 104.544 155.519 104.893 155.519C104.978 155.519 105.064 155.506 105.148 155.478C108.419 154.419 111.654 153.132 114.764 151.651C115.176 151.454 115.351 150.961 115.155 150.549C114.959 150.137 114.465 149.961 114.053 150.158ZM145.777 123.992C145.403 123.732 144.887 123.824 144.627 124.199C142.703 126.963 140.578 129.63 138.311 132.127C138.004 132.464 138.029 132.988 138.366 133.295C138.526 133.438 138.724 133.51 138.922 133.51C139.148 133.51 139.371 133.418 139.535 133.238C141.85 130.689 144.019 127.966 145.984 125.143C146.244 124.768 146.152 124.253 145.777 123.992ZM131.026 139.173C128.456 141.355 125.72 143.389 122.895 145.218C122.512 145.465 122.403 145.978 122.651 146.36C122.809 146.605 123.075 146.739 123.345 146.739C123.499 146.739 123.655 146.696 123.793 146.605C126.679 144.738 129.473 142.661 132.097 140.432C132.444 140.136 132.486 139.615 132.192 139.268C131.896 138.92 131.375 138.878 131.026 139.173ZM154.987 105.734C154.558 105.579 154.083 105.801 153.928 106.23C152.783 109.399 151.415 112.524 149.864 115.519C149.654 115.925 149.813 116.423 150.217 116.634C150.34 116.697 150.469 116.727 150.597 116.727C150.897 116.727 151.185 116.564 151.332 116.279C152.916 113.221 154.312 110.029 155.482 106.793C155.637 106.363 155.416 105.89 154.987 105.734ZM159.158 85.718C158.701 85.681 158.303 86.0151 158.263 86.4697C157.975 89.8341 157.463 93.2042 156.744 96.4892C156.646 96.9341 156.928 97.3757 157.375 97.4739C157.434 97.4864 157.493 97.4927 157.552 97.4927C157.932 97.4927 158.274 97.2288 158.358 96.8431C159.094 93.4888 159.617 90.0459 159.91 86.6117C159.949 86.1567 159.613 85.7561 159.158 85.718ZM40.0525 146.343C37.2544 144.637 34.5353 142.735 31.9707 140.688C31.6139 140.403 31.0938 140.462 30.8088 140.818C30.5242 141.174 30.5824 141.694 30.9393 141.979C33.5582 144.07 36.3347 146.013 39.1921 147.754C39.3264 147.837 39.4747 147.875 39.6216 147.875C39.9004 147.875 40.1724 147.735 40.328 147.479C40.5658 147.089 40.4421 146.581 40.0525 146.343ZM8.48397 109.472C8.31014 109.05 7.82621 108.848 7.4044 109.023C6.98259 109.198 6.78179 109.681 6.9561 110.103C8.23406 113.196 9.72485 116.239 11.3866 119.15C11.5392 119.417 11.8185 119.567 12.1055 119.567C12.2447 119.567 12.3853 119.532 12.5148 119.458C12.9111 119.231 13.0488 118.727 12.8225 118.33C11.1949 115.48 9.73545 112.501 8.48397 109.472ZM24.6636 134.06C24.9819 134.387 24.9746 134.911 24.6472 135.229C24.4864 135.386 24.2784 135.464 24.0708 135.464C23.8556 135.464 23.6403 135.379 23.4781 135.213C21.1432 132.81 18.9388 130.238 16.9255 127.563C16.6506 127.198 16.7238 126.681 17.0883 126.406C17.4533 126.131 17.9714 126.203 18.2459 126.568C20.2182 129.188 22.3773 131.709 24.6636 134.06Z" fill="white"/>
</mask>
<g mask="url(#mask1_670_161)">
<mask id="mask2_670_161" style="mask-type:luminance" maskUnits="userSpaceOnUse" x="0" y="0" width="160" height="160">
<path d="M104.645 130.82C104.822 130.399 104.627 129.914 104.206 129.736C103.786 129.559 103.3 129.755 103.122 130.175L101.373 134.304L100.203 131.647C100.02 131.229 99.5315 131.04 99.1136 131.224C98.6956 131.408 98.5059 131.895 98.6908 132.312L100.63 136.722C100.763 137.023 101.059 137.216 101.387 137.216C101.389 137.216 101.391 137.216 101.393 137.216C101.722 137.214 102.019 137.015 102.149 136.712L104.645 130.82ZM106.954 123.461C106.954 123.005 106.584 122.635 106.128 122.635H82.5314C82.0754 122.635 81.7056 123.005 81.7056 123.461C81.7056 123.918 82.0754 124.288 82.5314 124.288H106.128C106.584 124.288 106.954 123.918 106.954 123.461ZM82.5314 117.567C82.0754 117.567 81.7056 117.937 81.7056 118.393C81.7056 118.85 82.0754 119.22 82.5314 119.22H106.128C106.584 119.22 106.954 118.85 106.954 118.393C106.954 117.937 106.584 117.567 106.128 117.567H82.5314ZM81.7056 113.325C81.7056 113.782 82.0754 114.152 82.5314 114.152H106.128C106.584 114.152 106.954 113.782 106.954 113.325C106.954 112.868 106.584 112.498 106.128 112.498H82.5314C82.0754 112.498 81.7056 112.868 81.7056 113.325ZM111.22 140.364V105.425C111.22 104.566 110.52 103.866 109.661 103.866H79.557C78.6966 103.866 77.9974 104.566 77.9974 105.425V123.499C78.2526 123.792 78.503 124.092 78.7423 124.403C81.7547 128.326 83.0601 133.186 82.4168 138.091C82.243 139.414 81.9285 140.695 81.4923 141.923H109.661C110.52 141.923 111.22 141.223 111.22 140.364ZM112.873 105.425V140.364C112.873 142.135 111.432 143.576 109.661 143.576H80.8119C79.6866 145.972 78.0533 148.11 75.9808 149.85L77.6892 152.075C77.8867 152.332 77.9151 152.679 77.7648 152.965C77.6204 153.237 77.3382 153.405 77.0339 153.405C77.0175 153.405 77.0016 153.404 76.9857 153.404L65.8062 152.76C65.5635 152.747 65.3392 152.626 65.1937 152.431C65.0469 152.236 64.9939 151.989 65.0483 151.751L65.3541 150.416L67.4997 141.029C67.57 140.717 67.8156 140.474 68.1286 140.406C68.4416 140.336 68.7661 140.456 68.9607 140.71L70.6137 142.863C75.2007 138.815 75.9933 131.909 72.2904 127.088C70.6903 125.005 68.5244 123.582 66.0244 122.972C65.5818 122.864 65.3093 122.418 65.4181 121.974C65.5106 121.596 65.8481 121.345 66.2203 121.345C66.2858 121.345 66.3513 121.35 66.4163 121.366C69.2862 122.066 71.7699 123.696 73.6016 126.081C78.0248 131.842 76.8499 140.193 70.9821 144.7C70.8088 144.833 70.5892 144.892 70.372 144.864C70.1539 144.835 69.9569 144.722 69.8236 144.548L68.719 143.111L66.8786 151.166L75.2773 151.65L74.176 150.215C73.8987 149.854 73.9666 149.335 74.3292 149.056C77.9016 146.312 80.1907 142.342 80.7772 137.875C81.3628 133.41 80.1744 128.983 77.4316 125.411C74.6595 121.803 70.6816 119.512 66.2203 118.951C66.1886 118.948 66.1553 118.942 66.1231 118.938C65.6695 118.884 65.3454 118.472 65.3993 118.018C65.4538 117.566 65.8655 117.243 66.3191 117.296C70.0923 117.748 73.5539 119.327 76.3443 121.821V109.839H63.4097C62.9537 109.839 62.5829 109.468 62.5829 109.012C62.5829 108.555 62.9537 108.185 63.4097 108.185H76.3443V105.425C76.3443 105.201 76.3679 104.982 76.4113 104.77H63.4097C62.9537 104.77 62.5829 104.401 62.5829 103.945C62.5829 103.487 62.9537 103.117 63.4097 103.117H77.3271C77.9049 102.559 78.6903 102.213 79.557 102.213H92.0983V90.9767C92.0983 90.1162 91.3981 89.4171 90.5391 89.4171H60.4353C59.5749 89.4171 58.8762 90.1162 58.8762 90.9767V118.405L62.3065 118.604C62.5497 118.618 62.7736 118.737 62.9205 118.931C63.0659 119.126 63.1189 119.375 63.0649 119.613L60.614 130.334C60.5427 130.647 60.2971 130.89 59.9856 130.958C59.6721 131.027 59.3481 130.907 59.1535 130.653L57.499 128.501C52.9135 132.549 52.1209 139.455 55.8238 144.276C57.4225 146.358 59.5898 147.782 62.0884 148.39C62.5324 148.499 62.8044 148.947 62.6961 149.39C62.6036 149.768 62.2661 150.018 61.8924 150.018C61.8284 150.018 61.7629 150.013 61.6979 149.997C58.828 149.298 56.3439 147.667 54.5121 145.283C50.0889 139.523 51.2633 131.171 57.1307 126.664C57.3045 126.53 57.525 126.472 57.7422 126.501C57.9603 126.529 58.1563 126.642 58.2906 126.816L59.3938 128.253L61.2356 120.197L52.836 119.714L53.9377 121.148C54.215 121.51 54.1476 122.03 53.785 122.308C50.2126 125.051 47.9225 129.023 47.3365 133.488C46.7505 137.954 47.9389 142.381 50.6826 145.953C53.4533 149.562 57.4326 151.852 61.8924 152.412C61.9257 152.416 61.9579 152.423 61.9911 152.427C62.4447 152.481 62.7678 152.891 62.7134 153.345C62.6643 153.765 62.3065 154.073 61.8939 154.073C61.8616 154.073 61.8284 154.072 61.7952 154.067C56.8485 153.475 52.4363 150.952 49.3714 146.961C46.3585 143.038 45.0536 138.176 45.6974 133.273C45.9781 131.134 46.619 129.1 47.5734 127.235C48.6843 125.063 50.2218 123.119 52.1334 121.514L50.4245 119.289C50.2276 119.033 50.1982 118.684 50.3494 118.399C50.5006 118.113 50.802 117.943 51.128 117.96L57.2217 118.31V90.9767C57.2217 89.2052 58.6638 87.7631 60.4353 87.7631H90.5391C92.3106 87.7631 93.7513 89.2052 93.7513 90.9767V102.213H109.661C111.432 102.213 112.873 103.654 112.873 105.425ZM63.4097 99.7029H87.0062C87.4622 99.7029 87.832 99.3331 87.832 98.8756C87.832 98.4196 87.4622 98.0498 87.0062 98.0498H63.4097C62.9537 98.0498 62.5829 98.4196 62.5829 98.8756C62.5829 99.3331 62.9537 99.7029 63.4097 99.7029ZM136.049 83.8603C139.78 83.8603 142.815 80.8253 142.815 77.0954C142.815 73.3636 139.78 70.3291 136.049 70.3291C132.317 70.3291 129.283 73.3636 129.283 77.0954C129.283 80.8253 132.317 83.8603 136.049 83.8603ZM144.468 77.0954C144.468 81.7373 140.691 85.5143 136.049 85.5143C131.407 85.5143 127.63 81.7373 127.63 77.0954C127.63 72.4516 131.407 68.6746 136.049 68.6746C140.691 68.6746 144.468 72.4516 144.468 77.0954ZM111.971 26.0926C106.367 26.0926 101.807 30.6522 101.807 36.2561C101.807 41.8596 106.367 46.4196 111.971 46.4196C117.575 46.4196 122.134 41.8596 122.134 36.2561C122.134 30.6522 117.575 26.0926 111.971 26.0926ZM111.971 24.4396C118.487 24.4396 123.787 29.7402 123.787 36.2561C123.787 42.7721 118.487 48.0727 111.971 48.0727C105.455 48.0727 100.154 42.7721 100.154 36.2561C100.154 29.7402 105.455 24.4396 111.971 24.4396ZM149.609 81.0559L153.7 80.3938C153.911 79.2671 154.017 78.1418 154.013 77.041C154.01 75.9412 153.898 74.8173 153.679 73.6906L149.588 73.053C149.288 73.0078 149.038 72.8002 148.936 72.5147C148.637 71.6764 148.292 70.9257 147.88 70.2169C147.468 69.509 146.986 68.8373 146.406 68.1632C146.209 67.9325 146.152 67.6133 146.261 67.3297L147.731 63.4578C146.861 62.7109 145.939 62.0575 144.985 61.51C144.031 60.963 143.001 60.4983 141.917 60.1247L139.317 63.3518C139.127 63.5873 138.823 63.7009 138.523 63.6451C136.861 63.3393 135.17 63.3446 133.496 63.6624C133.198 63.7178 132.893 63.6085 132.701 63.373L130.082 60.1593C128.999 60.5388 127.972 61.0112 127.021 61.5635C126.069 62.1167 125.152 62.7764 124.287 63.5281L125.782 67.3952C125.891 67.6788 125.837 67.998 125.64 68.2296C124.535 69.5264 123.694 70.9936 123.138 72.5884C123.038 72.8758 122.789 73.0853 122.49 73.1335L118.399 73.7951C118.187 74.9218 118.081 76.0476 118.085 77.1484C118.087 78.2477 118.2 79.373 118.419 80.4974L122.51 81.1359C122.81 81.1826 123.06 81.3901 123.162 81.6747C123.461 82.513 123.806 83.2637 124.218 83.9725C124.629 84.6799 125.112 85.353 125.692 86.0262C125.889 86.2564 125.946 86.5756 125.837 86.8592L124.366 90.7302C125.237 91.477 126.158 92.1314 127.113 92.6789C128.067 93.2264 129.098 93.6911 130.181 94.0642L132.781 90.8371C132.971 90.6007 133.276 90.487 133.575 90.5429C135.236 90.8496 136.928 90.8448 138.602 90.5265C138.9 90.4702 139.205 90.5809 139.397 90.8164L142.016 94.0301C143.1 93.6492 144.127 93.1782 145.077 92.6259C146.029 92.0727 146.946 91.413 147.811 90.6609L146.316 86.7942C146.206 86.5116 146.261 86.1914 146.458 85.9593C147.562 84.6625 148.404 83.1958 148.96 81.5996C149.06 81.3136 149.309 81.1041 149.609 81.0559ZM155.178 72.781C155.498 74.2058 155.663 75.6383 155.667 77.0362C155.671 78.4365 155.514 79.869 155.203 81.2948C155.131 81.6265 154.862 81.8803 154.527 81.9347L150.349 82.6103C149.79 84.0674 149.012 85.4219 148.032 86.6488L149.561 90.5983C149.682 90.9151 149.599 91.2738 149.348 91.504C148.275 92.494 147.117 93.3521 145.908 94.0561C144.7 94.7572 143.381 95.3393 141.988 95.7828C141.664 95.8863 141.311 95.7804 141.097 95.518L138.421 92.2364C137.961 92.3077 137.501 92.3524 137.04 92.3832C135.947 92.4545 134.851 92.415 133.765 92.2513L131.111 95.5473C130.95 95.7457 130.712 95.8555 130.466 95.8555C130.385 95.8555 130.301 95.8435 130.221 95.8175C128.826 95.3822 127.504 94.8092 126.291 94.1138C125.077 93.4171 123.914 92.5658 122.834 91.582C122.583 91.3538 122.497 90.995 122.618 90.6772L124.12 86.7239C123.615 86.0999 123.167 85.4551 122.789 84.8031C122.409 84.1512 122.07 83.4438 121.778 82.6955L117.599 82.0431C117.264 81.9915 116.994 81.7402 116.92 81.4084C116.6 79.9836 116.435 78.5511 116.431 77.1518C116.427 75.7539 116.584 74.3204 116.894 72.8941C116.967 72.5624 117.236 72.3086 117.571 72.2542L121.748 71.5791C122.308 70.122 123.086 68.767 124.066 67.5406L122.537 63.5911C122.415 63.2743 122.499 62.9156 122.748 62.6849C123.823 61.6949 124.98 60.8373 126.19 60.1333C127.399 59.4308 128.718 58.8501 130.11 58.4061C130.433 58.3026 130.787 58.4085 131.001 58.6714L133.677 61.954C134.316 61.8529 134.957 61.8023 135.598 61.784C136.512 61.7556 137.426 61.7999 138.333 61.9381L140.987 58.6416C141.2 58.3767 141.553 58.2684 141.878 58.3719C143.272 58.8067 144.594 59.3802 145.808 60.0765C147.021 60.7718 148.184 61.6236 149.264 62.606C149.515 62.8352 149.601 63.1939 149.48 63.5107L147.978 67.4655C148.483 68.089 148.931 68.7338 149.309 69.3858C149.689 70.0392 150.028 70.7456 150.32 71.4939L154.499 72.1459C154.834 72.1979 155.104 72.4502 155.178 72.781ZM91.2243 24.2792C90.4616 25.6005 89.8168 27.0316 89.304 28.5407L93.6911 32.0958C93.9266 32.2869 94.0388 32.5913 93.9834 32.8893C93.7648 34.058 93.6603 35.1587 93.6603 36.2561C93.6603 37.353 93.7648 38.4552 93.9834 39.6239C94.0388 39.9219 93.9266 40.2263 93.6911 40.4174L89.304 43.9715C89.8168 45.4802 90.4616 46.9112 91.2243 48.234C91.9885 49.5567 92.9058 50.8303 93.955 52.0284L99.2306 50.0055C99.5142 49.8972 99.8349 49.9525 100.064 50.1495C101.781 51.6229 103.742 52.7531 105.891 53.5115C106.177 53.6111 106.386 53.8615 106.434 54.161L107.32 59.7438C110.445 60.364 113.496 60.364 116.622 59.7438L117.508 54.161C117.556 53.8615 117.763 53.6126 118.05 53.5115C120.199 52.7531 122.16 51.6229 123.876 50.1495C124.106 49.9525 124.427 49.8972 124.711 50.0055L129.985 52.0284C131.036 50.8303 131.953 49.5567 132.716 48.234C133.479 46.9112 134.125 45.4802 134.636 43.9715L130.25 40.4174C130.015 40.2263 129.903 39.9219 129.958 39.6239C130.175 38.4538 130.281 37.353 130.281 36.2561C130.281 35.1602 130.175 34.058 129.958 32.8893C129.903 32.5913 130.015 32.2869 130.25 32.0958L134.636 28.5407C134.125 27.0316 133.479 25.6005 132.716 24.2792C131.953 22.9565 131.036 21.6819 129.985 20.4848L124.711 22.5063C124.427 22.6161 124.106 22.5607 123.876 22.3623C122.16 20.8903 120.199 19.7587 118.05 19.0008C117.763 18.9006 117.556 18.6507 117.508 18.3512L116.622 12.768C113.497 12.1483 110.443 12.1483 107.32 12.768L106.434 18.3512C106.386 18.6507 106.177 18.9006 105.891 19.0008C103.741 19.7587 101.781 20.8903 100.064 22.3623C99.8349 22.5607 99.5142 22.6161 99.2306 22.5063L93.955 20.4848C92.9058 21.6819 91.9885 22.9565 91.2243 24.2792ZM89.7932 23.452C89.9449 23.1896 90.1101 22.9305 90.2738 22.6719C91.09 21.3737 92.0357 20.1223 93.1104 18.9502C93.3396 18.6998 93.6984 18.6151 94.0152 18.7369L99.3688 20.7892C101.022 19.4409 102.87 18.3743 104.876 17.6126L105.775 11.9475C105.829 11.6118 106.082 11.3432 106.414 11.2695C110.137 10.4446 113.804 10.4446 117.528 11.2695C117.859 11.3432 118.112 11.6118 118.165 11.9475L119.065 17.6126C121.07 18.3743 122.92 19.4409 124.573 20.7892L129.925 18.7369C130.242 18.6151 130.602 18.6998 130.831 18.9502C132.119 20.3553 133.235 21.8707 134.148 23.452C135.06 25.0323 135.815 26.7567 136.388 28.5749C136.49 28.8994 136.384 29.2529 136.12 29.4662L131.669 33.0742C131.845 34.1591 131.934 35.2281 131.934 36.2561C131.934 37.2851 131.845 38.3527 131.669 39.439L136.12 43.0456C136.384 43.2603 136.49 43.6128 136.388 43.9369C135.815 45.7551 135.06 47.4799 134.148 49.0598C133.444 50.2804 132.616 51.4578 131.685 52.5792C131.409 52.911 131.126 53.2399 130.831 53.562C130.602 53.8119 130.242 53.8972 129.925 53.7748L124.573 51.724C122.92 53.0713 121.07 54.1374 119.065 54.8992L118.165 60.5648C118.112 60.8999 117.859 61.1686 117.528 61.2428C115.665 61.6559 113.795 61.8639 111.971 61.8639C110.145 61.8639 108.276 61.6559 106.414 61.2428C106.082 61.1686 105.829 60.8999 105.775 60.5648L104.876 54.8992C102.87 54.1374 101.022 53.0713 99.3688 51.724L94.0152 53.7748C93.6984 53.8972 93.3396 53.8119 93.1104 53.562C91.8224 52.1565 90.7067 50.6416 89.7932 49.0598C88.8798 47.4799 88.1267 45.7551 87.5537 43.9369C87.4511 43.6128 87.557 43.2603 87.8209 43.0456L92.2721 39.439C92.0959 38.3541 92.0058 37.2851 92.0058 36.2561C92.0058 35.2266 92.0959 34.1591 92.2721 33.0742L87.8209 29.4662C87.557 29.2529 87.4511 28.8994 87.5537 28.5749C88.1267 26.7567 88.8798 25.0333 89.7932 23.452ZM140.792 40.0168C140.798 40.4694 141.167 40.8315 141.618 40.8315C141.622 40.8315 141.627 40.8315 141.63 40.8315C142.086 40.8258 142.451 40.4497 142.445 39.9937L142.359 33.9174C148.601 39.4525 152.243 47.5415 152.176 55.8988C152.172 56.3563 152.539 56.7285 152.996 56.7323C152.999 56.7323 153 56.7323 153.002 56.7323C153.456 56.7323 153.826 56.3674 153.829 55.9123C153.9 47.1395 150.102 38.6498 143.588 32.8046L149.424 32.3731C149.88 32.3385 150.221 31.9427 150.188 31.4867C150.153 31.0316 149.757 30.6955 149.302 30.7234L141.447 31.3042C141.439 31.3056 141.432 31.3066 141.425 31.308C141.401 31.3104 141.377 31.3152 141.353 31.32C141.325 31.3253 141.296 31.3302 141.268 31.3388C141.246 31.346 141.226 31.3547 141.204 31.3634C141.177 31.3745 141.15 31.3855 141.124 31.3981C141.103 31.4091 141.083 31.4226 141.064 31.4351C141.039 31.451 141.016 31.4669 140.992 31.4857C140.974 31.4992 140.957 31.5151 140.94 31.531C140.918 31.5531 140.897 31.5743 140.876 31.5988C140.87 31.6061 140.862 31.6114 140.857 31.62C140.848 31.6297 140.843 31.6422 140.835 31.6533C140.818 31.6778 140.801 31.7038 140.786 31.7308C140.775 31.7515 140.764 31.7727 140.754 31.7948C140.743 31.8208 140.733 31.8468 140.725 31.8738C140.716 31.8984 140.71 31.9219 140.704 31.9465C140.697 31.9725 140.694 31.998 140.69 32.0255C140.688 32.0524 140.685 32.0794 140.684 32.1069C140.684 32.1179 140.681 32.129 140.681 32.1401L140.792 40.0168ZM110.791 81.2187C110.796 81.1927 110.8 81.1657 110.802 81.1373C110.803 81.1113 110.804 81.0853 110.804 81.0593C110.804 81.0338 110.802 81.0078 110.798 80.9818C110.796 80.9534 110.792 80.9264 110.786 80.8994C110.784 80.8884 110.784 80.8783 110.781 80.8672L108.816 73.2481C108.703 72.8065 108.252 72.5402 107.809 72.6539C107.368 72.7685 107.102 73.2182 107.215 73.6607L108.731 79.5396C101.354 75.6417 95.8965 68.6462 93.9796 60.5104C93.8746 60.0654 93.4297 59.7905 92.9857 59.8955C92.5408 60 92.2658 60.4454 92.3708 60.8888C94.3812 69.4267 100.081 76.7699 107.791 80.9067L102.235 82.6854C101.799 82.8246 101.561 83.2897 101.7 83.7245C101.812 84.076 102.138 84.3004 102.488 84.3004C102.57 84.3004 102.655 84.2869 102.739 84.2595L110.232 81.8606C110.295 81.8413 110.352 81.8114 110.406 81.7797C110.42 81.771 110.432 81.7609 110.446 81.7522C110.495 81.718 110.542 81.6795 110.582 81.6352C110.59 81.6265 110.6 81.6193 110.607 81.6106C110.654 81.5562 110.691 81.496 110.722 81.432C110.725 81.4257 110.731 81.4209 110.734 81.4132C110.739 81.4012 110.742 81.3887 110.747 81.3761C110.758 81.3482 110.766 81.3198 110.775 81.2914C110.781 81.2668 110.787 81.2432 110.791 81.2187ZM51.0096 45.3805C51.1415 45.6809 51.4386 45.8745 51.766 45.8745C51.768 45.8745 51.7699 45.8745 51.7718 45.8745C52.1016 45.8721 52.3983 45.6737 52.5278 45.3704L55.1001 39.2969C55.2792 38.8766 55.0832 38.3912 54.6629 38.2135C54.2425 38.0358 53.7566 38.2318 53.578 38.6522L51.7521 42.9632L50.5232 40.1699C50.3393 39.752 49.851 39.5623 49.4335 39.7457C49.0156 39.9297 48.8259 40.4174 49.0098 40.8354L51.0096 45.3805ZM54.686 53.6935C54.2656 53.5148 53.7812 53.7122 53.6026 54.1312L51.7761 58.4432L50.5473 55.6499C50.3634 55.2319 49.8751 55.0422 49.4576 55.2262C49.0396 55.4111 48.8499 55.8979 49.0339 56.3158L51.0336 60.8604C51.1656 61.1614 51.4627 61.355 51.7906 61.355C51.7925 61.355 51.7944 61.355 51.7959 61.355C52.1262 61.3526 52.4228 61.1542 52.5509 60.8508L55.1251 54.7774C55.3038 54.357 55.1063 53.8712 54.686 53.6935ZM58.9893 58.6589H71.0799C71.5368 58.6589 71.9066 58.2891 71.9066 57.8317C71.9066 57.3757 71.5368 57.0049 71.0799 57.0049H58.9893C58.5333 57.0049 58.1621 57.3757 58.1621 57.8317C58.1621 58.2891 58.5333 58.6589 58.9893 58.6589ZM58.9893 43.2873H71.0799C71.5368 43.2873 71.9066 42.9175 71.9066 42.46C71.9066 42.004 71.5368 41.6342 71.0799 41.6342H58.9893C58.5333 41.6342 58.1621 42.004 58.1621 42.46C58.1621 42.9175 58.5333 43.2873 58.9893 43.2873ZM42.0571 34.317V70.3325C42.0571 71.2324 42.7895 71.9648 43.6899 71.9648H74.7226C75.6221 71.9648 76.3559 71.2324 76.3559 70.3325V34.317C76.3559 33.4171 75.6221 32.6837 74.7226 32.6837H43.6899C42.7895 32.6837 42.0571 33.4171 42.0571 34.317ZM40.4036 70.3325V34.317C40.4036 32.5051 41.878 31.0307 43.6899 31.0307H74.7226C76.5345 31.0307 78.0085 32.5051 78.0085 34.317V70.3325C78.0085 72.1449 76.5345 73.6188 74.7226 73.6188H43.6899C41.878 73.6188 40.4036 72.1449 40.4036 70.3325ZM32.456 80.0784C31.9996 80.0784 31.6293 80.4483 31.6293 80.9043V97.3126C31.6293 97.7686 31.9996 98.1384 32.456 98.1384C32.9125 98.1384 33.2828 97.7686 33.2828 97.3126V80.9043C33.2828 80.4483 32.9125 80.0784 32.456 80.0784ZM8.08383 80.0784C7.62783 80.0784 7.25754 80.4483 7.25754 80.9043V97.3126C7.25754 97.7686 7.62783 98.1384 8.08383 98.1384C8.54079 98.1384 8.9106 97.7686 8.9106 97.3126V80.9043C8.9106 80.4483 8.54079 80.0784 8.08383 80.0784ZM33.2453 77.7286C33.7022 77.7286 34.072 77.3588 34.072 76.9028C34.072 76.4454 33.7022 76.0756 33.2453 76.0756H27.2657C26.8092 76.0756 26.439 76.4454 26.439 76.9028C26.439 77.3588 26.8092 77.7286 27.2657 77.7286H33.2453ZM24.43 86.7692L22.0585 72.5393L21.8226 72.638C20.7618 73.079 19.544 73.079 18.4823 72.638L18.2468 72.5393L15.8748 86.7692C15.859 86.8669 15.8845 86.9666 15.9452 87.0456L19.871 92.1439C19.9639 92.2648 20.0872 92.2821 20.1527 92.2821C20.2182 92.2821 20.3414 92.2648 20.4339 92.1439L24.3607 87.0441C24.4209 86.9666 24.4464 86.8669 24.43 86.7692ZM20.9987 31.8541H19.6018C14.5954 31.8541 10.5223 35.9268 10.5223 40.9327V42.0065C10.5483 42.0026 10.5728 41.9944 10.5988 41.993C11.6225 41.9573 12.4787 41.342 12.8779 40.4704C13.0917 39.9441 13.1846 39.1934 13.0589 38.03C13.056 38.005 13.0546 37.9819 13.0541 37.9573C13.0454 37.5158 13.2101 37.1002 13.5178 36.7848C13.7484 36.5494 14.0378 36.3929 14.3542 36.3288C14.5536 36.2561 14.7659 36.2104 14.9898 36.2104H25.6661C25.8236 36.2104 25.9748 36.2349 26.1211 36.272C26.5767 36.3558 26.9609 36.6307 27.1988 37.0131C27.2142 37.0352 27.2272 37.0583 27.2416 37.0819C27.2566 37.1079 27.272 37.1335 27.2855 37.1609C27.4396 37.432 27.5344 37.7416 27.5344 38.0743V39.3798C27.5344 39.5598 27.572 40.4954 28.3039 41.2312C28.9265 41.8572 29.7022 41.9829 30.1091 42.0026C30.1106 42.0026 30.1115 42.0026 30.113 42.0026L30.0778 40.9611C30.0773 35.9268 26.0046 31.8541 20.9987 31.8541ZM11.5652 51.1717V53.2832C11.5652 55.1544 12.457 56.8051 13.7841 57.3916L17.4562 58.9955C19.181 59.7621 21.0079 59.7809 22.7447 59.0509L26.8333 57.3473C28.1652 56.794 29.0955 55.099 29.0955 53.2278V51.1664C29.0955 50.9498 29.1803 50.7413 29.3319 50.5872L30.7568 49.1354C30.9879 48.8985 31.115 48.5855 31.115 48.2513V44.9553C31.115 44.4015 30.763 43.9171 30.2386 43.751L29.9165 43.647C29.2462 43.5979 28.0911 43.3624 27.1319 42.3974C25.9714 41.2312 25.8813 39.7924 25.8813 39.3798V38.0743C25.8813 37.9583 25.7846 37.8634 25.6661 37.8634H14.9898C14.8714 37.8634 14.7751 37.9583 14.7751 38.0743V39.3798C14.7751 41.6516 13.0271 43.5006 10.7741 43.6398L10.4192 43.751C9.89531 43.9186 9.54091 44.4006 9.54091 44.95V48.2475C9.54091 48.572 9.67381 48.8946 9.90494 49.1315L11.3302 50.5949C11.481 50.749 11.5652 50.956 11.5652 51.1717ZM13.1947 66.7369L18.5637 70.7923C19.2147 71.2449 20.0304 71.3865 20.7994 71.2286C20.9308 71.1968 21.0623 71.1636 21.1884 71.1106L21.5915 70.943C21.6902 70.891 21.7889 70.838 21.8818 70.774L27.4463 66.7196C26.1924 65.7729 25.448 64.3341 25.4306 62.7653C25.3998 62.5149 25.3122 61.6054 25.3733 59.7462L24.3925 60.1555C24.2933 60.2046 24.1946 60.2528 24.0959 60.3033C24.0752 60.3134 24.0525 60.3231 24.0313 60.3317C23.7752 60.4343 23.5296 60.5253 23.2898 60.6091C22.5102 60.9274 21.7051 61.1219 20.8933 61.1946C20.0313 61.2943 19.2638 61.2413 18.5261 61.0627C17.9367 60.9418 17.3546 60.7593 16.7893 60.508L15.2258 59.8252V62.7071C15.2258 64.3158 14.4669 65.7888 13.1947 66.7369ZM1.74363 96.7184C1.74363 97.1758 1.37334 97.5456 0.916861 97.5456C0.460378 97.5456 0.0900879 97.1758 0.0900879 96.7184V73.8432C0.0900879 71.7809 1.35697 69.9371 3.31773 69.1455L11.1747 65.9935C11.2301 65.9492 11.2912 65.9111 11.3577 65.8827L11.6524 65.7517C12.8263 65.1802 13.5727 64.0077 13.5727 62.7071V59.1029L13.1196 58.9055C11.1998 58.0575 9.91168 55.7992 9.91168 53.2832V51.5069L8.72136 50.2867C8.18398 49.7354 7.88737 49.0107 7.88737 48.2475V44.95C7.88737 44.0972 8.26055 43.3205 8.86919 42.7807V40.9327C8.86919 35.0157 13.6839 30.201 19.6018 30.201H20.9987C26.9161 30.201 31.7309 35.0157 31.7309 40.9327L31.793 42.7841C32.3983 43.3244 32.7686 44.1011 32.7686 44.9553V48.2513C32.7686 49.0193 32.4734 49.744 31.9379 50.2915L30.7486 51.5045V53.2278C30.7486 55.7881 29.4306 58.0575 27.4684 58.8746L27.0572 59.0461C26.9325 61.5803 27.0726 62.5727 27.0741 62.5838C27.0803 62.6233 27.0837 62.6676 27.0837 62.7085C27.0837 63.9966 27.82 65.1628 29.0055 65.7508L29.3011 65.8827C29.3993 65.927 29.4812 65.9935 29.5534 66.0686L37.2236 69.1469C39.1839 69.9357 40.4498 71.7785 40.4498 73.8423V96.7198C40.4498 97.1768 40.0795 97.5466 39.623 97.5466C39.1665 97.5466 38.7962 97.1768 38.7962 96.7208V73.8423C38.7962 72.4564 37.9367 71.2165 36.6068 70.6801L29.0228 67.6369L23.5782 71.6022L26.061 86.4971C26.1524 87.0441 26.0104 87.6114 25.6719 88.0524L21.7441 93.1522C21.3613 93.6501 20.7811 93.9362 20.1527 93.9362C19.5243 93.9362 18.9441 93.6501 18.5608 93.1522L14.6344 88.0539C14.2945 87.6114 14.1529 87.0441 14.2444 86.4971L16.73 71.5849L11.5089 67.6403L3.93456 70.6801C2.60411 71.2165 1.74363 72.4588 1.74363 73.8432V96.7184ZM76.8182 1.8307C79.9379 1.68239 83.1304 1.72091 86.2483 1.9453C86.2675 1.94626 86.2873 1.94626 86.307 1.94626C86.7375 1.94626 87.0996 1.61497 87.1319 1.17968C87.1641 0.723678 86.8213 0.327867 86.3662 0.295605C83.1834 0.0664002 79.9244 0.0283601 76.7392 0.178595C76.2827 0.200745 75.9302 0.587888 75.9524 1.04389C75.9745 1.50037 76.3631 1.84755 76.8182 1.8307ZM40.6015 12.6216C40.7445 12.6216 40.8889 12.5845 41.0209 12.507C43.7212 10.9132 46.5454 9.47052 49.4148 8.21856C49.8332 8.03607 50.0244 7.54877 49.8419 7.12984C49.6594 6.71188 49.1716 6.51975 48.7536 6.70321C45.8231 7.9831 42.9388 9.45607 40.1806 11.0831C39.7877 11.3147 39.6567 11.8213 39.8888 12.2147C40.0429 12.4762 40.3183 12.6216 40.6015 12.6216ZM25.5005 24.1868C25.709 24.1868 25.9175 24.1088 26.0783 23.9513C28.3203 21.7609 30.7178 19.6826 33.2048 17.7777C33.5669 17.5004 33.6358 16.9818 33.3579 16.6192C33.0806 16.2566 32.5615 16.1877 32.1994 16.4651C29.6598 18.4104 27.2118 20.5316 24.9226 22.7692C24.5962 23.0884 24.5899 23.6123 24.9092 23.9378C25.0714 24.104 25.2857 24.1868 25.5005 24.1868ZM58.0292 5.01596C58.1081 5.01596 58.1871 5.00489 58.2661 4.98129C61.265 4.08614 64.353 3.36771 67.4434 2.84382C67.8932 2.76726 68.1965 2.33966 68.1199 1.88944C68.0434 1.4397 67.6182 1.13875 67.167 1.2129C64.0116 1.74932 60.8572 2.48268 57.7937 3.39612C57.356 3.52661 57.1071 3.98791 57.2376 4.42513C57.344 4.78387 57.6729 5.01596 58.0292 5.01596ZM95.5941 3.18666C98.671 3.78567 101.742 4.58211 104.721 5.55093C104.806 5.57934 104.893 5.59138 104.977 5.59138C105.325 5.59138 105.649 5.3694 105.763 5.02078C105.904 4.58693 105.667 4.11985 105.233 3.97925C102.189 2.98924 99.0534 2.17547 95.911 1.56297C95.4627 1.47533 95.0283 1.76762 94.9412 2.21639C94.8535 2.66373 95.1468 3.09902 95.5941 3.18666ZM94.8155 156.392C91.5103 157.002 88.1243 157.402 84.7503 157.579C84.2952 157.602 83.9452 157.992 83.9688 158.448C83.9923 158.89 84.3569 159.231 84.7936 159.231C84.808 159.231 84.823 159.231 84.8379 159.23C88.2822 159.048 91.7395 158.641 95.115 158.018C95.5633 157.935 95.8604 157.504 95.7781 157.055C95.6952 156.607 95.2652 156.308 94.8155 156.392ZM114.053 150.158C111.008 151.607 107.841 152.868 104.639 153.906C104.203 154.047 103.965 154.514 104.106 154.947C104.22 155.297 104.544 155.519 104.893 155.519C104.978 155.519 105.064 155.506 105.148 155.478C108.419 154.419 111.654 153.132 114.764 151.651C115.176 151.454 115.351 150.961 115.155 150.549C114.959 150.137 114.465 149.961 114.053 150.158ZM145.777 123.992C145.403 123.732 144.887 123.824 144.627 124.199C142.703 126.963 140.578 129.63 138.311 132.127C138.004 132.464 138.029 132.988 138.366 133.295C138.526 133.438 138.724 133.51 138.922 133.51C139.148 133.51 139.371 133.418 139.535 133.238C141.85 130.689 144.019 127.966 145.984 125.143C146.244 124.768 146.152 124.253 145.777 123.992ZM131.026 139.173C128.456 141.355 125.72 143.389 122.895 145.218C122.512 145.465 122.403 145.978 122.651 146.36C122.809 146.605 123.075 146.739 123.345 146.739C123.499 146.739 123.655 146.696 123.793 146.605C126.679 144.738 129.473 142.661 132.097 140.432C132.444 140.136 132.486 139.615 132.192 139.268C131.896 138.92 131.375 138.878 131.026 139.173ZM154.987 105.734C154.558 105.579 154.083 105.801 153.928 106.23C152.783 109.399 151.415 112.524 149.864 115.519C149.654 115.925 149.813 116.423 150.217 116.634C150.34 116.697 150.469 116.727 150.597 116.727C150.897 116.727 151.185 116.564 151.332 116.279C152.916 113.221 154.312 110.029 155.482 106.793C155.637 106.363 155.416 105.89 154.987 105.734ZM159.158 85.718C158.701 85.681 158.303 86.0151 158.263 86.4697C157.975 89.8341 157.463 93.2042 156.744 96.4892C156.646 96.9341 156.928 97.3757 157.375 97.4739C157.434 97.4864 157.493 97.4927 157.552 97.4927C157.932 97.4927 158.274 97.2288 158.358 96.8431C159.094 93.4888 159.617 90.0459 159.91 86.6117C159.949 86.1567 159.613 85.7561 159.158 85.718ZM40.0525 146.343C37.2544 144.637 34.5353 142.735 31.9707 140.688C31.6139 140.403 31.0938 140.462 30.8088 140.818C30.5242 141.174 30.5824 141.694 30.9393 141.979C33.5582 144.07 36.3347 146.013 39.1921 147.754C39.3264 147.837 39.4747 147.875 39.6216 147.875C39.9004 147.875 40.1724 147.735 40.328 147.479C40.5658 147.089 40.4421 146.581 40.0525 146.343ZM8.48397 109.472C8.31014 109.05 7.82621 108.848 7.4044 109.023C6.98259 109.198 6.78179 109.681 6.9561 110.103C8.23406 113.196 9.72485 116.239 11.3866 119.15C11.5392 119.417 11.8185 119.567 12.1055 119.567C12.2447 119.567 12.3853 119.532 12.5148 119.458C12.9111 119.231 13.0488 118.727 12.8225 118.33C11.1949 115.48 9.73545 112.501 8.48397 109.472ZM24.6636 134.06C24.9819 134.387 24.9746 134.911 24.6472 135.229C24.4864 135.386 24.2784 135.464 24.0708 135.464C23.8556 135.464 23.6403 135.379 23.4781 135.213C21.1432 132.81 18.9388 130.238 16.9255 127.563C16.6506 127.198 16.7238 126.681 17.0883 126.406C17.4533 126.131 17.9714 126.203 18.2459 126.568C20.2182 129.188 22.3773 131.709 24.6636 134.06Z" fill="white"/>
</mask>
<g mask="url(#mask2_670_161)">
<path d="M80.0198 -79.9014L-79.5112 79.6297L80.0198 239.161L239.551 79.6297L80.0198 -79.9014Z" fill="black"/>
</g>
</g>
</g>
</svg>
